{
.appVersion = "3306";
.formatVersion = 3;
axes = (
{
name = Weight;
tag = wght;
}
);
customParameters = (
{
name = fsType;
value = (
);
},
{
name = panose;
value = (
2,
11,
0,
9,
4,
0,
0,
2,
0,
4
);
}
);
date = "2025-09-06 10:47:48 +0000";
familyName = Caesium;
features = (
{
code = "sub [zero one two three four five six seven eight nine] x' by x.digit;
sub zero b' [zero one] by b.digit;";
tag = calt;
},
{
code = "#ifdef VARIABLE
condition 480 < wght;
sub dollar by dollar.alt;
#endif
";
tag = rvrn;
},
{
automatic = 1;
code = "sub A by A.ss01;
sub E by E.ss01;
sub F by F.ss01;
sub G by G.ss01;
sub H by H.ss01;
sub I by I.ss01;
sub J by J.ss01;
sub L by L.ss01;
sub N by N.ss01;
sub Q by Q.ss01;
sub T by T.ss01;
sub Y by Y.ss01;
sub Z by Z.ss01;
sub a by a.ss01;
sub b by b.ss01;
sub g by g.ss01;
sub p by p.ss01;
sub y by y.ss01;
";
labels = (
{
language = dflt;
value = "";
}
);
tag = ss01;
},
{
automatic = 1;
code = "sub z by z.ss02;
";
labels = (
{
language = dflt;
value = "";
}
);
tag = ss02;
},
{
automatic = 1;
code = "sub J by J.ss03;
";
labels = (
{
language = dflt;
value = "";
}
);
tag = ss03;
}
);
fontMaster = (
{
axesValues = (
400
);
customParameters = (
{
name = underlineThickness;
value = 63;
},
{
name = underlinePosition;
value = -83;
},
{
name = typoAscender;
value = 952;
},
{
name = typoDescender;
value = -328;
},
{
name = typoLineGap;
value = 0;
},
{
name = hheaAscender;
value = 952;
},
{
name = hheaDescender;
value = -328;
},
{
name = hheaLineGap;
value = 0;
}
);
id = "D03DF296-8133-4A96-B1BA-CFDB09DF42C8";
metricValues = (
{
pos = 824;
},
{
pos = 710;
},
{
pos = -200;
},
{
},
{
pos = 530;
}
);
name = _Regular;
stemValues = (
92,
84
);
},
{
axesValues = (
150
);
customParameters = (
{
name = underlineThickness;
value = 34;
},
{
name = underlinePosition;
value = -83;
},
{
name = typoAscender;
value = 952;
},
{
name = typoDescender;
value = -328;
},
{
name = typoLineGap;
value = 0;
},
{
name = hheaAscender;
value = 952;
},
{
name = hheaDescender;

glyphs = (
{
glyphname = A;
layers = (
{
anchors = (
{
name = top;
pos = (309,710);
}
);
layerId = "1A7FA7F6-774C-4A69-BC02-C84AF7C361B9";
shapes = (
{
closed = 1;
nodes = (
(9,0,l),
(152,0,l),
(300,537,l),
(309,537,l),
(439,0,l),
(582,0,l),
(389,710,l),
(226,710,l)
);
},
{
closed = 1;
nodes = (
(116,134,l),
(475,134,l),
(477,252,l),
(118,252,l)
);
}
);
width = 600;
},
{
anchors = (
{
name = top;
pos = (309,710);
}
);
layerId = "772FC93F-B3B8-447D-A30A-419E2FCA5167";
shapes = (
{
closed = 1;
nodes = (
(17,0,l),
(123,0,l),
(302,624,l),
(311,624,l),
(468,0,l),
(572,0,l),
(380,710,l),
(236,710,l)
);
},
{
closed = 1;
nodes = (
(116,173,l),
(476,173,l),
(477,265,l),
(118,265,l)
);
}
);
width = 600;
},
{
anchors = (
{
name = top;
pos = (309,710);
}
);
layerId = "ADDB71F6-EC09-4DA0-80DB-A822AEA2EE7D";
shapes = (
{
closed = 1;
nodes = (
(30,0,l),
(80,0,l),
(304,667,l),
(309,667,l),
(511,0,l),
(561,0,l),
(342,710,l),
(273,710,l)
);
},
{
closed = 1;
nodes = (
(117,198,l),
(476,198,l),
(477,243,l),
(117,243,l)
);
}
);
width = 600;
},
{
anchors = (
{
name = top;
pos = (309,710);
}
);
layerId = "D03DF296-8133-4A96-B1BA-CFDB09DF42C8";
shapes = (
{
closed = 1;
nodes = (
(19.379,0,l),
(115.131,0,l),
(302.366,631.869,l),
(310.634,631.869,l),
(475.869,0,l),
(569.987,0,l),
(373.046,710,l),
(242.771,710,l)
);
},
{
closed = 1;
nodes = (
(116.183,177.575,l),
(476,177.575,l),
(477,260.974,l),
(117.817,260.974,l)
);
}
);
width = 600;
}
);
unicode = 65;
},
{
glyphname = AE;
layers = (
{
anchors = (
{
name = bottom;
pos = (321,0);
},
{
name = ogonek;
pos = (527,5);
},
{
name = top;
pos = (321,710);
}
);
layerId = "1A7FA7F6-774C-4A69-BC02-C84AF7C361B9";
shapes = (
{
closed = 1;
nodes = (
(14,0,l),
(146,0,l),
(266,593,l),
(362,593,l),
(362,710,l),
(179,710,l)
);
},
{
closed = 1;
nodes = (
(116,113,l),
(355,113,l),
(355,232,l),
(116,232,l)
);
},
{
closed = 1;
nodes = (
(288,0,l),
(558,0,l),
(558,121,l),
(288,121,l)
);
},
{
closed = 1;
nodes = (
(288,0,l),
(407,0,l),
(407,710,l),
(288,710,l)
);
},
{
closed = 1;
nodes = (
(288,295,l),
(528,295,l),
(528,416,l),
(288,416,l)
);
},
{
closed = 1;
nodes = (
(288,589,l),
(558,589,l),
(558,710,l),
(288,710,l)
);
}
);
width = 600;
},
{
anchors = (
{
name = bottom;
pos = (321,0);
},
{
name = ogonek;
pos = (527,5);
},
{
name = top;
pos = (321,710);
}
);
layerId = "772FC93F-B3B8-447D-A30A-419E2FCA5167";
shapes = (
{
closed = 1;
nodes = (
(22,0,l),
(116,0,l),
(287,624,l),
(353,624,l),
(353,710,l),
(216,710,l)
);
},
{
closed = 1;
nodes = (
(116,151,l),
(351,151,l),
(351,239,l),
(116,239,l)
);
},
{
closed = 1;
nodes = (
(295,0,l),
(550,0,l),
(550,95,l),
(295,95,l)
);
},
{
closed = 1;
nodes = (
(295,0,l),
(390,0,l),
(390,710,l),
(295,710,l)
);
},
{
closed = 1;
nodes = (
(300,308,l),
(520,308,l),
(520,403,l),
(300,403,l)
);
},
{
closed = 1;
nodes = (
(295,615,l),
(550,615,l),
(550,710,l),
(295,710,l)
);
}
);
width = 600;
},
{
anchors = (
{
name = bottom;
pos = (321,0);
},
{
name = ogonek;
pos = (527,5);
},
{
name = top;
pos = (321,710);
}
);
layerId = "ADDB71F6-EC09-4DA0-80DB-A822AEA2EE7D";
shapes = (
{
closed = 1;
nodes = (
(34,0,l),
(77,0,l),
(310,665,l),
(347,665,l),
(347,710,l),
(283,710,l)
);
},
{
closed = 1;
nodes = (
(116,172,l),
(350,172,l),
(350,217,l),
(116,217,l)
);
},
{
closed = 1;
nodes = (
(319,0,l),
(537,0,l),
(537,45,l),
(319,45,l)
);
},
{
closed = 1;
nodes = (
(319,0,l),
(366,0,l),
(366,710,l),
(319,710,l)
);
},
{
closed = 1;
nodes = (
(319,333,l),
(507,333,l),
(507,378,l),
(319,378,l)
);
},
{
closed = 1;
nodes = (
(319,665,l),
(537,665,l),
(537,710,l),
(319,710,l)
);
}
);
width = 600;
},
{
anchors = (
{
name = bottom;
pos = (321,0);
},
{
name = ogonek;
pos = (527,5);
},
{
name = top;
pos = (321,710);
}
);
layerId = "D03DF296-8133-4A96-B1BA-CFDB09DF42C8";
shapes = (
{
closed = 1;
nodes = (
(24.196,0,l),
(108.863,0,l),
(291.209,631.503,l),
(351.902,631.503,l),
(351.902,710,l),
(228.261,710,l)
);
},
{
closed = 1;
nodes = (
(116,154.843,l),
(350.817,154.843,l),
(350.817,234.974,l),
(116,234.974,l)
);
},
{
closed = 1;
nodes = (
(299.392,0,l),
(547.621,0,l),
(547.621,85.85,l),
(299.392,85.85,l)
);
},
{
closed = 1;
nodes = (
(299.392,0,l),
(385.608,0,l),
(385.608,710,l),
(299.392,710,l)
);
},
{
closed = 1;
nodes = (
(303.477,312.575,l),
(517.621,312.575,l),
(517.621,398.425,l),
(303.477,398.425,l)
);
},
{
closed = 1;
nodes = (
(299.392,624.15,l),
(547.621,624.15,l),
(547.621,710,l),
(299.392,710,l)
);
}
);
width = 600;
}
);
unicode = 198;
},
{
glyphname = B;
layers = (
{
anchors = (
{
name = bottom;
pos = (275,0);
},
{
name = top;
pos = (288,710);
}
);
layerId = "1A7FA7F6-774C-4A69-BC02-C84AF7C361B9";
shapes = (
{
closed = 1;
nodes = (
(328,372,l),
(361,339,l),
(361,411,l),
(328,386,l),
(355,386,ls),
(457,386,o),
(541,430,o),
(541,541,cs),
(541,649,o),
(457,710,o),
(309,710,cs),
(155,710,l),
(155,589,l),
(302,589,ls),
(369,589,o),
(401,565,o),
(401,518,cs),
(400,464,o),
(369,436,o),
(306,436,cs),
(149,436,l),
(149,314,l),
(306,314,ls),
(382,314,o),
(426,280,o),
(426,220,cs),
(426,151,o),
(375,122,o),
(310,122,cs),
(143,122,l),
(143,0,l),
(337,0,ls),
(466,0,o),
(564,60,o),
(564,203,cs),
(564,309,o),
(495,372,o),
(354,372,cs)
);
},
{
closed = 1;
nodes = (
(67,0,l),
(199,0,l),
(211,710,l),
(79,710,l)
);
}
);
width = 600;
},
{
anchors = (
{
name = bottom;
pos = (275,0);
},
{
name = top;
pos = (288,710);
}
);
layerId = "772FC93F-B3B8-447D-A30A-419E2FCA5167";
shapes = (
{
closed = 1;
nodes = (
(296,377,l),
(355,343,l),
(355,404,l),
(296,381,l),
(325,381,ls),
(418,381,o),
(531,411,o),
(531,535,cs),
(531,647,o),
(452,710,o),
(309,710,cs),
(146,710,l),
(146,615,l),
(302,615,ls),
(382,615,o),
(427,582,o),
(427,522,cs),
(427,450,o),
(372,423,o),
(306,423,cs),
(140,423,l),
(140,328,l),
(307,328,ls),
(399,328,o),
(451,286,o),
(451,213,cs),
(451,129,o),
(387,95,o),
(310,95,cs),
(134,95,l),
(134,0,l),
(337,0,ls),
(465,0,o),
(556,63,o),
(556,199,cs),
(556,311,o),
(477,377,o),
(325,377,cs)
);
},
{
closed = 1;
nodes = (
(76,0,l),
(180,0,l),
(192,710,l),
(88,710,l)
);
}
);
width = 600;
},
{
anchors = (
{
name = bottom;
pos = (275,0);
},
{
name = top;
pos = (288,710);
}
);
layerId = "ADDB71F6-EC09-4DA0-80DB-A822AEA2EE7D";
shapes = (
{
closed = 1;
nodes = (
(328,376,l),
(354,363,l),
(354,391,l),
(328,380,l),
(342,380,ls),
(455,380,o),
(520,432,o),
(520,539,cs),
(520,647,o),
(443,710,o),
(309,710,cs),
(125,710,l),
(125,665,l),
(313,665,ls),
(414,665,o),
(472,618,o),
(472,538,cs),
(472,437,o),
(396,397,o),
(305,397,cs),
(119,397,l),
(119,352,l),
(328,352,ls),
(434,352,o),
(496,295,o),
(496,195,cs),
(496,88,o),
(416,45,o),
(318,45,cs),
(113,45,l),
(113,0,l),
(317,0,ls),
(444,0,o),
(544,57,o),
(544,195,cs),
(544,309,o),
(469,376,o),
(342,376,cs)
);
},
{
closed = 1;
nodes = (
(87,0,l),
(134,0,l),
(146,710,l),
(99,710,l)
);
}
);
width = 600;
},
{
anchors = (
{
name = bottom;
pos = (275,0);
},
{
name = top;
pos = (288,710);
}
);
layerId = "D03DF296-8133-4A96-B1BA-CFDB09DF42C8";
shapes = (
{
closed = 1;
nodes = (
(301.856,376.817,l),
(354.817,346.66,l),
(354.817,401.621,l),
(301.856,380.817,l),
(328.111,380.817,ls),
(424.771,380.817,o),
(528.987,414.843,o),
(528.987,535.732,cs),
(528.987,647,o),
(450.353,710,o),
(309,710,cs),
(142.157,710,l),
(142.157,624.15,l),
(304.013,624.15,ls),
(387.856,624.15,o),
(435.235,588.588,o),
(435.235,524.928,cs),
(435.235,447.621,o),
(376.392,418.242,o),
(305.817,418.242,cs),
(136.157,418.242,l),
(136.157,332.392,l),
(310.843,332.392,ls),
(405.405,332.392,o),
(459.235,287.647,o),
(459.235,209.706,cs),
(459.235,121.497,o),
(392.307,85.85,o),
(311.464,85.85,cs),
(130.157,85.85,l),
(130.157,0,l),
(333.34,0,ls),
(461.157,0,o),
(553.804,61.902,o),
(553.804,198.268,cs),
(553.804,310.634,o),
(475.536,376.817,o),
(328.111,376.817,cs)
);
},
{
closed = 1;
nodes = (
(78.013,0,l),
(171.582,0,l),
(183.582,710,l),
(90.013,710,l)
);
}
);
width = 600;
}
);
unicode = 66;
},
{
glyphname = C;
layers = (
{
anchors = (
{
name = bottom;
pos = (347,0);
}
);
layerId = "1A7FA7F6-774C-4A69-BC02-C84AF7C361B9";
shapes = (
{
closed = 1;
nodes = (
(440,-10,o),
(500,1,o),
(558,24,c),
(537,146,l),
(490,126,o),
(445,116,o),
(397,116,cs),
(260,116,o),
(190,194,o),
(190,351,cs),
(190,475,o),
(242,594,o),
(378,594,cs),
(430,594,o),
(477,572,o),
(506,536,c),
(581,633,l),
(545,689,o),
(471,720,o),
(379,720,cs),
(151,720,o),
(51,559,o),
(51,343,cs),
(51,108,o),
(162,-10,o),
(379,-10,cs)
);
}
);
width = 600;
},
{
anchors = (
{
name = bottom;
pos = (347,0);
}
);
layerId = "772FC93F-B3B8-447D-A30A-419E2FCA5167";
shapes = (
{
closed = 1;
nodes = (
(438,-10,o),
(496,1,o),
(553,24,c),
(531,112,l),
(486,91,o),
(442,82,o),
(396,82,cs),
(248,82,o),
(172,171,o),
(172,350,cs),
(172,489,o),
(227,628,o),
(378,628,cs),
(428,628,o),
(473,602,o),
(501,557,c),
(575,631,l),
(544,688,o),
(472,720,o),
(378,720,cs),
(156,720,o),
(65,554,o),
(65,342,cs),
(65,108,o),
(170,-10,o),
(377,-10,cs)
);
}
);
width = 600;
},
{
anchors = (
{
name = bottom;
pos = (347,0);
}
);
layerId = "ADDB71F6-EC09-4DA0-80DB-A822AEA2EE7D";
shapes = (
{
closed = 1;
nodes = (
(442,-10,o),
(492,1,o),
(554,29,c),
(542,73,l),
(487,47,o),
(437,35,o),
(382,35,cs),
(209,35,o),
(122,139,o),
(122,348,cs),
(122,518,o),
(194,675,o),
(376,675,cs),
(437,675,o),
(494,646,o),
(527,597,c),
(561,631,l),
(523,686,o),
(458,720,o),
(375,720,cs),
(162,720,o),
(74,535,o),
(74,342,cs),
(74,111,o),
(181,-10,o),
(381,-10,cs)
);
}
);
width = 600;
},
{
anchors = (
{
name = bottom;
pos = (347,0);
}
);
layerId = "D03DF296-8133-4A96-B1BA-CFDB09DF42C8";
shapes = (
{
closed = 1;
nodes = (
(438.732,-10,o),
(495.268,1,o),
(553.183,24.915,c),
(533.013,104.863,l),
(486.183,82.948,o),
(441.085,73.399,o),
(393.438,73.399,cs),
(240.863,73.399,o),
(162.85,165.144,o),
(162.85,349.634,cs),
(162.85,494.307,o),
(220.961,636.601,o),
(377.634,636.601,cs),
(429.647,636.601,o),
(476.843,610.052,o),
(505.758,564.32,c),
(572.438,631,l),
(540.157,687.634,o),
(469.438,720,o),
(377.451,720,cs),
(157.098,720,o),
(66.647,550.523,o),
(66.647,342,cs),
(66.647,108.549,o),
(172.013,-10,o),
(377.732,-10,cs)
);
}
);
width = 600;
}
);
unicode = 67;
},
{
glyphname = D;
layers = (
{
layerId = "1A7FA7F6-774C-4A69-BC02-C84AF7C361B9";
shapes = (
{
closed = 1;
nodes = (
(143,0,l),
(248,0,ls),
(484,0,o),
(587,129,o),
(587,358,cs),
(587,594,o),
(478,710,o),
(260,710,cs),
(155,710,l),
(155,584,l),
(258,584,ls),
(385,584,o),
(449,505,o),
(449,354,cs),
(449,220,o),
(395,126,o),
(250,126,cs),
(143,126,l)
);
},
{
closed = 1;
nodes = (
(68,0,l),
(200,0,l),
(212,710,l),
(80,710,l)
);
}
);
width = 600;
},
{
layerId = "772FC93F-B3B8-447D-A30A-419E2FCA5167";
shapes = (
{
closed = 1;
nodes = (
(133,0,l),
(248,0,ls),
(483,0,o),
(579,135,o),
(579,359,cs),
(579,594,o),
(473,710,o),
(260,710,cs),
(145,710,l),
(145,615,l),
(258,615,ls),
(401,615,o),
(474,529,o),
(474,356,cs),
(474,204,o),
(416,95,o),
(249,95,cs),
(133,95,l)
);
},
{
closed = 1;
nodes = (
(76,0,l),
(180,0,l),
(192,710,l),
(88,710,l)
);
}
);
width = 600;
},
{
layerId = "ADDB71F6-EC09-4DA0-80DB-A822AEA2EE7D";
shapes = (
{
closed = 1;
nodes = (
(111,0,l),
(243,0,ls),
(476,0,o),
(562,141,o),
(562,359,cs),
(562,594,o),
(460,710,o),
(255,710,cs),
(120,710,l),
(120,665,l),
(254,665,ls),
(427,665,o),
(514,563,o),
(514,358,cs),
(514,174,o),
(444,45,o),
(244,45,cs),
(111,45,l)
);
},
{
closed = 1;
nodes = (
(83,0,l),
(130,0,l),
(142,710,l),
(95,710,l)
);
}
);
width = 600;
},
{
layerId = "D03DF296-8133-4A96-B1BA-CFDB09DF42C8";
shapes = (
{
closed = 1;
nodes = (
(128.974,0,l),
(247.085,0,ls),
(481.719,0,o),
(575.889,136.098,o),
(575.889,359,cs),
(575.889,594,o),
(470.621,710,o),
(259.085,710,cs),
(140.425,710,l),
(140.425,624.15,l),
(257.268,624.15,ls),
(405.758,624.15,o),
(481.32,535.222,o),
(481.32,356.366,cs),
(481.32,198.51,o),
(421.124,85.85,o),
(248.085,85.85,cs),
(128.974,85.85,l)
);
},
{
closed = 1;
nodes = (
(77.281,0,l),
(170.85,0,l),
(182.85,710,l),
(89.281,710,l)
);
}
);
width = 600;
}
);
unicode = 68;
},
{
glyphname = Eth;
layers = (
{
layerId = "1A7FA7F6-774C-4A69-BC02-C84AF7C361B9";
shapes = (
{
closed = 1;
nodes = (
(6,293,l),
(326,293,l),
(326,415,l),
(6,415,l)
);
},
{
ref = D;
}
);
width = 600;
},
{
layerId = "772FC93F-B3B8-447D-A30A-419E2FCA5167";
shapes = (
{
closed = 1;
nodes = (
(6,306,l),
(326,306,l),
(326,401,l),
(6,401,l)
);
},
{
ref = D;
}
);
width = 600;
},
{
layerId = "ADDB71F6-EC09-4DA0-80DB-A822AEA2EE7D";
shapes = (
{
closed = 1;
nodes = (
(6,331,l),
(326,331,l),
(326,376,l),
(6,376,l)
);
},
{
ref = D;
}
);
width = 600;
},
{
layerId = "D03DF296-8133-4A96-B1BA-CFDB09DF42C8";
shapes = (
{
closed = 1;
nodes = (
(6,310.575,l),
(326,310.575,l),
(326,396.425,l),
(6,396.425,l)
);
},
{
alignment = -1;
ref = D;
}
);
width = 600;
}
);
unicode = 208;
},
{
glyphname = E;
layers = (
{
anchors = (
{
name = top;
pos = (333,710);
}
);
layerId = "1A7FA7F6-774C-4A69-BC02-C84AF7C361B9";
shapes = (
{
closed = 1;
nodes = (
(98,0,l),
(230,0,l),
(242,710,l),
(110,710,l)
);
},
{
closed = 1;
nodes = (
(129,0,l),
(545,0,l),
(545,122,l),
(130,122,l)
);
},
{
closed = 1;
nodes = (
(133,295,l),
(501,295,l),
(501,417,l),
(135,417,l)
);
},
{
closed = 1;
nodes = (
(138,589,l),
(555,589,l),
(555,710,l),
(140,710,l)
);
}
);
width = 600;
},
{
anchors = (
{
name = top;
pos = (333,710);
}
);
layerId = "772FC93F-B3B8-447D-A30A-419E2FCA5167";
shapes = (
{
closed = 1;
nodes = (
(106,0,l),
(210,0,l),
(222,710,l),
(118,710,l)
);
},
{
closed = 1;
nodes = (
(137,0,l),
(536,0,l),
(536,95,l),
(138,95,l)
);
},
{
closed = 1;
nodes = (
(142,308,l),
(493,308,l),
(493,403,l),
(143,403,l)
);
},
{
closed = 1;
nodes = (
(147,615,l),
(547,615,l),
(547,710,l),
(150,710,l)
);
}
);
width = 600;
},
{
anchors = (
{
name = top;
pos = (333,710);
}
);
layerId = "ADDB71F6-EC09-4DA0-80DB-A822AEA2EE7D";
shapes = (
{
closed = 1;
nodes = (
(118,0,l),
(165,0,l),
(177,710,l),
(130,710,l)
);
},
{
closed = 1;
nodes = (
(148,0,l),
(523,0,l),
(523,45,l),
(150,45,l)
);
},
{
closed = 1;
nodes = (
(155,333,l),
(480,333,l),
(480,378,l),
(156,378,l)
);
},
{
closed = 1;
nodes = (
(161,665,l),
(536,665,l),
(536,710,l),
(161,710,l)
);
}
);
width = 600;
},
{
anchors = (
{
name = top;
pos = (333,710);
}
);
layerId = "D03DF296-8133-4A96-B1BA-CFDB09DF42C8";
shapes = (
{
closed = 1;
nodes = (
(108.196,0,l),
(201.765,0,l),
(213.765,710,l),
(120.196,710,l)
);
},
{
closed = 1;
nodes = (
(139.013,0,l),
(533.621,0,l),
(533.621,85.85,l),
(140.196,85.85,l)
);
},
{
closed = 1;
nodes = (
(144.379,312.575,l),
(490.621,312.575,l),
(490.621,398.425,l),
(145.379,398.425,l)
);
},
{
closed = 1;
nodes = (
(149.562,624.15,l),
(544.987,624.15,l),
(544.987,710,l),
(152.013,710,l)
);
}
);
width = 600;
}
);
unicode = 69;
},
{
glyphname = Eopen;
layers = (
{
anchors = (
{
name = top;
pos = (354,710);
}
);
layerId = "1A7FA7F6-774C-4A69-BC02-C84AF7C361B9";
shapes = (
{
closed = 1;
nodes = (
(179,720,o),
(104,650,o),
(104,547,cs),
(104,462,o),
(152,399,o),
(274,382,c),
(266,410,l),
(266,351,l),
(274,378,l),
(171,376,o),
(76,314,o),
(76,197,cs),
(76,66,o),
(176,-10,o),
(351,-10,cs),
(452,-10,o),
(503,-2,o),
(568,24,c),
(546,145,l),
(472,122,o),
(433,116,o),
(351,116,cs),
(265,116,o),
(214,151,o),
(214,208,cs),
(214,273,o),
(267,310,o),
(346,310,cs),
(438,310,l),
(449,436,l),
(294,440,o),
(240,469,o),
(240,529,cs),
(240,566,o),
(275,595,o),
(360,595,cs),
(421,595,o),
(470,575,o),
(498,540,c),
(581,635,l),
(537,685,o),
(466,720,o),
(360,720,cs)
);
}
);
width = 600;
},
{
anchors = (
{
name = top;
pos = (352,710);
}
);
layerId = "772FC93F-B3B8-447D-A30A-419E2FCA5167";
shapes = (
{
closed = 1;
nodes = (
(185,720,o),
(112,650,o),
(112,547,cs),
(112,462,o),
(162,399,o),
(283,382,c),
(274,410,l),
(274,351,l),
(283,378,l),
(179,376,o),
(85,314,o),
(85,197,cs),
(85,72,o),
(187,-10,o),
(351,-10,cs),
(448,-10,o),
(497,-2,o),
(560,24,c),
(537,114,l),
(467,91,o),
(429,85,o),
(350,85,cs),
(249,85,o),
(188,129,o),
(188,208,cs),
(188,284,o),
(252,326,o),
(346,326,cs),
(432,326,l),
(443,420,l),
(274,425,o),
(214,458,o),
(214,529,cs),
(214,585,o),
(257,628,o),
(360,628,cs),
(421,628,o),
(470,603,o),
(498,557,c),
(572,631,l),
(538,687,o),
(466,720,o),
(360,720,cs)
);
}
);
width = 600;
},
{
anchors = (
{
name = top;
pos = (351,710);
}
);
layerId = "ADDB71F6-EC09-4DA0-80DB-A822AEA2EE7D";
shapes = (
{
closed = 1;
nodes = (
(210,720,o),
(125,655,o),
(125,547,cs),
(125,460,o),
(170,392,o),
(283,379,c),
(274,410,l),
(274,351,l),
(283,376,l),
(186,374,o),
(96,305,o),
(96,177,cs),
(96,59,o),
(191,-10,o),
(351,-10,cs),
(442,-10,o),
(488,-2,o),
(548,24,c),
(536,69,l),
(466,42,o),
(429,35,o),
(350,35,cs),
(220,35,o),
(144,90,o),
(144,182,cs),
(144,291,o),
(225,351,o),
(346,351,cs),
(418,351,l),
(429,395,l),
(244,401,o),
(172,445,o),
(172,539,cs),
(172,625,o),
(240,675,o),
(356,675,cs),
(428,675,o),
(492,645,o),
(532,607,c),
(563,643,l),
(524,687,o),
(449,720,o),
(355,720,cs)
);
}
);
width = 600;
},
{
anchors = (
{
name = top;
pos = (351.817,710);
}
);
layerId = "D03DF296-8133-4A96-B1BA-CFDB09DF42C8";
shapes = (
{
closed = 1;
nodes = (
(189.575,720,o),
(114.379,650.915,o),
(114.379,547,cs),
(114.379,461.634,o),
(163.464,397.719,o),
(283,381.451,c),
(274,410,l),
(274,351,l),
(283,377.634,l),
(180.281,375.634,o),
(87.013,312.353,o),
(87.013,193.34,cs),
(87.013,69.621,o),
(187.732,-10,o),
(351,-10,cs),
(446.902,-10,o),
(495.353,-2,o),
(557.804,24,c),
(536.817,105.765,l),
(466.817,82.033,o),
(429,75.85,o),
(350,75.85,cs),
(243.693,75.85,o),
(179.948,121.863,o),
(179.948,203.242,cs),
(179.948,285.281,o),
(247.059,330.575,o),
(346,330.575,cs),
(429.438,330.575,l),
(440.438,415.425,l),
(268.51,420.608,o),
(206.314,455.621,o),
(206.314,530.83,cs),
(206.314,592.32,o),
(253.889,636.601,o),
(359.268,636.601,cs),
(422.281,636.601,o),
(474.026,610.686,o),
(504.222,566.15,c),
(570.353,633.196,l),
(535.438,687,o),
(462.889,720,o),
(359.085,720,cs)
);
}
);
width = 600;
}
);
unicode = 400;
},
{
glyphname = Schwa;
layers = (
{
layerId = "1A7FA7F6-774C-4A69-BC02-C84AF7C361B9";
shapes = (
{
closed = 1;
nodes = (
(472,-10,o),
(570,121,o),
(570,373,cs),
(570,600,o),
(468,720,o),
(263,720,cs),
(201,720,o),
(142,713,o),
(87,697,c),
(97,575,l),
(146,588,o),
(202,595,o),
(258,595,cs),
(375,595,o),
(432,515,o),
(432,367,cs),
(432,206,o),
(380,116,o),
(292,116,cs),
(209,116,o),
(167,182,o),
(167,315,cs),
(167,341,o),
(168,370,o),
(171,404,c),
(34,413,l),
(30,379,o),
(29,345,o),
(29,310,cs),
(29,96,o),
(115,-10,o),
(288,-10,cs)
);
},
{
closed = 1;
nodes = (
(60,291,l),
(508,291,l),
(508,413,l),
(34,413,l)
);
}
);
width = 600;
},
{
layerId = "772FC93F-B3B8-447D-A30A-419E2FCA5167";
shapes = (
{
closed = 1;
nodes = (
(466,-10,o),
(562,122,o),
(562,374,cs),
(562,601,o),
(462,720,o),
(263,720,cs),
(205,720,o),
(148,713,o),
(96,697,c),
(106,608,l),
(154,622,o),
(206,628,o),
(259,628,cs),
(391,628,o),
(458,539,o),
(458,370,cs),
(458,184,o),
(396,82,o),
(291,82,cs),
(191,82,o),
(142,159,o),
(142,312,cs),
(142,339,o),
(143,365,o),
(145,391,c),
(42,399,l),
(39,373,o),
(37,343,o),
(37,309,cs),
(37,96,o),
(120,-10,o),
(288,-10,cs)
);
},
{
closed = 1;
nodes = (
(69,304,l),
(509,304,l),
(509,399,l),
(42,399,l)
);
}
);
width = 600;
},
{
layerId = "ADDB71F6-EC09-4DA0-80DB-A822AEA2EE7D";
shapes = (
{
closed = 1;
nodes = (
(457,-10,o),
(549,118,o),
(549,370,cs),
(549,596,o),
(454,720,o),
(263,720,cs),
(209,720,o),
(158,713,o),
(109,697,c),
(117,653,l),
(162,668,o),
(211,675,o),
(261,675,cs),
(422,675,o),
(502,566,o),
(502,368,cs),
(502,148,o),
(425,35,o),
(289,35,cs),
(161,35,o),
(97,120,o),
(97,290,cs),
(97,314,o),
(98,340,o),
(101,366,c),
(53,374,l),
(50,348,o),
(49,319,o),
(49,288,cs),
(49,89,o),
(128,-10,o),
(288,-10,cs)
);
},
{
closed = 1;
nodes = (
(83,327,l),
(511,327,l),
(511,374,l),
(53,374,l)
);
}
);
width = 600;
},
{
layerId = "D03DF296-8133-4A96-B1BA-CFDB09DF42C8";
shapes = (
{
closed = 1;
nodes = (
(464.353,-10,o),
(559.621,121.268,o),
(559.621,373.268,cs),
(559.621,600.085,o),
(460.536,720,o),
(263,720,cs),
(205.732,720,o),
(149.83,713,o),
(98.379,697,c),
(108.013,616.235,l),
(155.464,630.418,o),
(206.915,636.601,o),
(259.366,636.601,cs),
(396.673,636.601,o),
(466.052,543.941,o),
(466.052,369.634,cs),
(466.052,177.412,o),
(401.307,73.399,o),
(290.634,73.399,cs),
(185.51,73.399,o),
(133.765,151.863,o),
(133.765,307.974,cs),
(133.765,334.425,o),
(134.765,360.425,o),
(136.948,386.425,c),
(44.013,394.425,l),
(41.013,368.425,o),
(39.196,338.608,o),
(39.196,305.157,cs),
(39.196,94.719,o),
(121.464,-10,o),
(288,-10,cs)
);
},
{
closed = 1;
nodes = (
(71.562,308.209,l),
(509.366,308.209,l),
(509.366,394.425,l),
(44.013,394.425,l)
);
}
);
width = 600;
}
);
unicode = 399;
},
{
glyphname = Ezh;
layers = (
{
layerId = "1A7FA7F6-774C-4A69-BC02-C84AF7C361B9";
shapes = (
{
closed = 1;
nodes = (
(445,-10,o),
(550,75,o),
(550,205,cs),
(550,346,o),
(451,429,o),
(278,432,c),
(331,411,l),
(516,581,l),
(516,710,l),
(73,710,l),
(73,589,l),
(420,589,l),
(379,618,l),
(160,417,l),
(170,313,l),
(237,313,ls),
(348,313,o),
(411,276,o),
(411,211,cs),
(411,152,o),
(362,116,o),
(281,116,cs),
(214,116,o),
(176,134,o),
(122,179,c),
(29,76,l),
(93,18,o),
(174,-10,o),
(278,-10,cs)
);
}
);
width = 600;
},
{
layerId = "772FC93F-B3B8-447D-A30A-419E2FCA5167";
shapes = (
{
closed = 1;
nodes = (
(440,-10,o),
(541,75,o),
(541,205,cs),
(541,335,o),
(445,411,o),
(278,413,c),
(278,391,l),
(508,609,l),
(508,710,l),
(82,710,l),
(82,617,l),
(420,617,l),
(421,647,l),
(160,398,l),
(170,336,l),
(237,336,ls),
(364,336,o),
(437,288,o),
(437,203,cs),
(437,127,o),
(379,82,o),
(281,82,cs),
(210,82,o),
(168,100,o),
(109,146,c),
(37,76,l),
(99,18,o),
(178,-10,o),
(278,-10,cs)
);
}
);
width = 600;
},
{
layerId = "ADDB71F6-EC09-4DA0-80DB-A822AEA2EE7D";
shapes = (
{
closed = 1;
nodes = (
(439,-10,o),
(529,63,o),
(529,193,cs),
(529,326,o),
(426,393,o),
(217,396,c),
(217,376,l),
(496,658,l),
(496,710,l),
(93,710,l),
(93,665,l),
(460,665,l),
(470,695,l),
(162,383,l),
(169,351,l),
(217,351,ls),
(393,351,o),
(481,299,o),
(481,193,cs),
(481,92,o),
(410,35,o),
(286,35,cs),
(202,35,o),
(153,56,o),
(83,109,c),
(49,76,l),
(110,18,o),
(186,-10,o),
(283,-10,cs)
);
}
);
width = 600;
},
{
layerId = "D03DF296-8133-4A96-B1BA-CFDB09DF42C8";
shapes = (
{
closed = 1;
nodes = (
(439.817,-10,o),
(538.804,72.804,o),
(538.804,202.804,cs),
(538.804,333.353,o),
(441.523,407.706,o),
(266.837,409.889,c),
(266.837,388.255,l),
(505.804,617.967,l),
(505.804,710,l),
(84.013,710,l),
(84.013,625.784,l),
(427.32,625.784,l),
(429.967,655.784,l),
(160.366,395.255,l),
(169.817,338.745,l),
(233.34,338.745,ls),
(369.307,338.745,o),
(445.052,290.013,o),
(445.052,201.17,cs),
(445.052,120.595,o),
(384.673,73.399,o),
(281.915,73.399,cs),
(208.536,73.399,o),
(165.255,91.948,o),
(104.242,139.229,c),
(39.196,76,l),
(101.013,18,o),
(179.464,-10,o),
(278.915,-10,cs)
);
}
);
width = 600;
}
);
unicode = 439;
},
{
glyphname = F;
layers = (
{
layerId = "1A7FA7F6-774C-4A69-BC02-C84AF7C361B9";
shapes = (
{
closed = 1;
nodes = (
(118,0,l),
(250,0,l),
(262,710,l),
(130,710,l)
);
},
{
closed = 1;
nodes = (
(154,264,l),
(512,264,l),
(512,386,l),
(156,386,l)
);
},
{
closed = 1;
nodes = (
(159,588,l),
(575,588,l),
(575,710,l),
(161,710,l)
);
}
);
width = 600;
},
{
layerId = "772FC93F-B3B8-447D-A30A-419E2FCA5167";
shapes = (
{
closed = 1;
nodes = (
(126,0,l),
(230,0,l),
(242,710,l),
(138,710,l)
);
},
{
closed = 1;
nodes = (
(162,278,l),
(512,278,l),
(512,373,l),
(164,373,l)
);
},
{
closed = 1;
nodes = (
(168,615,l),
(567,615,l),
(567,710,l),
(170,710,l)
);
}
);
width = 600;
},
{
layerId = "ADDB71F6-EC09-4DA0-80DB-A822AEA2EE7D";
shapes = (
{
closed = 1;
nodes = (
(139,0,l),
(186,0,l),
(198,710,l),
(151,710,l)
);
},
{
closed = 1;
nodes = (
(174,303,l),
(512,303,l),
(512,348,l),
(175,348,l)
);
},
{
closed = 1;
nodes = (
(180,665,l),
(555,665,l),
(555,710,l),
(181,710,l)
);
}
);
width = 600;
},
{
layerId = "D03DF296-8133-4A96-B1BA-CFDB09DF42C8";
shapes = (
{
closed = 1;
nodes = (
(128.379,0,l),
(221.948,0,l),
(233.948,710,l),
(140.379,710,l)
);
},
{
closed = 1;
nodes = (
(164.196,282.575,l),
(512,282.575,l),
(512,368.425,l),
(166.013,368.425,l)
);
},
{
closed = 1;
nodes = (
(170.196,624.15,l),
(564.804,624.15,l),
(564.804,710,l),
(172.013,710,l)
);
}
);
width = 600;
}
);
unicode = 70;
},
{
glyphname = Fhook;
layers = (
{
anchors = (
{
name = bottom;
pos = (330,-194);
}
);
layerId = "1A7FA7F6-774C-4A69-BC02-C84AF7C361B9";
shapes = (
{
closed = 1;
nodes = (
(17,-240,l),
(60,-239,ls),
(188,-234,o),
(248,-177,o),
(250,-48,cs),
(251,92,l),
(120,92,l),
(117,-44,ls),
(116,-93,o),
(95,-118,o),
(48,-119,c),
(17,-120,l)
);
},
{
closed = 1;
nodes = (
(118,0,l),
(250,0,l),
(262,710,l),
(130,710,l)
);
},
{
closed = 1;
nodes = (
(154,264,l),
(512,264,l),
(512,387,l),
(156,387,l)
);
},
{
closed = 1;
nodes = (
(159,589,l),
(575,589,l),
(575,710,l),
(161,710,l)
);
}
);
width = 600;
},
{
anchors = (
{
name = bottom;
pos = (330,-194);
}
);
layerId = "772FC93F-B3B8-447D-A30A-419E2FCA5167";
shapes = (
{
closed = 1;
nodes = (
(14,-238,l),
(50,-234,ls),
(160,-226,o),
(230,-159,o),
(230,-48,cs),
(231,92,l),
(128,92,l),
(125,-40,ls),
(123,-96,o),
(95,-128,o),
(43,-133,c),
(10,-137,l)
);
},
{
closed = 1;
nodes = (
(126,0,l),
(230,0,l),
(243,710,l),
(139,710,l)
);
},
{
closed = 1;
nodes = (
(162,278,l),
(512,278,l),
(512,373,l),
(164,373,l)
);
},
{
closed = 1;
nodes = (
(168,615,l),
(567,615,l),
(567,710,l),
(170,710,l)
);
}
);
width = 600;
},
{
anchors = (
{
name = bottom;
pos = (330,-194);
}
);
layerId = "ADDB71F6-EC09-4DA0-80DB-A822AEA2EE7D";
shapes = (
{
closed = 1;
nodes = (
(16,-234,l),
(35,-231,l),
(144,-217,o),
(184,-160,o),
(185,-28,cs),
(186,92,l),
(140,92,l),
(137,-28,ls),
(135,-132,o),
(108,-175,o),
(31,-185,c),
(12,-188,l)
);
},
{
closed = 1;
nodes = (
(138,0,l),
(185,0,l),
(198,710,l),
(151,710,l)
);
},
{
closed = 1;
nodes = (
(174,303,l),
(511,303,l),
(511,348,l),
(175,348,l)
);
},
{
closed = 1;
nodes = (
(180,665,l),
(555,665,l),
(555,710,l),
(181,710,l)
);
}
);
width = 600;
},
{
anchors = (
{
name = bottom;
pos = (330,-194);
}
);
layerId = "D03DF296-8133-4A96-B1BA-CFDB09DF42C8";
shapes = (
{
closed = 1;
nodes = (
(14.366,-237.268,l),
(47.255,-233.451,l),
(157.072,-224.353,o),
(221.582,-159.183,o),
(221.765,-44.34,cs),
(222.765,92,l),
(130.196,92,l),
(127.196,-37.804,ls),
(125.196,-102.588,o),
(97.379,-136.601,o),
(40.804,-142.516,c),
(10.366,-146.333,l)
);
},
{
closed = 1;
nodes = (
(128.196,0,l),
(221.765,0,l),
(234.765,710,l),
(141.196,710,l)
);
},
{
closed = 1;
nodes = (
(164.196,282.575,l),
(511.817,282.575,l),
(511.817,368.425,l),
(166.013,368.425,l)
);
},
{
closed = 1;
nodes = (
(170.196,624.15,l),
(564.804,624.15,l),
(564.804,710,l),
(172.013,710,l)
);
}
);
width = 600;
}
);
unicode = 401;
},
{
glyphname = G;
layers = (
{
layerId = "1A7FA7F6-774C-4A69-BC02-C84AF7C361B9";
shapes = (
{
closed = 1;
nodes = (
(445,-10,o),
(524,11,o),
(554,20,c),
(509,141,l),
(478,132,o),
(429,116,o),
(366,116,cs),
(236,116,o),
(170,195,o),
(170,351,cs),
(170,478,o),
(220,595,o),
(364,595,cs),
(417,595,o),
(465,571,o),
(496,531,c),
(580,627,l),
(539,686,o),
(464,720,o),
(360,720,cs),
(130,720,o),
(31,555,o),
(31,342,cs),
(31,108,o),
(138,-10,o),
(351,-10,cs)
);
},
{
closed = 1;
nodes = (
(423,20,l),
(554,20,l),
(560,368,l),
(429,368,l)
);
},
{
closed = 1;
nodes = (
(332,246,l),
(504,246,l),
(506,368,l),
(332,368,l)
);
}
);
width = 600;
},
{
layerId = "772FC93F-B3B8-447D-A30A-419E2FCA5167";
shapes = (
{
closed = 1;
nodes = (
(441,-10,o),
(518,11,o),
(546,20,c),
(508,106,l),
(477,97,o),
(428,82,o),
(365,82,cs),
(220,82,o),
(146,171,o),
(146,349,cs),
(146,492,o),
(200,628,o),
(363,628,cs),
(416,628,o),
(464,602,o),
(496,557,c),
(571,631,l),
(536,687,o),
(458,720,o),
(358,720,cs),
(130,720,o),
(40,550,o),
(40,342,cs),
(40,108,o),
(143,-10,o),
(351,-10,cs)
);
},
{
closed = 1;
nodes = (
(446,20,l),
(546,20,l),
(552,355,l),
(453,355,l)
);
},
{
closed = 1;
nodes = (
(332,260,l),
(506,260,l),
(508,355,l),
(332,355,l)
);
}
);
width = 600;
},
{
layerId = "ADDB71F6-EC09-4DA0-80DB-A822AEA2EE7D";
shapes = (
{
closed = 1;
nodes = (
(431,-10,o),
(488,4,o),
(530,20,c),
(503,60,l),
(473,47,o),
(422,35,o),
(359,35,cs),
(189,35,o),
(95,147,o),
(95,350,cs),
(95,523,o),
(167,675,o),
(360,675,cs),
(425,675,o),
(483,652,o),
(521,606,c),
(555,642,l),
(513,691,o),
(444,720,o),
(355,720,cs),
(134,720,o),
(47,538,o),
(47,343,cs),
(47,127,o),
(161,-10,o),
(359,-10,cs)
);
},
{
closed = 1;
nodes = (
(484,20,l),
(530,20,l),
(535,330,l),
(489,330,l)
);
},
{
closed = 1;
nodes = (
(333,286,l),
(510,286,l),
(511,330,l),
(333,330,l)
);
}
);
width = 600;
},
{
layerId = "D03DF296-8133-4A96-B1BA-CFDB09DF42C8";
shapes = (
{
closed = 1;
nodes = (
(439.17,-10,o),
(512.51,9.719,o),
(543.072,20,c),
(507.085,97.582,l),
(476.268,87.85,o),
(426.902,73.399,o),
(363.902,73.399,cs),
(214.327,73.399,o),
(136.667,166.608,o),
(136.667,349.183,cs),
(136.667,497.673,o),
(193.961,636.601,o),
(362.451,636.601,cs),
(417.647,636.601,o),
(467.477,611.15,o),
(500.575,565.967,c),
(568.072,633.013,l),
(531.791,687.732,o),
(455.438,720,o),
(357.451,720,cs),
(130.732,720,o),
(41.281,547.804,o),
(41.281,342.183,cs),
(41.281,111.477,o),
(146.294,-10,o),
(352.464,-10,cs)
);
},
{
closed = 1;
nodes = (
(452.954,20,l),
(543.072,20,l),
(548.889,350.425,l),
(459.588,350.425,l)
);
},
{
closed = 1;
nodes = (
(332.183,264.758,l),
(506.732,264.758,l),
(508.549,350.425,l),
(332.183,350.425,l)
);
}
);
width = 600;
}
);
unicode = 71;
},
{
glyphname = H;
layers = (
{
layerId = "1A7FA7F6-774C-4A69-BC02-C84AF7C361B9";
shapes = (
{
closed = 1;
nodes = (
(401,0,l),
(533,0,l),
(545,710,l),
(413,710,l)
);
},
{
closed = 1;
nodes = (
(55,0,l),
(187,0,l),
(199,710,l),
(67,710,l)
);
},
{
closed = 1;
nodes = (
(81,293,l),
(518,293,l),
(520,415,l),
(83,415,l)
);
}
);
width = 600;
},
{
layerId = "772FC93F-B3B8-447D-A30A-419E2FCA5167";
shapes = (
{
closed = 1;
nodes = (
(420,0,l),
(524,0,l),
(536,710,l),
(432,710,l)
);
},
{
closed = 1;
nodes = (
(64,0,l),
(168,0,l),
(180,710,l),
(76,710,l)
);
},
{
closed = 1;
nodes = (
(90,306,l),
(510,306,l),
(512,401,l),
(91,401,l)
);
}
);
width = 600;
},
{
layerId = "ADDB71F6-EC09-4DA0-80DB-A822AEA2EE7D";
shapes = (
{
closed = 1;
nodes = (
(465,0,l),
(512,0,l),
(524,710,l),
(477,710,l)
);
},
{
closed = 1;
nodes = (
(76,0,l),
(123,0,l),
(135,710,l),
(88,710,l)
);
},
{
closed = 1;
nodes = (
(104,331,l),
(499,331,l),
(500,376,l),
(104,376,l)
);
}
);
width = 600;
},
{
layerId = "D03DF296-8133-4A96-B1BA-CFDB09DF42C8";
shapes = (
{
closed = 1;
nodes = (
(428.235,0,l),
(521.804,0,l),
(533.804,710,l),
(440.235,710,l)
);
},
{
closed = 1;
nodes = (
(66.196,0,l),
(159.765,0,l),
(171.765,710,l),
(78.196,710,l)
);
},
{
closed = 1;
nodes = (
(92.562,310.575,l),
(507.987,310.575,l),
(509.804,396.425,l),
(93.379,396.425,l)
);
}
);
width = 600;
}
);
unicode = 72;
},
{
glyphname = I;
layers = (
{
anchors = (
{
name = top;
pos = (310,710);
}
);
layerId = "1A7FA7F6-774C-4A69-BC02-C84AF7C361B9";
shapes = (
{
closed = 1;
nodes = (
(229,0,l),
(361,0,l),
(373,710,l),
(241,710,l)
);
},
{
closed = 1;
nodes = (
(72,0,l),
(521,0,l),
(521,119,l),
(72,119,l)
);
},
{
closed = 1;
nodes = (
(82,592,l),
(531,592,l),
(531,710,l),
(82,710,l)
);
}
);
width = 600;
},
{
anchors = (
{
name = top;
pos = (310,710);
}
);
layerId = "772FC93F-B3B8-447D-A30A-419E2FCA5167";
shapes = (
{
closed = 1;
nodes = (
(241,0,l),
(345,0,l),
(357,710,l),
(253,710,l)
);
},
{
closed = 1;
nodes = (
(78,0,l),
(510,0,l),
(510,95,l),
(78,95,l)
);
},
{
closed = 1;
nodes = (
(89,615,l),
(521,615,l),
(521,710,l),
(89,710,l)
);
}
);
width = 600;
},
{
anchors = (
{
name = top;
pos = (310,710);
}
);
layerId = "ADDB71F6-EC09-4DA0-80DB-A822AEA2EE7D";
shapes = (
{
closed = 1;
nodes = (
(270,0,l),
(317,0,l),
(329,710,l),
(282,710,l)
);
},
{
closed = 1;
nodes = (
(90,0,l),
(498,0,l),
(498,45,l),
(90,45,l)
);
},
{
closed = 1;
nodes = (
(101,665,l),
(509,665,l),
(509,710,l),
(101,710,l)
);
}
);
width = 600;
},
{
anchors = (
{
name = top;
pos = (310,710);
}
);
layerId = "D03DF296-8133-4A96-B1BA-CFDB09DF42C8";
shapes = (
{
closed = 1;
nodes = (
(246.307,0,l),
(339.876,0,l),
(351.876,710,l),
(258.307,710,l)
);
},
{
closed = 1;
nodes = (
(80.196,0,l),
(507.804,0,l),
(507.804,85.85,l),
(80.196,85.85,l)
);
},
{
closed = 1;
nodes = (
(91.196,624.15,l),
(518.804,624.15,l),
(518.804,710,l),
(91.196,710,l)
);
}
);
width = 600;
}
);
unicode = 73;
},
{
glyphname = IJ;
layers = (
{
layerId = "D03DF296-8133-4A96-B1BA-CFDB09DF42C8";
shapes = (
{
closed = 1;
nodes = (
(529.804,710,l),
(436.235,710,l),
(424.235,37.732,ls),
(422.235,-59.686,o),
(370.307,-119.15,o),
(262.902,-119.15,cs),
(207.536,-119.15,o),
(153.719,-109.333,o),
(99.719,-84.333,c),
(73.281,-167.366,l),
(133.281,-195.366,o),
(194.83,-205,o),
(259.634,-205,cs),
(425.902,-205,o),
(514.804,-112.83,o),
(517.804,45.902,cs)
);
},
{
closed = 1;
nodes = (
(77.196,710,l),
(69.196,265.562,ls),
(67.013,127.732,o),
(125.026,56.268,o),
(242.026,56.268,cs),
(292.392,56.268,o),
(335.026,69.634,o),
(372.843,93.732,c),
(343.856,171.765,l),
(320.843,155.569,o),
(290.379,143.752,o),
(257.549,143.752,cs),
(191.693,143.752,o),
(161.582,190.765,o),
(163.582,295.157,cs),
(170.765,710,l)
);
}
);
width = 600;
},
{
layerId = "ADDB71F6-EC09-4DA0-80DB-A822AEA2EE7D";
shapes = (
{
closed = 1;
nodes = (
(520,710,l),
(473,710,l),
(461,41,ls),
(459,-94,o),
(394,-160,o),
(258,-160,cs),
(201,-160,o),
(148,-151,o),
(94,-126,c),
(79,-169,l),
(139,-197,o),
(203,-205,o),
(258,-205,cs),
(421,-205,o),
(505,-121,o),
(508,41,cs)
);
},
{
closed = 1;
nodes = (
(87,710,l),
(79,277,ls),
(76,131,o),
(143,53,o),
(260,53,cs),
(312,53,o),
(353,68,o),
(390,97,c),
(370,135,l),
(338,109,o),
(301,98,o),
(260,98,cs),
(168,98,o),
(124,154,o),
(126,278,cs),
(134,710,l)
);
}
);
width = 600;
},
{
layerId = "772FC93F-B3B8-447D-A30A-419E2FCA5167";
shapes = (
{
closed = 1;
nodes = (
(532,710,l),
(428,710,l),
(416,37,ls),
(414,-52,o),
(365,-110,o),
(264,-110,cs),
(209,-110,o),
(155,-100,o),
(101,-75,c),
(72,-167,l),
(132,-195,o),
(193,-205,o),
(260,-205,cs),
(427,-205,o),
(517,-111,o),
(520,47,cs)
);
},
{
closed = 1;
nodes = (
(75,710,l),
(67,263,ls),
(65,127,o),
(121,57,o),
(238,57,cs),
(288,57,o),
(331,70,o),
(369,93,c),
(338,180,l),
(317,166,o),
(288,154,o),
(257,154,cs),
(197,154,o),
(170,199,o),
(172,299,cs),
(179,710,l)
);
}
);
width = 600;
},
{
layerId = "1A7FA7F6-774C-4A69-BC02-C84AF7C361B9";
shapes = (
{
closed = 1;
nodes = (
(541,710,l),
(409,710,l),
(398,50,ls),
(397,-36,o),
(346,-80,o),
(254,-80,cs),
(216,-80,o),
(159,-72,o),
(103,-43,c),
(63,-169,l),
(123,-195,o),
(190,-205,o),
(249,-205,cs),
(430,-205,o),
(527,-112,o),
(530,69,cs)
);
},
{
closed = 1;
nodes = (
(67,710,l),
(59,249,ls),
(57,118,o),
(129,53,o),
(240,53,cs),
(288,53,o),
(331,66,o),
(364,91,c),
(335,197,l),
(311,179,o),
(285,174,o),
(266,174,cs),
(215,174,o),
(190,214,o),
(192,303,cs),
(199,710,l)
);
}
);
width = 600;
}
);
unicode = 306;
},
{
glyphname = J;
layers = (
{
anchors = (
{
name = top;
pos = (364,710);
}
);
layerId = "1A7FA7F6-774C-4A69-BC02-C84AF7C361B9";
shapes = (
{
closed = 1;
nodes = (
(150,589,l),
(432,589,l),
(434,710,l),
(150,710,l)
);
},
{
closed = 1;
nodes = (
(496,710,l),
(364,710,l),
(356,262,ls),
(354,167,o),
(302,120,o),
(201,120,cs),
(161,120,o),
(117,129,o),
(56,148,c),
(31,22,l),
(88,0,o),
(140,-10,o),
(202,-10,cs),
(390,-10,o),
(485,81,o),
(488,265,cs)
);
}
);
width = 600;
},
{
anchors = (
{
name = top;
pos = (366,710);
}
);
layerId = "772FC93F-B3B8-447D-A30A-419E2FCA5167";
shapes = (
{
closed = 1;
nodes = (
(160,615,l),
(433,615,l),
(434,710,l),
(160,710,l)
);
},
{
closed = 1;
nodes = (
(486,710,l),
(382,710,l),
(376,260,ls),
(374,143,o),
(319,85,o),
(214,85,cs),
(172,85,o),
(110,99,o),
(56,119,c),
(35,27,l),
(97,3,o),
(159,-10,o),
(211,-10,cs),
(388,-10,o),
(478,81,o),
(480,265,cs)
);
}
);
width = 600;
},
{
anchors = (
{
name = top;
pos = (394,710);
}
);
layerId = "ADDB71F6-EC09-4DA0-80DB-A822AEA2EE7D";
shapes = (
{
closed = 1;
nodes = (
(166,665,l),
(451,665,l),
(451,710,l),
(166,710,l)
);
},
{
closed = 1;
nodes = (
(471,710,l),
(424,710,l),
(417,260,ls),
(415,111,o),
(355,36,o),
(216,36,cs),
(173,36,o),
(128,40,o),
(68,61,c),
(56,16,l),
(109,-2,o),
(156,-10,o),
(213,-10,cs),
(385,-10,o),
(461,81,o),
(464,265,cs)
);
}
);
width = 600;
},
{
anchors = (
{
name = top;
pos = (371.124,710);
}
);
layerId = "D03DF296-8133-4A96-B1BA-CFDB09DF42C8";
shapes = (
{
closed = 1;
nodes = (
(161.098,624.15,l),
(436.294,624.15,l),
(437.111,710,l),
(161.098,710,l)
);
},
{
closed = 1;
nodes = (
(483.255,710,l),
(389.686,710,l),
(383.503,260,ls),
(381.503,137.144,o),
(325.588,76.033,o),
(214.366,76.033,cs),
(172.183,76.033,o),
(113.294,88.203,o),
(58.196,108.386,c),
(38.843,24.987,l),
(99.196,2.085,o),
(158.451,-10,o),
(211.366,-10,cs),
(387.451,-10,o),
(474.889,81,o),
(477.072,265,cs)
);
}
);
width = 600;
}
);
unicode = 74;
},
{
glyphname = K;
layers = (
{
layerId = "1A7FA7F6-774C-4A69-BC02-C84AF7C361B9";
shapes = (
{
closed = 1;
nodes = (
(137,226,l),
(401,226,o),
(559,457,o),
(563,710,c),
(429,710,l),
(426,531,o),
(338,358,o),
(148,358,c)
);
},
{
closed = 1;
nodes = (
(61,0,l),
(193,0,l),
(205,710,l),
(73,710,l)
);
},
{
closed = 1;
nodes = (
(422,0,l),
(585,0,l),
(409,366,l),
(285,314,l)
);
}
);
width = 600;
},
{
layerId = "772FC93F-B3B8-447D-A30A-419E2FCA5167";
shapes = (
{
closed = 1;
nodes = (
(137,226,l),
(396,226,o),
(551,457,o),
(555,710,c),
(452,710,l),
(449,514,o),
(353,325,o),
(148,325,c)
);
},
{
closed = 1;
nodes = (
(71,0,l),
(175,0,l),
(187,710,l),
(83,710,l)
);
},
{
closed = 1;
nodes = (
(456,0,l),
(577,0,l),
(373,397,l),
(282,346,l)
);
}
);
width = 600;
},
{
layerId = "ADDB71F6-EC09-4DA0-80DB-A822AEA2EE7D";
shapes = (
{
closed = 1;
nodes = (
(120,246,l),
(385,246,o),
(538,415,o),
(543,710,c),
(495,710,l),
(489,443,o),
(357,291,o),
(129,291,c)
);
},
{
closed = 1;
nodes = (
(82,0,l),
(129,0,l),
(141,710,l),
(94,710,l)
);
},
{
closed = 1;
nodes = (
(508,0,l),
(564,0,l),
(392,355,l),
(351,325,l)
);
}
);
width = 600;
},
{
layerId = "D03DF296-8133-4A96-B1BA-CFDB09DF42C8";
shapes = (
{
closed = 1;
nodes = (
(133.889,229.66,l),
(393.987,229.66,o),
(548.621,449.314,o),
(552.804,710,c),
(459.869,710,l),
(456.32,501.007,o),
(353.732,318.778,o),
(144.523,318.778,c)
);
},
{
closed = 1;
nodes = (
(73.013,0,l),
(166.582,0,l),
(178.582,710,l),
(85.013,710,l)
);
},
{
closed = 1;
nodes = (
(465.516,0,l),
(574.621,0,l),
(376.477,389.314,l),
(294.627,342.157,l)
);
}
);
width = 600;
}
);
unicode = 75;
},
{
glyphname = L;
layers = (
{
layerId = "1A7FA7F6-774C-4A69-BC02-C84AF7C361B9";
shapes = (
{
closed = 1;
nodes = (
(97,0,l),
(229,0,l),
(241,710,l),
(109,710,l)
);
},
{
closed = 1;
nodes = (
(158,0,l),
(555,0,l),
(555,122,l),
(160,122,l)
);
}
);
width = 600;
},
{
layerId = "772FC93F-B3B8-447D-A30A-419E2FCA5167";
shapes = (
{
closed = 1;
nodes = (
(106,0,l),
(210,0,l),
(222,710,l),
(118,710,l)
);
},
{
closed = 1;
nodes = (
(147,0,l),
(546,0,l),
(546,95,l),
(148,95,l)
);
}
);
width = 600;
},
{
layerId = "ADDB71F6-EC09-4DA0-80DB-A822AEA2EE7D";
shapes = (
{
closed = 1;
nodes = (
(118,0,l),
(165,0,l),
(177,710,l),
(130,710,l)
);
},
{
closed = 1;
nodes = (
(139,0,l),
(544,0,l),
(544,45,l),
(139,45,l)
);
}
);
width = 600;
},
{
layerId = "D03DF296-8133-4A96-B1BA-CFDB09DF42C8";
shapes = (
{
closed = 1;
nodes = (
(108.196,0,l),
(201.765,0,l),
(213.765,710,l),
(120.196,710,l)
);
},
{
closed = 1;
nodes = (
(145.536,0,l),
(545.634,0,l),
(545.634,85.85,l),
(146.353,85.85,l)
);
}
);
width = 600;
}
);
unicode = 76;
},
{
glyphname = Lslash;
layers = (
{
layerId = "1A7FA7F6-774C-4A69-BC02-C84AF7C361B9";
shapes = (
{
closed = 1;
nodes = (
(29,215,l),
(432,413,l),
(432,543,l),
(29,345,l)
);
},
{
closed = 1;
nodes = (
(124,0,l),
(550,0,l),
(550,122,l),
(124,122,l)
);
},
{
closed = 1;
nodes = (
(108,0,l),
(239,0,l),
(251,710,l),
(120,710,l)
);
}
);
width = 600;
},
{
layerId = "772FC93F-B3B8-447D-A30A-419E2FCA5167";
shapes = (
{
closed = 1;
nodes = (
(29,227,l),
(432,437,l),
(432,530,l),
(29,321,l)
);
},
{
closed = 1;
nodes = (
(140,0,l),
(550,0,l),
(550,95,l),
(140,95,l)
);
},
{
closed = 1;
nodes = (
(124,0,l),
(228,0,l),
(240,710,l),
(136,710,l)
);
}
);
width = 600;
},
{
layerId = "ADDB71F6-EC09-4DA0-80DB-A822AEA2EE7D";
shapes = (
{
closed = 1;
nodes = (
(29,227,l),
(432,480,l),
(432,530,l),
(29,278,l)
);
},
{
closed = 1;
nodes = (
(188,0,l),
(538,0,l),
(538,45,l),
(188,45,l)
);
},
{
closed = 1;
nodes = (
(172,0,l),
(219,0,l),
(231,710,l),
(184,710,l)
);
}
);
width = 600;
},
{
layerId = "D03DF296-8133-4A96-B1BA-CFDB09DF42C8";
shapes = (
{
closed = 1;
nodes = (
(29,227,l),
(432,444.869,l),
(432,530,l),
(29,313.131,l)
);
},
{
closed = 1;
nodes = (
(148.784,0,l),
(547.804,0,l),
(547.804,85.85,l),
(148.784,85.85,l)
);
},
{
closed = 1;
nodes = (
(132.784,0,l),
(226.353,0,l),
(238.353,710,l),
(144.784,710,l)
);
}
);
width = 600;
}
);
unicode = 321;
},
{
glyphname = M;
layers = (
{
layerId = "1A7FA7F6-774C-4A69-BC02-C84AF7C361B9";
shapes = (
{
closed = 1;
nodes = (
(254,249,l),
(346,249,l),
(412,584,l),
(443,584,l),
(437,710,l),
(364,710,l),
(306,392,l),
(298,392,l),
(252,710,l),
(178,710,l),
(168,584,l),
(200,584,l)
);
},
{
closed = 1;
nodes = (
(39,0,l),
(162,0,l),
(186,710,l),
(63,710,l)
);
},
{
closed = 1;
nodes = (
(429,0,l),
(552,0,l),
(552,710,l),
(429,710,l)
);
}
);
width = 600;
},
{
layerId = "772FC93F-B3B8-447D-A30A-419E2FCA5167";
shapes = (
{
closed = 1;
nodes = (
(254,290,l),
(346,290,l),
(429,584,l),
(458,584,l),
(460,710,l),
(389,710,l),
(306,406,l),
(298,406,l),
(226,710,l),
(156,710,l),
(154,584,l),
(182,584,l)
);
},
{
closed = 1;
nodes = (
(47,0,l),
(147,0,l),
(172,710,l),
(72,710,l)
);
},
{
closed = 1;
nodes = (
(443,0,l),
(544,0,l),
(544,710,l),
(443,710,l)
);
}
);
width = 600;
},
{
layerId = "ADDB71F6-EC09-4DA0-80DB-A822AEA2EE7D";
shapes = (
{
closed = 1;
nodes = (
(271,330,l),
(331,330,l),
(479,666,l),
(500,666,l),
(501,710,l),
(451,710,l),
(303,374,l),
(301,374,l),
(165,710,l),
(124,710,l),
(123,666,l),
(135,666,l)
);
},
{
closed = 1;
nodes = (
(59,0,l),
(106,0,l),
(131,710,l),
(84,710,l)
);
},
{
closed = 1;
nodes = (
(484,0,l),
(531,0,l),
(531,710,l),
(484,710,l)
);
}
);
width = 600;
},
{
layerId = "D03DF296-8133-4A96-B1BA-CFDB09DF42C8";
shapes = (
{
closed = 1;
nodes = (
(257.111,297.32,l),
(343.255,297.32,l),
(438.15,599.007,l),
(465.686,599.007,l),
(467.503,710,l),
(400.346,710,l),
(305.451,400.144,l),
(298.549,400.144,l),
(214.837,710,l),
(150.144,710,l),
(148.327,599.007,l),
(173.399,599.007,l)
);
},
{
closed = 1;
nodes = (
(49.196,0,l),
(139.497,0,l),
(164.497,710,l),
(74.196,710,l)
);
},
{
closed = 1;
nodes = (
(450.503,0,l),
(541.621,0,l),
(541.621,710,l),
(450.503,710,l)
);
}
);
width = 600;
}
);
unicode = 77;
},
{
glyphname = N;
layers = (
{
anchors = (
{
name = top;
pos = (308,710);
}
);
layerId = "1A7FA7F6-774C-4A69-BC02-C84AF7C361B9";
shapes = (
{
closed = 1;
nodes = (
(331,0,l),
(417,0,l),
(420,155,l),
(386,155,l),
(268,710,l),
(161,710,l),
(159,555,l),
(213,555,l)
);
},
{
closed = 1;
nodes = (
(59,0,l),
(186,0,l),
(198,710,l),
(71,710,l)
);
},
{
closed = 1;
nodes = (
(401,0,l),
(528,0,l),
(540,710,l),
(413,710,l)
);
}
);
width = 600;
},
{
anchors = (
{
name = top;
pos = (308,710);
}
);
layerId = "772FC93F-B3B8-447D-A30A-419E2FCA5167";
shapes = (
{
closed = 1;
nodes = (
(385,0,l),
(430,0,l),
(433,170,l),
(409,170,l),
(214,710,l),
(148,710,l),
(144,540,l),
(191,540,l)
);
},
{
closed = 1;
nodes = (
(68,0,l),
(172,0,l),
(184,710,l),
(80,710,l)
);
},
{
closed = 1;
nodes = (
(416,0,l),
(520,0,l),
(532,710,l),
(428,710,l)
);
}
);
width = 600;
},
{
anchors = (
{
name = top;
pos = (308,710);
}
);
layerId = "ADDB71F6-EC09-4DA0-80DB-A822AEA2EE7D";
shapes = (
{
closed = 1;
nodes = (
(427,0,l),
(478,0,l),
(478,44,l),
(458,44,l),
(172,710,l),
(114,710,l),
(113,666,l),
(142,666,l)
);
},
{
closed = 1;
nodes = (
(80,0,l),
(127,0,l),
(139,710,l),
(92,710,l)
);
},
{
closed = 1;
nodes = (
(461,0,l),
(508,0,l),
(520,710,l),
(473,710,l)
);
}
);
width = 600;
},
{
anchors = (
{
name = top;
pos = (308,710);
}
);
layerId = "D03DF296-8133-4A96-B1BA-CFDB09DF42C8";
shapes = (
{
closed = 1;
nodes = (
(392.686,0,l),
(438.784,0,l),
(441.235,146.941,l),
(417.967,146.941,l),
(206.314,710,l),
(141.778,710,l),
(138.327,563.059,l),
(182.033,563.059,l)
);
},
{
closed = 1;
nodes = (
(70.196,0,l),
(163.765,0,l),
(175.765,710,l),
(82.196,710,l)
);
},
{
closed = 1;
nodes = (
(424.235,0,l),
(517.804,0,l),
(529.804,710,l),
(436.235,710,l)
);
}
);
width = 600;
}
);
unicode = 78;
},
{
glyphname = Nhookleft;
layers = (
{
layerId = "1A7FA7F6-774C-4A69-BC02-C84AF7C361B9";
shapes = (
{
closed = 1;
nodes = (
(-46,-240,l),
(-2,-239,ls),
(126,-236,o),
(185,-177,o),
(186,-48,cs),
(187,92,l),
(61,92,l),
(58,-44,ls),
(57,-93,o),
(36,-118,o),
(-14,-119,c),
(-46,-120,l)
);
},
{
closed = 1;
nodes = (
(331,0,l),
(417,0,l),
(420,155,l),
(386,155,l),
(268,710,l),
(161,710,l),
(159,555,l),
(213,555,l)
);
},
{
closed = 1;
nodes = (
(59,0,l),
(186,0,l),
(198,710,l),
(71,710,l)
);
},
{
closed = 1;
nodes = (
(401,0,l),
(528,0,l),
(540,710,l),
(413,710,l)
);
}
);
width = 600;
},
{
layerId = "772FC93F-B3B8-447D-A30A-419E2FCA5167";
shapes = (
{
closed = 1;
nodes = (
(-45,-238,l),
(-5,-234,ls),
(104,-223,o),
(171,-159,o),
(172,-48,cs),
(173,92,l),
(70,92,l),
(66,-40,ls),
(64,-96,o),
(38,-125,o),
(-13,-132,c),
(-48,-138,l)
);
},
{
closed = 1;
nodes = (
(385,0,l),
(430,0,l),
(433,170,l),
(409,170,l),
(214,710,l),
(148,710,l),
(144,540,l),
(191,540,l)
);
},
{
closed = 1;
nodes = (
(68,0,l),
(172,0,l),
(184,710,l),
(80,710,l)
);
},
{
closed = 1;
nodes = (
(416,0,l),
(520,0,l),
(532,710,l),
(428,710,l)
);
}
);
width = 600;
},
{
layerId = "ADDB71F6-EC09-4DA0-80DB-A822AEA2EE7D";
shapes = (
{
closed = 1;
nodes = (
(-44,-234,l),
(-25,-231,ls),
(84,-214,o),
(126,-160,o),
(127,-28,cs),
(128,92,l),
(82,92,l),
(79,-24,ls),
(76,-128,o),
(48,-175,o),
(-30,-185,c),
(-48,-188,l)
);
},
{
closed = 1;
nodes = (
(427,0,l),
(478,0,l),
(478,44,l),
(458,44,l),
(172,710,l),
(114,710,l),
(113,666,l),
(142,666,l)
);
},
{
closed = 1;
nodes = (
(80,0,l),
(127,0,l),
(139,710,l),
(92,710,l)
);
},
{
closed = 1;
nodes = (
(461,0,l),
(508,0,l),
(520,710,l),
(473,710,l)
);
}
);
width = 600;
},
{
layerId = "D03DF296-8133-4A96-B1BA-CFDB09DF42C8";
shapes = (
{
closed = 1;
nodes = (
(-44.817,-237.268,l),
(-8.66,-233.451,ls),
(100.34,-221.353,o),
(162.765,-159.183,o),
(163.765,-44.34,cs),
(164.765,92,l),
(72.196,92,l),
(68.379,-37.072,ls),
(66.196,-101.856,o),
(39.83,-134.15,o),
(-16.111,-141.699,c),
(-48,-147.15,l)
);
},
{
closed = 1;
nodes = (
(392.686,0,l),
(438.784,0,l),
(441.235,146.941,l),
(417.967,146.941,l),
(206.314,710,l),
(141.778,710,l),
(138.327,563.059,l),
(182.033,563.059,l)
);
},
{
closed = 1;
nodes = (
(70.196,0,l),
(163.765,0,l),
(175.765,710,l),
(82.196,710,l)
);
},
{
closed = 1;
nodes = (
(424.235,0,l),
(517.804,0,l),
(529.804,710,l),
(436.235,710,l)
);
}
);
width = 600;
}
);
unicode = 413;
},
{
glyphname = Eng;
layers = (
{
layerId = "1A7FA7F6-774C-4A69-BC02-C84AF7C361B9";
shapes = (
{
closed = 1;
nodes = (
(239,-240,l),
(341,-239,ls),
(469,-237,o),
(529,-177,o),
(529,-48,cs),
(530,92,l),
(406,92,l),
(402,-44,ls),
(401,-93,o),
(380,-116,o),
(330,-119,c),
(240,-120,l)
);
},
{
closed = 1;
nodes = (
(332,0,l),
(418,0,l),
(421,155,l),
(387,155,l),
(271,710,l),
(164,710,l),
(162,555,l),
(216,555,l)
);
},
{
closed = 1;
nodes = (
(60,0,l),
(187,0,l),
(201,710,l),
(74,710,l)
);
},
{
closed = 1;
nodes = (
(402,0,l),
(529,0,l),
(543,710,l),
(416,710,l)
);
}
);
width = 600;
},
{
layerId = "772FC93F-B3B8-447D-A30A-419E2FCA5167";
shapes = (
{
closed = 1;
nodes = (
(289,-240,l),
(353,-234,ls),
(458,-224,o),
(520,-157,o),
(521,-48,cs),
(522,92,l),
(420,92,l),
(417,-43,ls),
(416,-97,o),
(390,-124,o),
(340,-131,cs),
(280,-140,l)
);
},
{
closed = 1;
nodes = (
(387,0,l),
(432,0,l),
(435,170,l),
(411,170,l),
(216,710,l),
(150,710,l),
(146,540,l),
(193,540,l)
);
},
{
closed = 1;
nodes = (
(70,0,l),
(173,0,l),
(185,710,l),
(82,710,l)
);
},
{
closed = 1;
nodes = (
(418,0,l),
(521,0,l),
(534,710,l),
(430,710,l)
);
}
);
width = 600;
},
{
layerId = "ADDB71F6-EC09-4DA0-80DB-A822AEA2EE7D";
shapes = (
{
closed = 1;
nodes = (
(315,-240,l),
(360,-231,ls),
(467,-212,o),
(508,-160,o),
(509,-28,cs),
(510,92,l),
(466,92,l),
(463,-24,ls),
(460,-128,o),
(431,-171,o),
(355,-185,cs),
(310,-194,l)
);
},
{
closed = 1;
nodes = (
(429,0,l),
(480,0,l),
(480,44,l),
(460,44,l),
(174,710,l),
(116,710,l),
(115,666,l),
(144,666,l)
);
},
{
closed = 1;
nodes = (
(81,0,l),
(128,0,l),
(141,710,l),
(94,710,l)
);
},
{
closed = 1;
nodes = (
(463,0,l),
(509,0,l),
(522,710,l),
(475,710,l)
);
}
);
width = 600;
},
{
layerId = "D03DF296-8133-4A96-B1BA-CFDB09DF42C8";
shapes = (
{
closed = 1;
nodes = (
(293.758,-240,l),
(354.281,-233.451,ls),
(459.647,-221.804,o),
(517.804,-157.549,o),
(518.804,-44.34,cs),
(519.804,92,l),
(428.418,92,l),
(425.418,-39.523,ls),
(424.052,-102.673,o),
(397.503,-132.601,o),
(342.745,-140.882,cs),
(285.49,-149.882,l)
);
},
{
closed = 1;
nodes = (
(394.686,0,l),
(440.784,0,l),
(443.235,146.941,l),
(419.967,146.941,l),
(208.314,710,l),
(143.778,710,l),
(140.327,563.059,l),
(184.033,563.059,l)
);
},
{
closed = 1;
nodes = (
(72.013,0,l),
(164.765,0,l),
(176.948,710,l),
(84.196,710,l)
);
},
{
closed = 1;
nodes = (
(426.235,0,l),
(518.804,0,l),
(531.804,710,l),
(438.235,710,l)
);
}
);
width = 600;
}
);
unicode = 330;
},
{
glyphname = O;
layers = (
{
anchors = (
{
name = top;
pos = (310,710);
}
);
layerId = "1A7FA7F6-774C-4A69-BC02-C84AF7C361B9";
shapes = (
{
closed = 1;
nodes = (
(519,-10,o),
(572,177,o),
(572,367,cs),
(572,602,o),
(483,720,o),
(308,720,cs),
(82,720,o),
(31,523,o),
(31,334,cs),
(31,103,o),
(120,-10,o),
(295,-10,cs)
);
},
{
closed = 1;
nodes = (
(212,116,o),
(169,188,o),
(169,336,cs),
(169,427,o),
(181,594,o),
(306,594,cs),
(391,594,o),
(433,518,o),
(433,366,cs),
(433,273,o),
(421,116,o),
(297,116,cs)
);
}
);
width = 600;
},
{
anchors = (
{
name = top;
pos = (310,710);
}
);
layerId = "772FC93F-B3B8-447D-A30A-419E2FCA5167";
shapes = (
{
closed = 1;
nodes = (
(516,-10,o),
(563,183,o),
(563,368,cs),
(563,603,o),
(478,720,o),
(308,720,cs),
(85,720,o),
(39,516,o),
(39,333,cs),
(39,103,o),
(125,-10,o),
(295,-10,cs)
);
},
{
closed = 1;
nodes = (
(197,82,o),
(146,166,o),
(146,335,cs),
(146,442,o),
(161,628,o),
(306,628,cs),
(407,628,o),
(457,542,o),
(457,367,cs),
(457,258,o),
(441,82,o),
(297,82,cs)
);
}
);
width = 600;
},
{
anchors = (
{
name = top;
pos = (310,710);
}
);
layerId = "ADDB71F6-EC09-4DA0-80DB-A822AEA2EE7D";
shapes = (
{
closed = 1;
nodes = (
(511,-10,o),
(552,193,o),
(552,369,cs),
(552,603,o),
(470,720,o),
(308,720,cs),
(91,720,o),
(51,508,o),
(51,333,cs),
(51,103,o),
(133,-10,o),
(295,-10,cs)
);
},
{
closed = 1;
nodes = (
(165,35,o),
(99,135,o),
(99,334,cs),
(99,475,o),
(125,675,o),
(307,675,cs),
(438,675,o),
(504,573,o),
(504,368,cs),
(504,226,o),
(476,35,o),
(296,35,cs)
);
}
);
width = 600;
},
{
anchors = (
{
name = top;
pos = (310,710);
}
);
layerId = "D03DF296-8133-4A96-B1BA-CFDB09DF42C8";
shapes = (
{
closed = 1;
nodes = (
(515.085,-10,o),
(560.987,184.83,o),
(560.987,368.183,cs),
(560.987,603,o),
(476.536,720,o),
(308,720,cs),
(86.098,720,o),
(41.196,514.536,o),
(41.196,333,cs),
(41.196,103,o),
(126.464,-10,o),
(295,-10,cs)
);
},
{
closed = 1;
nodes = (
(191.144,73.399,o),
(137.399,160.327,o),
(137.399,334.817,cs),
(137.399,448.039,o),
(154.412,636.601,o),
(306.183,636.601,cs),
(412.673,636.601,o),
(465.601,547.673,o),
(465.601,367.183,cs),
(465.601,252.144,o),
(447.405,73.399,o),
(296.817,73.399,cs)
);
}
);
width = 600;
}
);
unicode = 79;
},
{
glyphname = Oslash;
layers = (
{
layerId = "1A7FA7F6-774C-4A69-BC02-C84AF7C361B9";
shapes = (
{
closed = 1;
nodes = (
(135,-46,l),
(567,745,l),
(455,745,l),
(23,-46,l)
);
},
{
ref = O;
}
);
width = 600;
},
{
layerId = "772FC93F-B3B8-447D-A30A-419E2FCA5167";
shapes = (
{
closed = 1;
nodes = (
(111,-46,l),
(567,745,l),
(479,745,l),
(23,-46,l)
);
},
{
ref = O;
}
);
width = 600;
},
{
layerId = "ADDB71F6-EC09-4DA0-80DB-A822AEA2EE7D";
shapes = (
{
closed = 1;
nodes = (
(103,-46,l),
(535,745,l),
(487,745,l),
(55,-46,l)
);
},
{
ref = O;
}
);
width = 600;
},
{
layerId = "D03DF296-8133-4A96-B1BA-CFDB09DF42C8";
shapes = (
{
closed = 1;
nodes = (
(109.536,-46,l),
(561.144,745,l),
(480.464,745,l),
(28.856,-46,l)
);
},
{
alignment = -1;
ref = O;
}
);
width = 600;
}
);
unicode = 216;
},
{
glyphname = OE;
layers = (
{
layerId = "1A7FA7F6-774C-4A69-BC02-C84AF7C361B9";
shapes = (
{
closed = 1;
nodes = (
(302,-10,o),
(346,0,o),
(382,0,cs),
(404,0,l),
(416,710,l),
(393,710,ls),
(346,710,o),
(312,720,o),
(258,720,cs),
(118,720,o),
(30,570,o),
(30,334,cs),
(30,115,o),
(108,-10,o),
(245,-10,cs)
);
},
{
closed = 1;
nodes = (
(302,0,l),
(558,0,l),
(558,121,l),
(304,121,l)
);
},
{
closed = 1;
nodes = (
(199,113,o),
(168,195,o),
(168,336,cs),
(168,487,o),
(205,597,o),
(256,597,cs),
(267,597,o),
(278,595,o),
(284,591,c),
(276,116,l),
(269,114,o),
(261,113,o),
(253,113,cs)
);
},
{
closed = 1;
nodes = (
(317,295,l),
(528,295,l),
(528,416,l),
(319,416,l)
);
},
{
closed = 1;
nodes = (
(307,589,l),
(558,589,l),
(558,710,l),
(309,710,l)
);
}
);
width = 600;
},
{
layerId = "772FC93F-B3B8-447D-A30A-419E2FCA5167";
shapes = (
{
closed = 1;
nodes = (
(291,-10,o),
(321,0,o),
(344,0,cs),
(389,0,l),
(401,710,l),
(351,710,ls),
(321,710,o),
(300,720,o),
(266,720,cs),
(127,720,o),
(38,570,o),
(38,334,cs),
(38,115,o),
(116,-10,o),
(254,-10,cs)
);
},
{
closed = 1;
nodes = (
(314,0,l),
(550,0,l),
(550,90,l),
(315,90,l)
);
},
{
closed = 1;
nodes = (
(185,82,o),
(143,173,o),
(143,334,cs),
(143,507,o),
(193,628,o),
(265,628,cs),
(276,628,o),
(287,624,o),
(295,617,c),
(286,85,l),
(280,83,o),
(269,82,o),
(260,82,cs)
);
},
{
closed = 1;
nodes = (
(334,310,l),
(520,310,l),
(520,400,l),
(336,400,l)
);
},
{
closed = 1;
nodes = (
(319,620,l),
(550,620,l),
(550,710,l),
(321,710,l)
);
}
);
width = 600;
},
{
layerId = "ADDB71F6-EC09-4DA0-80DB-A822AEA2EE7D";
shapes = (
{
closed = 1;
nodes = (
(291,-10,o),
(321,0,o),
(344,0,cs),
(359,0,l),
(371,710,l),
(356,710,ls),
(325,710,o),
(302,720,o),
(266,720,cs),
(135,720,o),
(51,567,o),
(51,333,cs),
(51,115,o),
(125,-10,o),
(254,-10,cs)
);
},
{
closed = 1;
nodes = (
(319,0,l),
(537,0,l),
(537,45,l),
(319,45,l)
);
},
{
closed = 1;
nodes = (
(157,35,o),
(99,143,o),
(99,333,cs),
(99,538,o),
(166,675,o),
(265,675,cs),
(288,675,o),
(309,671,o),
(326,664,c),
(315,38,l),
(300,36,o),
(280,35,o),
(259,35,cs)
);
},
{
closed = 1;
nodes = (
(335,333,l),
(507,333,l),
(507,378,l),
(336,378,l)
);
},
{
closed = 1;
nodes = (
(326,665,l),
(537,665,l),
(537,710,l),
(326,710,l)
);
}
);
width = 600;
},
{
layerId = "D03DF296-8133-4A96-B1BA-CFDB09DF42C8";
shapes = (
{
closed = 1;
nodes = (
(291,-10,o),
(321,0,o),
(344,0,cs),
(383.51,0,l),
(395.51,710,l),
(351.915,710,ls),
(321.732,710,o),
(300.366,720,o),
(266,720,cs),
(128.464,720,o),
(40.379,569.451,o),
(40.379,333.817,cs),
(40.379,115,o),
(117.647,-10,o),
(254,-10,cs)
);
},
{
closed = 1;
nodes = (
(314.915,0,l),
(547.621,0,l),
(547.621,81.765,l),
(315.732,81.765,l)
);
},
{
closed = 1;
nodes = (
(179.876,73.399,o),
(134.948,167.51,o),
(134.948,333.817,cs),
(134.948,512.673,o),
(188.059,636.601,o),
(265,636.601,cs),
(278.196,636.601,o),
(291.026,632.601,o),
(300.673,625.601,c),
(291.307,76.399,l),
(283.66,74.399,o),
(271.013,73.399,o),
(259.817,73.399,cs)
);
},
{
closed = 1;
nodes = (
(334.183,314.209,l),
(517.621,314.209,l),
(517.621,395.974,l),
(336,395.974,l)
);
},
{
closed = 1;
nodes = (
(320.281,628.235,l),
(547.621,628.235,l),
(547.621,710,l),
(321.915,710,l)
);
}
);
width = 600;
}
);
unicode = 338;
},
{
glyphname = P;
layers = (
{
layerId = "1A7FA7F6-774C-4A69-BC02-C84AF7C361B9";
shapes = (
{
closed = 1;
nodes = (
(207,204,l),
(304,204,ls),
(478,204,o),
(589,298,o),
(589,476,cs),
(589,625,o),
(489,710,o),
(313,710,cs),
(218,710,l),
(216,589,l),
(311,589,ls),
(397,589,o),
(445,544,o),
(445,465,cs),
(445,377,o),
(394,325,o),
(306,325,cs),
(209,325,l)
);
},
{
closed = 1;
nodes = (
(83,0,l),
(215,0,l),
(227,710,l),
(95,710,l)
);
}
);
width = 600;
},
{
layerId = "772FC93F-B3B8-447D-A30A-419E2FCA5167";
shapes = (
{
closed = 1;
nodes = (
(187,220,l),
(304,220,ls),
(477,220,o),
(581,303,o),
(581,481,cs),
(581,632,o),
(488,710,o),
(313,710,cs),
(199,710,l),
(197,615,l),
(311,615,ls),
(419,615,o),
(475,568,o),
(475,479,cs),
(475,370,o),
(414,315,o),
(306,315,cs),
(189,315,l)
);
},
{
closed = 1;
nodes = (
(92,0,l),
(196,0,l),
(208,710,l),
(104,710,l)
);
}
);
width = 600;
},
{
layerId = "ADDB71F6-EC09-4DA0-80DB-A822AEA2EE7D";
shapes = (
{
closed = 1;
nodes = (
(143,245,l),
(315,245,ls),
(469,245,o),
(568,325,o),
(568,483,cs),
(568,628,o),
(480,710,o),
(324,710,cs),
(154,710,l),
(153,665,l),
(323,665,ls),
(449,665,o),
(520,599,o),
(520,482,cs),
(520,354,o),
(439,290,o),
(315,290,cs),
(143,290,l)
);
},
{
closed = 1;
nodes = (
(104,0,l),
(151,0,l),
(163,710,l),
(116,710,l)
);
}
);
width = 600;
},
{
layerId = "D03DF296-8133-4A96-B1BA-CFDB09DF42C8";
shapes = (
{
closed = 1;
nodes = (
(178.948,224.575,l),
(306.013,224.575,ls),
(475.536,224.575,o),
(578.621,307.026,o),
(578.621,481.366,cs),
(578.621,631.268,o),
(486.536,710,o),
(315.013,710,cs),
(190.765,710,l),
(188.948,624.15,l),
(313.196,624.15,ls),
(424.49,624.15,o),
(483.235,573.673,o),
(483.235,479.549,cs),
(483.235,367.072,o),
(418.575,310.425,o),
(307.647,310.425,cs),
(180.582,310.425,l)
);
},
{
closed = 1;
nodes = (
(94.196,0,l),
(187.765,0,l),
(199.765,710,l),
(106.196,710,l)
);
}
);
width = 600;
}
);
unicode = 80;
},
{
glyphname = Thorn;
layers = (
{
anchors = (
{
name = bottom;
pos = (280,0);
},
{
name = top;
pos = (280,710);
}
);
layerId = "1A7FA7F6-774C-4A69-BC02-C84AF7C361B9";
shapes = (
{
closed = 1;
nodes = (
(205,104,l),
(302,104,ls),
(474,104,o),
(586,195,o),
(586,372,cs),
(586,523,o),
(487,610,o),
(311,610,cs),
(215,610,l),
(213,489,l),
(309,489,ls),
(395,489,o),
(443,442,o),
(443,360,cs),
(443,273,o),
(390,225,o),
(304,225,cs),
(207,225,l)
);
},
{
closed = 1;
nodes = (
(83,0,l),
(215,0,l),
(227,710,l),
(95,710,l)
);
}
);
width = 600;
},
{
anchors = (
{
name = bottom;
pos = (280,0);
},
{
name = top;
pos = (280,710);
}
);
layerId = "772FC93F-B3B8-447D-A30A-419E2FCA5167";
shapes = (
{
closed = 1;
nodes = (
(186,110,l),
(303,110,ls),
(466,110,o),
(579,191,o),
(579,362,cs),
(579,514,o),
(480,600,o),
(311,600,cs),
(197,600,l),
(195,505,l),
(310,505,ls),
(414,505,o),
(473,454,o),
(473,360,cs),
(473,256,o),
(406,205,o),
(305,205,cs),
(187,205,l)
);
},
{
closed = 1;
nodes = (
(92,0,l),
(197,0,l),
(209,710,l),
(104,710,l)
);
}
);
width = 600;
},
{
anchors = (
{
name = bottom;
pos = (280,0);
},
{
name = top;
pos = (280,710);
}
);
layerId = "ADDB71F6-EC09-4DA0-80DB-A822AEA2EE7D";
shapes = (
{
closed = 1;
nodes = (
(140,122,l),
(312,122,ls),
(471,122,o),
(562,207,o),
(565,355,cs),
(568,504,o),
(479,589,o),
(321,589,cs),
(151,589,l),
(150,543,l),
(319,543,ls),
(449,543,o),
(521,475,o),
(519,355,cs),
(517,236,o),
(442,168,o),
(313,168,cs),
(141,168,l)
);
},
{
closed = 1;
nodes = (
(103,0,l),
(151,0,l),
(163,710,l),
(116,710,l)
);
}
);
width = 600;
},
{
anchors = (
{
name = bottom;
pos = (280,0);
},
{
name = top;
pos = (280,710);
}
);
layerId = "D03DF296-8133-4A96-B1BA-CFDB09DF42C8";
shapes = (
{
closed = 1;
nodes = (
(177.582,112.196,l),
(304.647,112.196,ls),
(466.915,112.196,o),
(575.889,193.928,o),
(576.438,360.719,cs),
(576.987,512.17,o),
(479.817,597.987,o),
(312.83,597.987,cs),
(188.582,597.987,l),
(186.765,511.954,l),
(311.647,511.954,ls),
(420.405,511.954,o),
(481.784,457.843,o),
(481.418,359.085,cs),
(481.052,252.34,o),
(412.588,198.229,o),
(306.464,198.229,cs),
(178.582,198.229,l)
);
},
{
closed = 1;
nodes = (
(94.013,0,l),
(188.582,0,l),
(200.582,710,l),
(106.196,710,l)
);
}
);
width = 600;
}
);
unicode = 222;
},
{
glyphname = Q;
layers = (
{
layerId = "1A7FA7F6-774C-4A69-BC02-C84AF7C361B9";
shapes = (
{
closed = 1;
nodes = (
(510,-200,l),
(510,-74,l),
(465,-74,ls),
(391,-74,o),
(356,-43,o),
(357,19,c),
(224,20,l),
(221,-127,o),
(302,-200,o),
(463,-200,cs)
);
},
{
ref = O;
}
);
width = 600;
},
{
layerId = "772FC93F-B3B8-447D-A30A-419E2FCA5167";
shapes = (
{
closed = 1;
nodes = (
(500,-200,l),
(500,-110,l),
(457,-110,ls),
(378,-110,o),
(340,-67,o),
(341,19,c),
(242,20,l),
(239,-127,o),
(310,-200,o),
(455,-200,cs)
);
},
{
ref = O;
}
);
width = 600;
},
{
layerId = "ADDB71F6-EC09-4DA0-80DB-A822AEA2EE7D";
shapes = (
{
closed = 1;
nodes = (
(500,-200,l),
(500,-156,l),
(480,-156,ls),
(373,-156,o),
(311,-91,o),
(313,19,c),
(268,20,l),
(266,-120,o),
(343,-200,o),
(479,-200,cs)
);
},
{
ref = O;
}
);
width = 600;
},
{
layerId = "D03DF296-8133-4A96-B1BA-CFDB09DF42C8";
shapes = (
{
closed = 1;
nodes = (
(500,-200,l),
(500,-118.418,l),
(461.209,-118.418,ls),
(377.085,-118.418,o),
(334.693,-71.392,o),
(335.876,19,c),
(246.758,20,l),
(243.941,-125.719,o),
(316.039,-200,o),
(459.392,-200,cs)
);
},
{
alignment = -1;
ref = O;
}
);
width = 600;
}
);
unicode = 81;
},
{
glyphname = R;
layers = (
{
layerId = "1A7FA7F6-774C-4A69-BC02-C84AF7C361B9";
shapes = (
{
closed = 1;
nodes = (
(186,260,l),
(314,260,ls),
(467,260,o),
(558,347,o),
(558,501,cs),
(558,634,o),
(472,710,o),
(322,710,cs),
(184,710,l),
(195,589,l),
(319,589,ls),
(380,589,o),
(415,553,o),
(415,488,cs),
(415,426,o),
(382,382,o),
(316,382,cs),
(188,382,l)
);
},
{
closed = 1;
nodes = (
(68,0,l),
(200,0,l),
(212,710,l),
(80,710,l)
);
},
{
closed = 1;
nodes = (
(418,0,l),
(574,0,l),
(428,334,l),
(289,334,l)
);
}
);
width = 600;
},
{
layerId = "772FC93F-B3B8-447D-A30A-419E2FCA5167";
shapes = (
{
closed = 1;
nodes = (
(167,270,l),
(314,270,ls),
(461,270,o),
(549,352,o),
(549,501,cs),
(549,634,o),
(467,710,o),
(322,710,cs),
(165,710,l),
(175,615,l),
(321,615,ls),
(398,615,o),
(443,569,o),
(443,488,cs),
(443,409,o),
(394,365,o),
(315,365,cs),
(169,365,l)
);
},
{
closed = 1;
nodes = (
(76,0,l),
(180,0,l),
(192,710,l),
(88,710,l)
);
},
{
closed = 1;
nodes = (
(446,0,l),
(566,0,l),
(403,334,l),
(293,334,l)
);
}
);
width = 600;
},
{
layerId = "ADDB71F6-EC09-4DA0-80DB-A822AEA2EE7D";
shapes = (
{
closed = 1;
nodes = (
(121,295,l),
(335,295,ls),
(470,295,o),
(538,381,o),
(538,511,cs),
(538,638,o),
(467,710,o),
(342,710,cs),
(118,710,l),
(129,665,l),
(341,665,ls),
(435,665,o),
(489,605,o),
(489,501,cs),
(489,402,o),
(436,341,o),
(335,341,cs),
(121,341,l)
);
},
{
closed = 1;
nodes = (
(88,0,l),
(135,0,l),
(147,710,l),
(100,710,l)
);
},
{
closed = 1;
nodes = (
(499,0,l),
(554,0,l),
(383,334,l),
(328,334,l)
);
}
);
width = 600;
},
{
layerId = "D03DF296-8133-4A96-B1BA-CFDB09DF42C8";
shapes = (
{
closed = 1;
nodes = (
(158.582,274.575,l),
(317.843,274.575,ls),
(462.647,274.575,o),
(546.987,357.307,o),
(546.987,502.83,cs),
(546.987,634.732,o),
(467,710,o),
(325.66,710,cs),
(156.399,710,l),
(166.582,624.15,l),
(324.66,624.15,ls),
(404.771,624.15,o),
(451.418,575.588,o),
(451.418,490.379,cs),
(451.418,407.719,o),
(401.686,360.608,o),
(318.66,360.608,cs),
(160.216,360.608,l)
);
},
{
closed = 1;
nodes = (
(78.196,0,l),
(171.765,0,l),
(183.765,710,l),
(90.196,710,l)
);
},
{
closed = 1;
nodes = (
(455.699,0,l),
(563.804,0,l),
(399.34,334,l),
(299.405,334,l)
);
}
);
width = 600;
}
);
unicode = 82;
},
{
glyphname = S;
layers = (
{
anchors = (
{
name = top;
pos = (321,710);
}
);
layerId = "1A7FA7F6-774C-4A69-BC02-C84AF7C361B9";
shapes = (
{
closed = 1;
nodes = (
(400,-10,o),
(536,39,o),
(536,186,cs),
(536,406,o),
(213,398,o),
(217,526,cs),
(218,567,o),
(252,595,o),
(310,595,cs),
(360,595,o),
(408,575,o),
(453,526,c),
(546,631,l),
(494,693,o),
(403,720,o),
(316,720,cs),
(190,720,o),
(80,666,o),
(80,523,cs),
(80,289,o),
(395,307,o),
(395,186,cs),
(395,141,o),
(346,116,o),
(275,116,cs),
(217,116,o),
(153,130,o),
(87,158,c),
(52,29,l),
(112,5,o),
(194,-10,o),
(268,-10,cs)
);
}
);
width = 600;
},
{
anchors = (
{
name = top;
pos = (308,710);
}
);
layerId = "772FC93F-B3B8-447D-A30A-419E2FCA5167";
shapes = (
{
closed = 1;
nodes = (
(406,-10,o),
(527,32,o),
(527,186,cs),
(527,416,o),
(190,382,o),
(190,527,cs),
(190,597,o),
(234,628,o),
(300,628,cs),
(354,628,o),
(408,607,o),
(466,559,c),
(537,631,l),
(470,694,o),
(401,720,o),
(314,720,cs),
(178,720,o),
(88,655,o),
(88,520,cs),
(88,285,o),
(419,334,o),
(419,180,cs),
(419,98,o),
(344,82,o),
(275,82,cs),
(212,82,o),
(152,96,o),
(84,126,c),
(60,29,l),
(120,3,o),
(194,-10,o),
(270,-10,cs)
);
}
);
width = 600;
},
{
anchors = (
{
name = top;
pos = (313,710);
}
);
layerId = "ADDB71F6-EC09-4DA0-80DB-A822AEA2EE7D";
shapes = (
{
closed = 1;
nodes = (
(392,-10,o),
(515,23,o),
(515,167,cs),
(515,396,o),
(147,367,o),
(147,543,cs),
(147,644,o),
(221,675,o),
(307,675,cs),
(374,675,o),
(436,655,o),
(494,604,c),
(524,639,l),
(457,698,o),
(388,720,o),
(309,720,cs),
(198,720,o),
(100,671,o),
(100,543,cs),
(100,326,o),
(468,359,o),
(468,167,cs),
(468,58,o),
(370,35,o),
(280,35,cs),
(202,35,o),
(166,41,o),
(84,69,c),
(73,24,l),
(131,1,o),
(197,-10,o),
(270,-10,cs)
);
}
);
width = 600;
},
{
anchors = (
{
name = top;
pos = (308.915,710);
}
);
layerId = "D03DF296-8133-4A96-B1BA-CFDB09DF42C8";
shapes = (
{
closed = 1;
nodes = (
(403.438,-10,o),
(524.804,30.353,o),
(524.804,182.523,cs),
(524.804,412.34,o),
(182.131,379.255,o),
(182.131,529.928,cs),
(182.131,605.601,o),
(231.621,636.601,o),
(301.281,636.601,cs),
(357.66,636.601,o),
(413.124,615.784,o),
(471.124,567.235,c),
(534.621,632.464,l),
(467.621,694.732,o),
(398.621,720,o),
(313.085,720,cs),
(181.66,720,o),
(90.196,657.928,o),
(90.196,524.209,cs),
(90.196,292.503,o),
(427.967,338.575,o),
(427.967,177.621,cs),
(427.967,90.68,o),
(348.758,73.399,o),
(275.915,73.399,cs),
(210.17,73.399,o),
(154.562,85.935,o),
(84,115.569,c),
(62.379,28.085,l),
(122.013,2.634,o),
(194.549,-10,o),
(270,-10,cs)
);
}
);
width = 600;
}
);
unicode = 83;
},
{
glyphname = Germandbls;
layers = (
{
layerId = "1A7FA7F6-774C-4A69-BC02-C84AF7C361B9";
shapes = (
{
closed = 1;
nodes = (
(55,0,l),
(187,0,l),
(196,465,ls),
(197,555,o),
(238,595,o),
(332,594,cs),
(379,594,o),
(424,574,o),
(469,534,c),
(565,635,l),
(499,692,o),
(423,720,o),
(335,720,cs),
(147,720,o),
(67,644,o),
(63,465,cs)
);
},
{
closed = 1;
nodes = (
(477,-10,o),
(585,67,o),
(585,228,cs),
(585,341,o),
(515,418,o),
(393,438,c),
(440,402,l),
(566,635,l),
(415,604,l),
(273,343,l),
(360,318,ls),
(415,303,o),
(445,265,o),
(445,218,cs),
(445,150,o),
(400,117,o),
(335,117,cs),
(303,117,o),
(268,120,o),
(239,126,c),
(223,1,l),
(249,-5,o),
(285,-10,o),
(324,-10,cs)
);
}
);
width = 600;
},
{
layerId = "772FC93F-B3B8-447D-A30A-419E2FCA5167";
shapes = (
{
closed = 1;
nodes = (
(65,0,l),
(168,0,l),
(176,465,ls),
(178,577,o),
(224,626,o),
(333,625,cs),
(379,625,o),
(424,605,o),
(470,565,c),
(557,635,l),
(493,692,o),
(420,720,o),
(335,720,cs),
(154,720,o),
(75,644,o),
(72,465,cs)
);
},
{
closed = 1;
nodes = (
(476,-10,o),
(577,71,o),
(577,228,cs),
(577,341,o),
(510,418,o),
(393,438,c),
(412,419,l),
(557,635,l),
(444,635,l),
(273,377,l),
(360,352,ls),
(430,332,o),
(469,282,o),
(469,218,cs),
(469,134,o),
(418,86,o),
(334,86,cs),
(303,86,o),
(268,89,o),
(238,95,c),
(223,1,l),
(249,-5,o),
(285,-10,o),
(324,-10,cs)
);
}
);
width = 600;
},
{
layerId = "ADDB71F6-EC09-4DA0-80DB-A822AEA2EE7D";
shapes = (
{
closed = 1;
nodes = (
(77,0,l),
(124,0,l),
(132,465,ls),
(134,612,o),
(195,676,o),
(334,675,cs),
(399,675,o),
(451,654,o),
(506,605,c),
(544,635,l),
(486,694,o),
(424,720,o),
(335,720,cs),
(163,720,o),
(88,644,o),
(85,465,cs)
);
},
{
closed = 1;
nodes = (
(475,-10,o),
(563,63,o),
(563,212,cs),
(563,311,o),
(502,389,o),
(393,428,c),
(391,409,l),
(545,635,l),
(500,650,l),
(330,397,l),
(376,382,ls),
(465,353,o),
(515,291,o),
(515,211,cs),
(515,97,o),
(444,35,o),
(333,35,cs),
(302,35,o),
(267,39,o),
(237,45,c),
(224,1,l),
(252,-5,o),
(293,-10,o),
(332,-10,cs)
);
}
);
width = 600;
},
{
layerId = "D03DF296-8133-4A96-B1BA-CFDB09DF42C8";
shapes = (
{
closed = 1;
nodes = (
(67.196,0,l),
(159.948,0,l),
(167.948,465,ls),
(169.948,583.405,o),
(218.693,635.15,o),
(333.183,634.15,cs),
(382.66,634.15,o),
(428.941,613.967,o),
(476.588,572.32,c),
(554.621,635,l),
(491.719,692.366,o),
(420.732,720,o),
(335,720,cs),
(155.647,720,o),
(77.379,644,o),
(74.379,465,cs)
);
},
{
closed = 1;
nodes = (
(475.817,-10,o),
(574.438,69.536,o),
(574.438,225.072,cs),
(574.438,335.51,o),
(508.536,412.693,o),
(393,436.17,c),
(408.157,417.17,l),
(554.804,635,l),
(454.248,637.745,l),
(283.431,380.66,l),
(362.928,357.49,ls),
(436.405,335.843,o),
(477.418,283.647,o),
(477.418,216.719,cs),
(477.418,127.229,o),
(422.758,76.667,o),
(333.817,76.667,cs),
(302.817,76.667,o),
(267.817,79.85,o),
(237.817,85.85,c),
(223.183,1,l),
(249.549,-5,o),
(286.464,-10,o),
(325.464,-10,cs)
);
}
);
width = 600;
}
);
unicode = 7838;
},
{
glyphname = T;
layers = (
{
layerId = "1A7FA7F6-774C-4A69-BC02-C84AF7C361B9";
shapes = (
{
closed = 1;
nodes = (
(230,0,l),
(362,0,l),
(374,710,l),
(242,710,l)
);
},
{
closed = 1;
nodes = (
(38,589,l),
(575,589,l),
(575,710,l),
(38,710,l)
);
}
);
width = 600;
},
{
layerId = "772FC93F-B3B8-447D-A30A-419E2FCA5167";
shapes = (
{
closed = 1;
nodes = (
(243,0,l),
(347,0,l),
(359,710,l),
(255,710,l)
);
},
{
closed = 1;
nodes = (
(47,615,l),
(567,615,l),
(567,710,l),
(47,710,l)
);
}
);
width = 600;
},
{
layerId = "ADDB71F6-EC09-4DA0-80DB-A822AEA2EE7D";
shapes = (
{
closed = 1;
nodes = (
(270,0,l),
(317,0,l),
(329,710,l),
(282,710,l)
);
},
{
closed = 1;
nodes = (
(57,665,l),
(553,665,l),
(553,710,l),
(57,710,l)
);
}
);
width = 600;
},
{
layerId = "D03DF296-8133-4A96-B1BA-CFDB09DF42C8";
shapes = (
{
closed = 1;
nodes = (
(247.941,0,l),
(341.51,0,l),
(353.51,710,l),
(259.941,710,l)
);
},
{
closed = 1;
nodes = (
(48.83,624.15,l),
(564.438,624.15,l),
(564.438,710,l),
(48.83,710,l)
);
}
);
width = 600;
}
);
unicode = 84;
},
{
glyphname = U;
layers = (
{
anchors = (
{
name = top;
pos = (310,710);
}
);
layerId = "1A7FA7F6-774C-4A69-BC02-C84AF7C361B9";
shapes = (
{
closed = 1;
nodes = (
(451,-10,o),
(535,70,o),
(538,228,cs),
(546,710,l),
(414,710,l),
(406,228,ls),
(405,155,o),
(368,117,o),
(297,117,cs),
(223,117,o),
(192,155,o),
(193,228,cs),
(201,710,l),
(69,710,l),
(61,228,ls),
(58,70,o),
(135,-10,o),
(293,-10,cs)
);
}
);
width = 600;
},
{
anchors = (
{
name = top;
pos = (310,710);
}
);
layerId = "772FC93F-B3B8-447D-A30A-419E2FCA5167";
shapes = (
{
closed = 1;
nodes = (
(444,-10,o),
(527,70,o),
(530,228,cs),
(538,710,l),
(434,710,l),
(426,228,ls),
(424,133,o),
(381,85,o),
(297,85,cs),
(210,85,o),
(172,133,o),
(174,228,cs),
(182,710,l),
(78,710,l),
(70,228,ls),
(67,70,o),
(141,-10,o),
(293,-10,cs)
);
}
);
width = 600;
},
{
anchors = (
{
name = top;
pos = (310,710);
}
);
layerId = "ADDB71F6-EC09-4DA0-80DB-A822AEA2EE7D";
shapes = (
{
closed = 1;
nodes = (
(437,-10,o),
(514,70,o),
(517,228,cs),
(525,710,l),
(478,710,l),
(470,228,ls),
(468,100,o),
(409,35,o),
(296,35,cs),
(177,35,o),
(126,100,o),
(128,228,cs),
(137,710,l),
(90,710,l),
(81,228,ls),
(78,70,o),
(148,-10,o),
(293,-10,cs)
);
}
);
width = 600;
},
{
anchors = (
{
name = top;
pos = (310,710);
}
);
layerId = "D03DF296-8133-4A96-B1BA-CFDB09DF42C8";
shapes = (
{
closed = 1;
nodes = (
(442.719,-10,o),
(524.621,70,o),
(527.621,228,cs),
(535.621,710,l),
(442.052,710,l),
(434.052,228,ls),
(432.052,126.961,o),
(386.124,75.85,o),
(296.817,75.85,cs),
(203.961,75.85,o),
(163.582,126.961,o),
(165.582,228,cs),
(173.765,710,l),
(80.196,710,l),
(72.013,228,ls),
(69.013,70,o),
(142.281,-10,o),
(293,-10,cs)
);
}
);
width = 600;
}
);
unicode = 85;
},
{
glyphname = "Upsilon-latin";
layers = (
{
layerId = "1A7FA7F6-774C-4A69-BC02-C84AF7C361B9";
shapes = (
{
closed = 1;
nodes = (
(163,618,l),
(163,572,l),
(56,506,o),
(29,412,o),
(29,291,cs),
(29,99,o),
(125,-10,o),
(294,-10,cs),
(490,-10,o),
(569,134,o),
(569,314,cs),
(569,459,o),
(524,526,o),
(458,570,c),
(458,614,l),
(335,589,l),
(389,564,o),
(432,482,o),
(432,339,cs),
(432,251,o),
(411,116,o),
(296,116,cs),
(214,116,o),
(168,188,o),
(168,317,cs),
(168,408,o),
(189,549,o),
(286,589,c)
);
},
{
closed = 1;
nodes = (
(48,710,l),
(48,589,l),
(286,589,l),
(286,710,l)
);
},
{
closed = 1;
nodes = (
(335,710,l),
(335,589,l),
(561,589,l),
(561,710,l)
);
}
);
width = 600;
},
{
layerId = "772FC93F-B3B8-447D-A30A-419E2FCA5167";
shapes = (
{
closed = 1;
nodes = (
(180,646,l),
(179,608,l),
(57,568,o),
(37,418,o),
(37,308,cs),
(37,105,o),
(130,-10,o),
(294,-10,cs),
(497,-10,o),
(561,161,o),
(561,337,cs),
(561,492,o),
(521,582,o),
(441,607,c),
(442,642,l),
(351,617,l),
(422,591,o),
(457,499,o),
(457,340,cs),
(457,233,o),
(432,82,o),
(295,82,cs),
(198,82,o),
(142,165,o),
(142,309,cs),
(142,411,o),
(158,575,o),
(269,617,c)
);
},
{
closed = 1;
nodes = (
(56,710,l),
(56,617,l),
(269,617,l),
(269,710,l)
);
},
{
closed = 1;
nodes = (
(351,710,l),
(351,617,l),
(553,617,l),
(553,710,l)
);
}
);
width = 600;
},
{
layerId = "ADDB71F6-EC09-4DA0-80DB-A822AEA2EE7D";
shapes = (
{
closed = 1;
nodes = (
(181,684,l),
(180,660,l),
(69,589,o),
(49,436,o),
(49,315,cs),
(49,101,o),
(133,-10,o),
(294,-10,cs),
(503,-10,o),
(550,175,o),
(550,349,cs),
(550,528,o),
(505,617,o),
(442,660,c),
(442,681,l),
(352,665,l),
(452,626,o),
(502,519,o),
(502,346,cs),
(502,206,o),
(468,35,o),
(295,35,cs),
(165,35,o),
(97,131,o),
(97,316,cs),
(97,454,o),
(129,608,o),
(270,665,c)
);
},
{
closed = 1;
nodes = (
(70,710,l),
(70,665,l),
(270,665,l),
(270,710,l)
);
},
{
closed = 1;
nodes = (
(352,710,l),
(352,665,l),
(542,665,l),
(542,710,l)
);
}
);
width = 600;
},
{
layerId = "D03DF296-8133-4A96-B1BA-CFDB09DF42C8";
shapes = (
{
closed = 1;
nodes = (
(180.183,652.954,l),
(179.183,617.516,l),
(59.196,571.843,o),
(39.196,421.294,o),
(39.196,309.281,cs),
(39.196,104.268,o),
(130.549,-10,o),
(294,-10,cs),
(498.098,-10,o),
(558.987,163.562,o),
(558.987,339.196,cs),
(558.987,498.588,o),
(518.072,588.405,o),
(441.183,616.699,c),
(442,649.137,l),
(351.183,625.784,l),
(427.49,597.405,o),
(465.235,502.66,o),
(465.235,341.098,cs),
(465.235,228.059,o),
(438.588,73.399,o),
(295,73.399,cs),
(191.961,73.399,o),
(133.765,158.778,o),
(133.765,310.281,cs),
(133.765,418.869,o),
(152.693,581.039,o),
(269.183,625.784,c)
);
},
{
closed = 1;
nodes = (
(58.562,710,l),
(58.562,625.784,l),
(269.183,625.784,l),
(269.183,710,l)
);
},
{
closed = 1;
nodes = (
(351.183,710,l),
(351.183,625.784,l),
(550.987,625.784,l),
(550.987,710,l)
);
}
);
width = 600;
}
);
unicode = 433;
},
{
glyphname = V;
layers = (
{
layerId = "1A7FA7F6-774C-4A69-BC02-C84AF7C361B9";
shapes = (
{
closed = 1;
nodes = (
(193,0,l),
(398,0,l),
(594,710,l),
(458,710,l),
(302,119,l),
(293,119,l),
(159,710,l),
(22,710,l)
);
}
);
width = 600;
},
{
layerId = "772FC93F-B3B8-447D-A30A-419E2FCA5167";
shapes = (
{
closed = 1;
nodes = (
(218,0,l),
(373,0,l),
(586,710,l),
(478,710,l),
(301,85,l),
(292,85,l),
(137,710,l),
(31,710,l)
);
}
);
width = 600;
},
{
layerId = "ADDB71F6-EC09-4DA0-80DB-A822AEA2EE7D";
shapes = (
{
closed = 1;
nodes = (
(257,0,l),
(334,0,l),
(573,710,l),
(523,710,l),
(299,39,l),
(294,39,l),
(93,710,l),
(42,710,l)
);
}
);
width = 600;
},
{
layerId = "D03DF296-8133-4A96-B1BA-CFDB09DF42C8";
shapes = (
{
closed = 1;
nodes = (
(225.137,0,l),
(365.863,0,l),
(583.621,710,l),
(486.235,710,l),
(300.634,76.582,l),
(292.366,76.582,l),
(128.948,710,l),
(33.013,710,l)
);
}
);
width = 600;
}
);
unicode = 86;
},
{
glyphname = Vturned;
layers = (
{
layerId = "1A7FA7F6-774C-4A69-BC02-C84AF7C361B9";
shapes = (
{
closed = 1;
nodes = (
(14,0,l),
(158,0,l),
(296,537,l),
(304,537,l),
(442,0,l),
(586,0,l),
(381,710,l),
(219,710,l)
);
}
);
width = 600;
},
{
layerId = "772FC93F-B3B8-447D-A30A-419E2FCA5167";
shapes = (
{
closed = 1;
nodes = (
(23,0,l),
(132,0,l),
(296,624,l),
(304,624,l),
(468,0,l),
(578,0,l),
(373,710,l),
(227,710,l)
);
}
);
width = 600;
},
{
layerId = "ADDB71F6-EC09-4DA0-80DB-A822AEA2EE7D";
shapes = (
{
closed = 1;
nodes = (
(35,0,l),
(85,0,l),
(298,667,l),
(302,667,l),
(515,0,l),
(565,0,l),
(335,710,l),
(265,710,l)
);
}
);
width = 600;
},
{
layerId = "D03DF296-8133-4A96-B1BA-CFDB09DF42C8";
shapes = (
{
closed = 1;
nodes = (
(25.196,0,l),
(123.399,0,l),
(296.366,631.869,l),
(303.634,631.869,l),
(476.601,0,l),
(575.621,0,l),
(366.046,710,l),
(233.954,710,l)
);
}
);
width = 600;
}
);
unicode = 581;
},
{
glyphname = W;
layers = (
{
anchors = (
{
name = top;
pos = (312,710);
}
);
layerId = "1A7FA7F6-774C-4A69-BC02-C84AF7C361B9";
shapes = (
{
closed = 1;
nodes = (
(73,0,l),
(252,0,l),
(299,393,l),
(305,393,l),
(338,0,l),
(518,0,l),
(606,710,l),
(476,710,l),
(423,118,l),
(409,118,l),
(364,530,l),
(247,530,l),
(186,118,l),
(172,118,l),
(139,710,l),
(9,710,l)
);
}
);
width = 600;
},
{
anchors = (
{
name = top;
pos = (312,710);
}
);
layerId = "772FC93F-B3B8-447D-A30A-419E2FCA5167";
shapes = (
{
closed = 1;
nodes = (
(85,0,l),
(240,0,l),
(300,431,l),
(306,431,l),
(351,0,l),
(506,0,l),
(598,710,l),
(493,710,l),
(422,80,l),
(412,80,l),
(355,530,l),
(255,530,l),
(181,80,l),
(172,80,l),
(123,710,l),
(17,710,l)
);
}
);
width = 600;
},
{
anchors = (
{
name = top;
pos = (312,710);
}
);
layerId = "ADDB71F6-EC09-4DA0-80DB-A822AEA2EE7D";
shapes = (
{
closed = 1;
nodes = (
(122,0,l),
(210,0,l),
(301,495,l),
(307,495,l),
(381,0,l),
(468,0,l),
(586,710,l),
(538,710,l),
(431,40,l),
(421,40,l),
(347,530,l),
(262,530,l),
(171,40,l),
(161,40,l),
(78,710,l),
(30,710,l)
);
}
);
width = 600;
},
{
anchors = (
{
name = top;
pos = (312,710);
}
);
layerId = "D03DF296-8133-4A96-B1BA-CFDB09DF42C8";
shapes = (
{
closed = 1;
nodes = (
(91.771,0,l),
(234.51,0,l),
(300.183,442.712,l),
(306.183,442.712,l),
(356.49,0,l),
(499.046,0,l),
(595.804,710,l),
(501.235,710,l),
(423.647,72.68,l),
(413.647,72.68,l),
(353.536,530,l),
(256.281,530,l),
(179.17,72.68,l),
(169.987,72.68,l),
(114.765,710,l),
(19.379,710,l)
);
}
);
width = 600;
}
);
unicode = 87;
},
{
glyphname = X;
layers = (
{
layerId = "1A7FA7F6-774C-4A69-BC02-C84AF7C361B9";
shapes = (
{
closed = 1;
nodes = (
(415,0,l),
(580,0,l),
(347,382,l),
(188,710,l),
(24,710,l),
(263,309,l)
);
},
{
closed = 1;
nodes = (
(11,0,l),
(176,0,l),
(339,309,l),
(592,710,l),
(427,710,l),
(257,382,l)
);
}
);
width = 600;
},
{
layerId = "772FC93F-B3B8-447D-A30A-419E2FCA5167";
shapes = (
{
closed = 1;
nodes = (
(447,0,l),
(563,0,l),
(338,373,l),
(156,710,l),
(40,710,l),
(271,318,l)
);
},
{
closed = 1;
nodes = (
(28,0,l),
(142,0,l),
(331,318,l),
(575,710,l),
(461,710,l),
(265,373,l)
);
}
);
width = 600;
},
{
layerId = "ADDB71F6-EC09-4DA0-80DB-A822AEA2EE7D";
shapes = (
{
closed = 1;
nodes = (
(496,0,l),
(551,0,l),
(323,357,l),
(108,710,l),
(52,710,l),
(287,334,l)
);
},
{
closed = 1;
nodes = (
(40,0,l),
(95,0,l),
(315,334,l),
(563,710,l),
(508,710,l),
(281,357,l)
);
}
);
width = 600;
},
{
layerId = "D03DF296-8133-4A96-B1BA-CFDB09DF42C8";
shapes = (
{
closed = 1;
nodes = (
(455.967,0,l),
(560.804,0,l),
(335.255,370.072,l),
(147.216,710,l),
(42.196,710,l),
(273.928,320.928,l)
);
},
{
closed = 1;
nodes = (
(30.196,0,l),
(133.399,0,l),
(328.072,320.928,l),
(572.804,710,l),
(469.601,710,l),
(267.928,370.072,l)
);
}
);
width = 600;
}
);
unicode = 88;
},
{
glyphname = Y;
layers = (
{
anchors = (
{
name = top;
pos = (308,710);
}
);
layerId = "1A7FA7F6-774C-4A69-BC02-C84AF7C361B9";
shapes = (
{
closed = 1;
nodes = (
(241,212,l),
(357,212,l),
(604,710,l),
(460,710,l),
(309,380,l),
(301,380,l),
(163,710,l),
(12,710,l)
);
},
{
closed = 1;
nodes = (
(229,0,l),
(361,0,l),
(367,350,l),
(235,350,l)
);
}
);
width = 600;
},
{
anchors = (
{
name = top;
pos = (308,710);
}
);
layerId = "772FC93F-B3B8-447D-A30A-419E2FCA5167";
shapes = (
{
closed = 1;
nodes = (
(257,237,l),
(342,237,l),
(595,710,l),
(488,710,l),
(309,355,l),
(300,355,l),
(133,710,l),
(20,710,l)
);
},
{
closed = 1;
nodes = (
(243,0,l),
(347,0,l),
(353,350,l),
(249,350,l)
);
}
);
width = 600;
},
{
anchors = (
{
name = top;
pos = (308,710);
}
);
layerId = "ADDB71F6-EC09-4DA0-80DB-A822AEA2EE7D";
shapes = (
{
closed = 1;
nodes = (
(289,232,l),
(314,232,l),
(586,710,l),
(530,710,l),
(305,302,l),
(301,302,l),
(89,710,l),
(35,710,l)
);
},
{
closed = 1;
nodes = (
(272,0,l),
(319,0,l),
(324,295,l),
(277,295,l)
);
}
);
width = 600;
},
{
anchors = (
{
name = top;
pos = (308,710);
}
);
layerId = "D03DF296-8133-4A96-B1BA-CFDB09DF42C8";
shapes = (
{
closed = 1;
nodes = (
(262.856,236.085,l),
(336.876,236.085,l),
(593.353,710,l),
(495.686,710,l),
(308.268,345.301,l),
(300.183,345.301,l),
(124.948,710,l),
(22.745,710,l)
);
},
{
closed = 1;
nodes = (
(248.307,0,l),
(341.876,0,l),
(347.693,339.935,l),
(254.124,339.935,l)
);
}
);
width = 600;
}
);
unicode = 89;
},
{
glyphname = Z;
layers = (
{
anchors = (
{
name = top;
pos = (308,710);
}
);
layerId = "1A7FA7F6-774C-4A69-BC02-C84AF7C361B9";
shapes = (
{
closed = 1;
nodes = (
(148,34,l),
(537,589,l),
(450,681,l),
(61,122,l)
);
},
{
closed = 1;
nodes = (
(61,0,l),
(538,0,l),
(538,122,l),
(61,122,l)
);
},
{
closed = 1;
nodes = (
(71,589,l),
(537,589,l),
(537,710,l),
(71,710,l)
);
}
);
width = 600;
},
{
anchors = (
{
name = top;
pos = (308,710);
}
);
layerId = "772FC93F-B3B8-447D-A30A-419E2FCA5167";
shapes = (
{
closed = 1;
nodes = (
(146,34,l),
(531,615,l),
(457,681,l),
(72,95,l)
);
},
{
closed = 1;
nodes = (
(72,0,l),
(531,0,l),
(531,95,l),
(72,95,l)
);
},
{
closed = 1;
nodes = (
(82,615,l),
(531,615,l),
(531,710,l),
(82,710,l)
);
}
);
width = 600;
},
{
anchors = (
{
name = top;
pos = (308,710);
}
);
layerId = "ADDB71F6-EC09-4DA0-80DB-A822AEA2EE7D";
shapes = (
{
closed = 1;
nodes = (
(119,19,l),
(520,665,l),
(484,691,l),
(83,45,l)
);
},
{
closed = 1;
nodes = (
(83,0,l),
(519,0,l),
(519,45,l),
(83,45,l)
);
},
{
closed = 1;
nodes = (
(94,665,l),
(520,665,l),
(520,710,l),
(94,710,l)
);
}
);
width = 600;
},
{
anchors = (
{
name = top;
pos = (308,710);
}
);
layerId = "D03DF296-8133-4A96-B1BA-CFDB09DF42C8";
shapes = (
{
closed = 1;
nodes = (
(141.059,31.255,l),
(528.987,624.15,l),
(461.941,682.83,l),
(74.013,85.85,l)
);
},
{
closed = 1;
nodes = (
(74.013,0,l),
(528.804,0,l),
(528.804,85.85,l),
(74.013,85.85,l)
);
},
{
closed = 1;
nodes = (
(84.196,624.15,l),
(528.987,624.15,l),
(528.987,710,l),
(84.196,710,l)
);
}
);
width = 600;
}
);
unicode = 90;
},
{
glyphname = A.ss01;
layers = (
{
anchors = (
{
name = top;
pos = (309,710);
}
);
layerId = "1A7FA7F6-774C-4A69-BC02-C84AF7C361B9";
shapes = (
{
closed = 1;
nodes = (
(9,0,l),
(152,0,l),
(300,537,l),
(309,537,l),
(439,0,l),
(582,0,l),
(389,710,l),
(226,710,l)
);
},
{
closed = 1;
nodes = (
(140,156,l),
(284,214,o),
(404,143,o),
(434,23,c),
(503,23,l),
(452,211,l),
(377,211,l),
(355,294,o),
(253,316,o),
(136,265,c)
);
}
);
width = 600;
},
{
anchors = (
{
name = top;
pos = (309,710);
}
);
layerId = "772FC93F-B3B8-447D-A30A-419E2FCA5167";
shapes = (
{
closed = 1;
nodes = (
(17,0,l),
(123,0,l),
(302,624,l),
(311,624,l),
(468,0,l),
(572,0,l),
(380,710,l),
(236,710,l)
);
},
{
closed = 1;
nodes = (
(131,189,l),
(276,248,o),
(422,177,o),
(461,31,c),
(515,31,l),
(462,212,l),
(403,212,l),
(376,297,o),
(252,327,o),
(128,276,c)
);
}
);
width = 600;
},
{
anchors = (
{
name = top;
pos = (309,710);
}
);
layerId = "ADDB71F6-EC09-4DA0-80DB-A822AEA2EE7D";
shapes = (
{
closed = 1;
nodes = (
(30,0,l),
(80,0,l),
(304,667,l),
(309,667,l),
(511,0,l),
(561,0,l),
(342,710,l),
(273,710,l)
);
},
{
closed = 1;
nodes = (
(129,216,l),
(278,273,o),
(450,203,o),
(498,45,c),
(526,45,l),
(483,173,l),
(452,173,l),
(398,266,o),
(263,308,o),
(127,260,c)
);
}
);
width = 600;
},
{
anchors = (
{
name = top;
pos = (309,710);
}
);
layerId = "D03DF296-8133-4A96-B1BA-CFDB09DF42C8";
shapes = (
{
closed = 1;
nodes = (
(19.379,0,l),
(115.131,0,l),
(302.366,631.869,l),
(310.634,631.869,l),
(475.869,0,l),
(569.987,0,l),
(373.046,710,l),
(242.771,710,l)
);
},
{
closed = 1;
nodes = (
(130.634,193.941,l),
(276.366,252.575,o),
(427.124,181.758,o),
(467.771,33.562,c),
(517.013,33.562,l),
(465.843,204.863,l),
(411.967,204.863,l),
(380.026,291.327,o),
(254.013,323.523,o),
(127.817,273.072,c)
);
}
);
width = 600;
}
);
},
{
glyphname = F.ss01;
layers = (
{
layerId = "1A7FA7F6-774C-4A69-BC02-C84AF7C361B9";
shapes = (
{
closed = 1;
nodes = (
(562,710,l),
(380,710,l),
(380,575,l),
(293,562,o),
(242,502,o),
(240,405,cs),
(237,245,ls),
(235,157,o),
(197,116,o),
(125,116,cs),
(68,116,l),
(68,-5,l),
(155,-5,ls),
(296,-5,o),
(362,79,o),
(365,247,cs),
(368,415,ls),
(369,495,o),
(447,570,o),
(562,588,c)
);
},
{
closed = 1;
nodes = (
(87,588,l),
(562,588,l),
(562,710,l),
(87,710,l)
);
},
{
closed = 1;
nodes = (
(100,274,l),
(542,274,l),
(542,394,l),
(100,394,l)
);
}
);
width = 600;
},
{
layerId = "772FC93F-B3B8-447D-A30A-419E2FCA5167";
shapes = (
{
closed = 1;
nodes = (
(562,710,l),
(410,710,l),
(410,606,l),
(316,592,o),
(252,511,o),
(249,404,cs),
(244,245,ls),
(240,129,o),
(211,90,o),
(128,90,cs),
(72,90,l),
(72,-5,l),
(146,-5,ls),
(285,-5,o),
(345,73,o),
(349,255,cs),
(353,417,ls),
(355,511,o),
(437,588,o),
(562,615,c)
);
},
{
closed = 1;
nodes = (
(94,615,l),
(562,615,l),
(562,710,l),
(94,710,l)
);
},
{
closed = 1;
nodes = (
(105,289,l),
(539,289,l),
(539,382,l),
(105,382,l)
);
}
);
width = 600;
},
{
layerId = "ADDB71F6-EC09-4DA0-80DB-A822AEA2EE7D";
shapes = (
{
closed = 1;
nodes = (
(562,710,l),
(457,710,l),
(457,659,l),
(346,640,o),
(280,557,o),
(278,435,cs),
(275,266,ls),
(272,109,o),
(230,40,o),
(136,40,cs),
(82,40,l),
(82,-5,l),
(136,-5,ls),
(261,-5,o),
(319,83,o),
(322,266,cs),
(325,435,ls),
(327,561,o),
(398,631,o),
(562,665,c)
);
},
{
closed = 1;
nodes = (
(109,665,l),
(562,665,l),
(562,710,l),
(109,710,l)
);
},
{
closed = 1;
nodes = (
(115,316,l),
(532,316,l),
(532,361,l),
(115,361,l)
);
}
);
width = 600;
},
{
layerId = "D03DF296-8133-4A96-B1BA-CFDB09DF42C8";
shapes = (
{
closed = 1;
nodes = (
(562,710,l),
(418.601,710,l),
(418.601,615.699,l),
(321.49,600.784,o),
(257.124,519.418,o),
(254.307,409.673,cs),
(249.673,248.843,ls),
(245.856,125.34,o),
(214.477,80.85,o),
(129.464,80.85,cs),
(73.83,80.85,l),
(73.83,-5,l),
(144.17,-5,ls),
(280.608,-5,o),
(340.242,74.83,o),
(344.059,257.013,cs),
(347.876,420.294,ls),
(349.876,520.15,o),
(429.863,595.869,o),
(562,624.15,c)
);
},
{
closed = 1;
nodes = (
(96.745,624.15,l),
(562,624.15,l),
(562,710,l),
(96.745,710,l)
);
},
{
closed = 1;
nodes = (
(106.83,293.941,l),
(537.719,293.941,l),
(537.719,378.157,l),
(106.83,378.157,l)
);
}
);
width = 600;
}
);
},
{
glyphname = G.ss01;
layers = (
{
layerId = "1A7FA7F6-774C-4A69-BC02-C84AF7C361B9";
shapes = (
{
closed = 1;
nodes = (
(180,720,o),
(60,592,o),
(60,382,cs),
(60,181,o),
(161,62,o),
(327,62,cs),
(383,62,o),
(430,76,o),
(467,102,c),
(473,217,l),
(439,191,o),
(391,183,o),
(358,183,cs),
(256,183,o),
(198,253,o),
(198,389,cs),
(198,517,o),
(264,595,o),
(369,595,cs),
(418,595,o),
(461,577,o),
(494,530,c),
(578,627,l),
(539,687,o),
(463,720,o),
(368,720,cs)
);
},
{
closed = 1;
nodes = (
(559,217,l),
(473,217,l),
(427,123,l),
(425,50,ls),
(423,-36,o),
(374,-80,o),
(285,-80,cs),
(247,-80,o),
(194,-72,o),
(139,-43,c),
(99,-169,l),
(157,-195,o),
(223,-205,o),
(280,-205,cs),
(458,-205,o),
(552,-112,o),
(556,69,cs)
);
}
);
width = 600;
},
{
layerId = "772FC93F-B3B8-447D-A30A-419E2FCA5167";
shapes = (
{
closed = 1;
nodes = (
(186,720,o),
(74,590,o),
(74,378,cs),
(74,186,o),
(171,65,o),
(333,65,cs),
(384,65,o),
(433,78,o),
(464,101,c),
(481,198,l),
(440,166,o),
(398,157,o),
(351,157,cs),
(240,157,o),
(181,243,o),
(181,384,cs),
(181,535,o),
(250,628,o),
(366,628,cs),
(425,628,o),
(469,601,o),
(495,557,c),
(571,633,l),
(534,686,o),
(465,720,o),
(369,720,cs)
);
},
{
closed = 1;
nodes = (
(549,198,l),
(481,198,l),
(445,163,l),
(442,37,ls),
(440,-52,o),
(394,-110,o),
(300,-110,cs),
(249,-110,o),
(197,-100,o),
(147,-75,c),
(118,-167,l),
(175,-195,o),
(232,-205,o),
(296,-205,cs),
(457,-205,o),
(543,-111,o),
(546,47,cs)
);
}
);
width = 600;
},
{
layerId = "ADDB71F6-EC09-4DA0-80DB-A822AEA2EE7D";
shapes = (
{
closed = 1;
nodes = (
(200,720,o),
(84,592,o),
(84,384,cs),
(84,183,o),
(182,68,o),
(341,68,cs),
(414,68,o),
(472,91,o),
(510,127,c),
(519,176,l),
(474,136,o),
(420,113,o),
(342,113,cs),
(210,113,o),
(132,207,o),
(132,385,cs),
(132,568,o),
(227,675,o),
(369,675,cs),
(442,675,o),
(491,652,o),
(525,606,c),
(559,638,l),
(514,695,o),
(451,720,o),
(370,720,cs)
);
},
{
closed = 1;
nodes = (
(542,176,l),
(519,176,l),
(495,137,l),
(493,41,ls),
(490,-94,o),
(428,-160,o),
(299,-160,cs),
(246,-160,o),
(195,-151,o),
(145,-126,c),
(130,-169,l),
(186,-197,o),
(247,-205,o),
(299,-205,cs),
(455,-205,o),
(535,-121,o),
(539,41,cs)
);
}
);
width = 600;
},
{
layerId = "D03DF296-8133-4A96-B1BA-CFDB09DF42C8";
shapes = (
{
closed = 1;
nodes = (
(188.562,720,o),
(75.83,590.366,o),
(75.83,379.098,cs),
(75.83,185.451,o),
(173.013,65.549,o),
(334.464,65.549,cs),
(389.49,65.549,o),
(440.137,80.379,o),
(472.418,105.758,c),
(487.954,193.974,l),
(446.222,160.51,o),
(402.026,148.948,o),
(349.353,148.948,cs),
(234.51,148.948,o),
(172.033,236.412,o),
(172.033,384.183,cs),
(172.033,541.039,o),
(245.791,636.601,o),
(366.549,636.601,cs),
(428.111,636.601,o),
(473.026,610.333,o),
(500.49,565.967,c),
(568.804,633.915,l),
(530.34,687.647,o),
(462.438,720,o),
(369.183,720,cs)
);
},
{
closed = 1;
nodes = (
(547.719,193.974,l),
(487.954,193.974,l),
(454.15,158.242,l),
(451.333,37.732,ls),
(449.15,-59.686,o),
(400.222,-119.15,o),
(299.817,-119.15,cs),
(248.451,-119.15,o),
(196.634,-109.333,o),
(146.634,-84.333,c),
(120.196,-167.366,l),
(177.013,-195.366,o),
(234.745,-205,o),
(296.549,-205,cs),
(456.634,-205,o),
(541.536,-112.83,o),
(544.719,45.902,cs)
);
}
);
width = 600;
}
);
},
{
glyphname = H.ss01;
layers = (
{
layerId = "1A7FA7F6-774C-4A69-BC02-C84AF7C361B9";
shapes = (
{
closed = 1;
nodes = (
(401,0,l),
(533,0,l),
(545,710,l),
(413,710,l)
);
},
{
closed = 1;
nodes = (
(55,0,l),
(187,0,l),
(199,710,l),
(67,710,l)
);
},
{
closed = 1;
nodes = (
(154,319,l),
(300,361,o),
(407,262,o),
(403,69,c),
(467,69,l),
(467,328,l),
(395,328,l),
(383,425,o),
(262,472,o),
(155,442,c)
);
}
);
width = 600;
},
{
layerId = "772FC93F-B3B8-447D-A30A-419E2FCA5167";
shapes = (
{
closed = 1;
nodes = (
(420,0,l),
(524,0,l),
(536,710,l),
(432,710,l)
);
},
{
closed = 1;
nodes = (
(64,0,l),
(168,0,l),
(180,710,l),
(76,710,l)
);
},
{
closed = 1;
nodes = (
(141,336,l),
(303,381,o),
(424,267,o),
(422,73,c),
(476,73,l),
(476,296,l),
(414,296,l),
(387,403,o),
(268,463,o),
(142,430,c)
);
}
);
width = 600;
},
{
layerId = "ADDB71F6-EC09-4DA0-80DB-A822AEA2EE7D";
shapes = (
{
closed = 1;
nodes = (
(465,0,l),
(512,0,l),
(524,710,l),
(477,710,l)
);
},
{
closed = 1;
nodes = (
(76,0,l),
(123,0,l),
(135,710,l),
(88,710,l)
);
},
{
closed = 1;
nodes = (
(117,366,l),
(309,416,o),
(470,283,o),
(467,87,c),
(497,87,l),
(497,238,l),
(463,238,l),
(429,366,o),
(285,451,o),
(117,412,c)
);
}
);
width = 600;
},
{
layerId = "D03DF296-8133-4A96-B1BA-CFDB09DF42C8";
shapes = (
{
closed = 1;
nodes = (
(428.235,0,l),
(521.804,0,l),
(533.804,710,l),
(440.235,710,l)
);
},
{
closed = 1;
nodes = (
(66.196,0,l),
(159.765,0,l),
(171.765,710,l),
(78.196,710,l)
);
},
{
closed = 1;
nodes = (
(136.608,341.49,l),
(304.098,387.405,o),
(432.418,269.928,o),
(430.235,75.562,c),
(479.843,75.562,l),
(479.843,285.386,l),
(422.967,285.386,l),
(394.686,396.229,o),
(271.111,460.804,o),
(137.425,426.706,c)
);
}
);
width = 600;
}
);
},
{
glyphname = I.ss01;
layers = (
{
anchors = (
{
name = top;
pos = (316,710);
}
);
layerId = "1A7FA7F6-774C-4A69-BC02-C84AF7C361B9";
shapes = (
{
closed = 1;
nodes = (
(356,299,l),
(271,322,o),
(213,375,o),
(213,469,cs),
(213,546,o),
(253,597,o),
(314,597,cs),
(384,597,o),
(421,520,o),
(421,388,cs),
(421,203,o),
(361,115,o),
(224,115,cs),
(156,115,o),
(81,145,q),
(50,18,l),
(134,-10,o),
(219,-10,qs),
(442,-10,o),
(555,131,o),
(555,389,cs),
(555,604,o),
(471,720,o),
(316,720,cs),
(170,720,o),
(80,615,o),
(81,463,cs),
(82,313,o),
(187,214,o),
(307,185,c)
);
}
);
width = 600;
},
{
anchors = (
{
name = top;
pos = (314,710);
}
);
layerId = "772FC93F-B3B8-447D-A30A-419E2FCA5167";
shapes = (
{
closed = 1;
nodes = (
(349,274,l),
(246,309,o),
(196,373,o),
(196,473,cs),
(196,568,o),
(240,626,o),
(310,626,cs),
(389,626,o),
(432,553,o),
(432,400,cs),
(432,183,o),
(364,85,o),
(217,85,cs),
(148,85,o),
(80,116,q),
(54,23,l),
(131,-10,o),
(217,-10,qs),
(428,-10,o),
(537,128,o),
(537,404,cs),
(537,611,o),
(457,720,o),
(314,720,cs),
(182,720,o),
(93,622,o),
(93,472,cs),
(93,330,o),
(177,231,o),
(310,187,c)
);
}
);
width = 600;
},
{
anchors = (
{
name = top;
pos = (309,710);
}
);
layerId = "ADDB71F6-EC09-4DA0-80DB-A822AEA2EE7D";
shapes = (
{
closed = 1;
nodes = (
(343,239,l),
(217,276,o),
(152,354,o),
(152,481,cs),
(152,601,o),
(212,674,o),
(309,674,cs),
(416,674,o),
(470,583,o),
(470,396,cs),
(470,175,o),
(395,36,o),
(217,36,cs),
(136,36,o),
(73,71,q),
(56,27,l),
(127,-10,o),
(216,-10,qs),
(423,-10,o),
(517,151,o),
(517,396,cs),
(517,614,o),
(442,720,o),
(309,720,cs),
(184,720,o),
(106,625,o),
(106,479,cs),
(106,338,o),
(183,239,o),
(327,196,c)
);
}
);
width = 600;
},
{
anchors = (
{
name = top;
pos = (313.085,710);
}
);
layerId = "D03DF296-8133-4A96-B1BA-CFDB09DF42C8";
shapes = (
{
closed = 1;
nodes = (
(347.902,267.595,l),
(240.693,302.961,o),
(187.948,369.523,o),
(187.948,474.464,cs),
(187.948,574.039,o),
(234.876,634.784,o),
(309.817,634.784,cs),
(393.941,634.784,o),
(438.954,558.49,o),
(438.954,399.268,cs),
(438.954,181.536,o),
(369.673,76.033,o),
(217,76.033,cs),
(145.804,76.033,o),
(78.719,107.765,q),
(54.366,23.732,l),
(130.268,-10,o),
(216.817,-10,qs),
(427.085,-10,o),
(533.34,132.209,o),
(533.34,402.536,cs),
(533.34,611.549,o),
(454.255,720,o),
(313.085,720,cs),
(182.366,720,o),
(95.379,622.549,o),
(95.379,473.281,cs),
(95.379,331.464,o),
(178.098,232.464,o),
(313.111,188.647,c)
);
}
);
width = 600;
}
);
},
{
glyphname = J.ss01;
layers = (
{
anchors = (
{
name = top;
pos = (338,710);
}
);
layerId = "1A7FA7F6-774C-4A69-BC02-C84AF7C361B9";
shapes = (
{
closed = 1;
nodes = (
(347,210,l),
(228,255,o),
(169,341,o),
(169,445,cs),
(169,533,o),
(217,596,o),
(288,596,cs),
(354,596,o),
(399,541,o),
(395,431,cs),
(383,89,ls),
(379,-36,o),
(349,-80,o),
(271,-80,cs),
(221,-80,o),
(167,-54,q),
(130,-177,l),
(196,-205,o),
(270,-205,qs),
(426,-205,o),
(507,-113,o),
(514,74,cs),
(527,434,ls),
(534,614,o),
(445,720,o),
(293,720,cs),
(139,720,o),
(37,609,o),
(37,443,cs),
(37,285,o),
(134,154,o),
(295,91,c)
);
}
);
width = 600;
},
{
anchors = (
{
name = top;
pos = (337,710);
}
);
layerId = "772FC93F-B3B8-447D-A30A-419E2FCA5167";
shapes = (
{
closed = 1;
nodes = (
(359,188,l),
(241,236,o),
(160,330,o),
(160,455,cs),
(160,553,o),
(210,626,o),
(295,626,cs),
(376,626,o),
(420,557,o),
(416,445,cs),
(404,67,ls),
(400,-59,o),
(360,-110,o),
(271,-110,cs),
(214,-110,o),
(168,-83,q),
(140,-176,l),
(199,-205,o),
(274,-205,qs),
(420,-205,o),
(501,-114,o),
(507,57,cs),
(520,452,ls),
(526,621,o),
(442,720,o),
(298,720,cs),
(136,720,o),
(58,594,o),
(58,453,cs),
(58,287,o),
(169,159,o),
(319,96,c)
);
}
);
width = 600;
},
{
anchors = (
{
name = top;
pos = (336,710);
}
);
layerId = "ADDB71F6-EC09-4DA0-80DB-A822AEA2EE7D";
shapes = (
{
closed = 1;
nodes = (
(365,155,l),
(212,205,o),
(122,319,o),
(122,463,cs),
(122,593,o),
(193,675,o),
(301,675,cs),
(405,675,o),
(465,595,o),
(461,470,cs),
(448,34,ls),
(444,-94,o),
(385,-160,o),
(277,-160,cs),
(219,-160,o),
(168,-136,q),
(153,-179,l),
(214,-205,o),
(277,-205,qs),
(410,-205,o),
(490,-119,o),
(495,34,cs),
(508,470,ls),
(513,623,o),
(432,720,o),
(301,720,cs),
(167,720,o),
(76,617,o),
(76,463,cs),
(76,302,o),
(175,173,o),
(349,112,c)
);
}
);
width = 600;
},
{
anchors = (
{
name = top;
pos = (336.817,710);
}
);
layerId = "D03DF296-8133-4A96-B1BA-CFDB09DF42C8";
shapes = (
{
closed = 1;
nodes = (
(360.098,181.961,l),
(235.693,230.327,o),
(153.046,327.987,o),
(153.046,456.464,cs),
(153.046,560.32,o),
(206.889,634.967,o),
(296.098,634.967,cs),
(381.307,634.967,o),
(428.235,563.954,o),
(424.235,449.575,cs),
(412.052,60.961,ls),
(408.052,-65.405,o),
(364.575,-119.15,o),
(272.098,-119.15,cs),
(214.915,-119.15,o),
(168,-92.699,q),
(142.379,-176.549,l),
(201.745,-205,o),
(274.549,-205,qs),
(418.17,-205,o),
(498.987,-114.915,o),
(504.804,52.791,cs),
(517.804,455.294,ls),
(523.621,621.366,o),
(440.17,720,o),
(298.549,720,cs),
(141.673,720,o),
(61.294,598.209,o),
(61.294,454.83,cs),
(61.294,289.745,o),
(170.098,161.562,o),
(324.49,98.928,c)
);
}
);
width = 600;
}
);
},
{
glyphname = L.ss01;
layers = (
{
layerId = "1A7FA7F6-774C-4A69-BC02-C84AF7C361B9";
shapes = (
{
closed = 1;
nodes = (
(388,715,ls),
(247,715,o),
(166,621,o),
(164,453,cs),
(162,309,ls),
(160,179,o),
(74,122,q),
(74,0,l),
(209,0,l),
(209,122,l),
(293,181,o),
(295,314,qs),
(297,442,ls),
(299,556,o),
(324,593,o),
(399,593,cs),
(471,593,l),
(471,715,l)
);
},
{
closed = 1;
nodes = (
(132,0,l),
(555,0,l),
(555,122,l),
(132,122,l)
);
}
);
width = 600;
},
{
layerId = "772FC93F-B3B8-447D-A30A-419E2FCA5167";
shapes = (
{
closed = 1;
nodes = (
(392,715,ls),
(252,715,o),
(179,627,o),
(176,456,cs),
(173,296,ls),
(170,155,o),
(78,95,q),
(78,0,l),
(189,0,l),
(189,95,l),
(275,165,o),
(277,307,qs),
(279,443,ls),
(281,572,o),
(313,620,o),
(399,620,cs),
(463,620,l),
(463,715,l)
);
},
{
closed = 1;
nodes = (
(127,0,l),
(546,0,l),
(546,95,l),
(127,95,l)
);
}
);
width = 600;
},
{
layerId = "ADDB71F6-EC09-4DA0-80DB-A822AEA2EE7D";
shapes = (
{
closed = 1;
nodes = (
(401,715,ls),
(271,715,o),
(210,630,o),
(207,472,cs),
(203,272,ls),
(200,110,o),
(97,45,q),
(97,0,l),
(156,0,l),
(156,45,l),
(247,106,o),
(250,272,qs),
(254,472,ls),
(257,605,o),
(299,670,o),
(400,670,cs),
(463,670,l),
(463,715,l)
);
},
{
closed = 1;
nodes = (
(126,0,l),
(544,0,l),
(544,45,l),
(126,45,l)
);
}
);
width = 600;
},
{
layerId = "D03DF296-8133-4A96-B1BA-CFDB09DF42C8";
shapes = (
{
closed = 1;
nodes = (
(393.647,715,ls),
(255.477,715,o),
(184.673,627.549,o),
(181.673,458.928,cs),
(178.49,291.608,ls),
(175.49,146.765,o),
(81.477,85.85,q),
(81.477,0,l),
(182.961,0,l),
(182.961,85.85,l),
(269.876,154.203,o),
(272.059,300.595,qs),
(274.425,448.307,ls),
(276.608,578.039,o),
(310.438,629.15,o),
(399.183,629.15,cs),
(463,629.15,l),
(463,715,l)
);
},
{
closed = 1;
nodes = (
(126.817,0,l),
(545.634,0,l),
(545.634,85.85,l),
(126.817,85.85,l)
);
}
);
width = 600;
}
);
},
{
glyphname = N.ss01;
layers = (
{
anchors = (
{
name = top;
pos = (327,710);
}
);
layerId = "1A7FA7F6-774C-4A69-BC02-C84AF7C361B9";
shapes = (
{
closed = 1;
nodes = (
(533,0,l),
(542,526,ls),
(544,655,o),
(486,720,o),
(384,720,cs),
(279,720,o),
(216,655,o),
(204,520,c),
(230,592,l),
(174,592,l),
(195,260,l),
(199,464,o),
(257,599,o),
(340,599,cs),
(386,599,o),
(411,559,o),
(409,470,cs),
(401,0,l)
);
},
{
closed = 1;
nodes = (
(59,0,l),
(191,0,l),
(203,710,l),
(71,710,l)
);
}
);
width = 600;
},
{
anchors = (
{
name = top;
pos = (315,710);
}
);
layerId = "772FC93F-B3B8-447D-A30A-419E2FCA5167";
shapes = (
{
closed = 1;
nodes = (
(525,0,l),
(534,514,ls),
(536,650,o),
(480,720,o),
(377,720,cs),
(266,720,o),
(198,647,o),
(184,511,c),
(208,551,l),
(155,551,l),
(176,272,l),
(181,488,o),
(248,623,o),
(347,623,cs),
(404,623,o),
(431,578,o),
(429,478,cs),
(421,0,l)
);
},
{
closed = 1;
nodes = (
(68,0,l),
(172,0,l),
(184,710,l),
(80,710,l)
);
}
);
width = 600;
},
{
anchors = (
{
name = top;
pos = (307,710);
}
);
layerId = "ADDB71F6-EC09-4DA0-80DB-A822AEA2EE7D";
shapes = (
{
closed = 1;
nodes = (
(513,0,l),
(522,496,ls),
(525,642,o),
(460,720,o),
(350,720,cs),
(233,720,o),
(155,631,o),
(137,491,c),
(158,527,l),
(110,527,l),
(132,298,l),
(136,533,o),
(217,675,o),
(345,675,cs),
(435,675,o),
(477,619,o),
(475,495,cs),
(466,0,l)
);
},
{
closed = 1;
nodes = (
(80,0,l),
(127,0,l),
(139,710,l),
(92,710,l)
);
}
);
width = 600;
},
{
anchors = (
{
name = top;
pos = (313.536,710);
}
);
layerId = "D03DF296-8133-4A96-B1BA-CFDB09DF42C8";
shapes = (
{
closed = 1;
nodes = (
(522.804,0,l),
(531.804,510.706,ls),
(533.987,648.536,o),
(476.34,720,o),
(372.059,720,cs),
(259.961,720,o),
(190.131,644.072,o),
(175.399,507.34,c),
(198.85,546.608,l),
(146.765,546.608,l),
(167.948,276.758,l),
(172.765,496.235,o),
(242.327,632.516,o),
(346.634,632.516,cs),
(409.673,632.516,o),
(439.418,585.503,o),
(437.418,481.111,cs),
(429.235,0,l)
);
},
{
closed = 1;
nodes = (
(70.196,0,l),
(163.765,0,l),
(175.765,710,l),
(82.196,710,l)
);
}
);
width = 600;
}
);
},
{
glyphname = Q.ss01;
layers = (
{
layerId = "1A7FA7F6-774C-4A69-BC02-C84AF7C361B9";
shapes = (
{
closed = 1;
nodes = (
(288,116,l),
(208,120,o),
(169,194,o),
(169,336,cs),
(169,427,o),
(181,594,o),
(306,594,cs),
(391,594,o),
(433,519,o),
(433,358,cs),
(433,130,o),
(348,0,o),
(171,-63,c),
(171,-189,l),
(334,-189,l),
(334,-49,l),
(484,-30,o),
(572,137,o),
(572,372,cs),
(572,604,o),
(483,720,o),
(308,720,cs),
(82,720,o),
(31,523,o),
(31,334,cs),
(31,130,o),
(100,17,o),
(239,-5,c)
);
},
{
closed = 1;
nodes = (
(575,-63,l),
(171,-63,l),
(171,-189,l),
(575,-189,l)
);
}
);
width = 600;
},
{
layerId = "772FC93F-B3B8-447D-A30A-419E2FCA5167";
shapes = (
{
closed = 1;
nodes = (
(292,82,l),
(196,86,o),
(146,170,o),
(146,335,cs),
(146,442,o),
(161,628,o),
(306,628,cs),
(407,628,o),
(457,531,o),
(457,364,cs),
(457,128,o),
(356,-17,o),
(152,-94,c),
(152,-189,l),
(287,-189,l),
(287,-85,l),
(442,-50,o),
(563,121,o),
(563,372,cs),
(563,594,o),
(478,720,o),
(308,720,cs),
(85,720,o),
(39,516,o),
(39,333,cs),
(39,120,o),
(114,6,o),
(262,-8,c)
);
},
{
closed = 1;
nodes = (
(568,-94,l),
(152,-94,l),
(152,-189,l),
(568,-189,l)
);
}
);
width = 600;
},
{
layerId = "ADDB71F6-EC09-4DA0-80DB-A822AEA2EE7D";
shapes = (
{
closed = 1;
nodes = (
(289,36,l),
(162,37,o),
(99,139,o),
(99,334,cs),
(99,475,o),
(125,675,o),
(307,675,cs),
(438,675,o),
(504,574,o),
(504,361,cs),
(504,81,o),
(370,-58,o),
(131,-145,c),
(131,-189,l),
(224,-189,l),
(224,-140,l),
(406,-86,o),
(552,81,o),
(552,368,cs),
(552,600,o),
(470,720,o),
(308,720,cs),
(91,720,o),
(51,508,o),
(51,333,cs),
(51,114,o),
(127,3,o),
(274,-9,c)
);
},
{
closed = 1;
nodes = (
(565,-145,l),
(131,-145,l),
(131,-189,l),
(565,-189,l)
);
}
);
width = 600;
},
{
layerId = "D03DF296-8133-4A96-B1BA-CFDB09DF42C8";
shapes = (
{
closed = 1;
nodes = (
(291.451,73.582,l),
(189.778,77.033,o),
(137.399,164.327,o),
(137.399,334.817,cs),
(137.399,448.039,o),
(154.412,636.601,o),
(306.183,636.601,cs),
(412.673,636.601,o),
(465.601,538.869,o),
(465.601,363.451,cs),
(465.601,119.399,o),
(358.562,-24.503,o),
(148.157,-103.333,c),
(148.157,-189,l),
(275.471,-189,l),
(275.471,-95.065,l),
(435.412,-56.588,o),
(560.987,113.68,o),
(560.987,371.268,cs),
(560.987,595.098,o),
(476.536,720,o),
(308,720,cs),
(86.098,720,o),
(41.196,514.536,o),
(41.196,333,cs),
(41.196,118.902,o),
(116.379,5.451,o),
(264.196,-8.183,c)
);
},
{
closed = 1;
nodes = (
(567.451,-103.333,l),
(148.157,-103.333,l),
(148.157,-189,l),
(567.451,-189,l)
);
}
);
width = 600;
}
);
},
{
glyphname = T.ss01;
layers = (
{
layerId = "1A7FA7F6-774C-4A69-BC02-C84AF7C361B9";
shapes = (
{
closed = 1;
nodes = (
(538,710,l),
(375,710,l),
(375,575,l),
(227,551,o),
(118,411,o),
(118,244,cs),
(118,86,o),
(219,-10,o),
(383,-10,cs),
(446,-10,o),
(504,8,q),
(479,124,l),
(431,109,o),
(392,109,qs),
(305,109,o),
(255,160,o),
(255,255,cs),
(255,394,o),
(355,511,o),
(538,588,c)
);
},
{
closed = 1;
nodes = (
(47,588,l),
(538,588,l),
(538,710,l),
(47,710,l)
);
}
);
width = 600;
},
{
layerId = "772FC93F-B3B8-447D-A30A-419E2FCA5167";
shapes = (
{
closed = 1;
nodes = (
(538,710,l),
(411,710,l),
(411,606,l),
(249,578,o),
(127,417,o),
(127,245,cs),
(127,89,o),
(227,-10,o),
(386,-10,cs),
(446,-10,o),
(505,8,q),
(483,101,l),
(434,85,o),
(391,85,qs),
(292,85,o),
(233,149,o),
(233,257,cs),
(233,410,o),
(338,539,o),
(538,615,c)
);
},
{
closed = 1;
nodes = (
(52,615,l),
(538,615,l),
(538,710,l),
(52,710,l)
);
}
);
width = 600;
},
{
layerId = "ADDB71F6-EC09-4DA0-80DB-A822AEA2EE7D";
shapes = (
{
closed = 1;
nodes = (
(538,710,l),
(455,710,l),
(455,660,l),
(275,603,o),
(147,439,o),
(147,257,cs),
(147,102,o),
(240,-10,o),
(390,-10,cs),
(443,-10,o),
(504,9,q),
(492,53,l),
(440,35,o),
(390,35,qs),
(271,35,o),
(194,125,o),
(194,260,cs),
(194,436,o),
(317,583,o),
(538,665,c)
);
},
{
closed = 1;
nodes = (
(62,665,l),
(538,665,l),
(538,710,l),
(62,710,l)
);
}
);
width = 600;
},
{
layerId = "D03DF296-8133-4A96-B1BA-CFDB09DF42C8";
shapes = (
{
closed = 1;
nodes = (
(538,710,l),
(419.052,710,l),
(419.052,615.882,l),
(253.758,582.575,o),
(130.66,421.026,o),
(130.66,247.196,cs),
(130.66,91.379,o),
(229.379,-10,o),
(386.732,-10,cs),
(445.451,-10,o),
(504.817,8.183,q),
(484.647,92.216,l),
(435.098,75.85,o),
(390.817,75.85,qs),
(288.157,75.85,o),
(225.863,144.608,o),
(225.863,257.549,cs),
(225.863,414.758,o),
(334.157,547.052,o),
(538,624.15,c)
);
},
{
closed = 1;
nodes = (
(53.83,624.15,l),
(538,624.15,l),
(538,710,l),
(53.83,710,l)
);
}
);
width = 600;
}
);
},
{
glyphname = Y.ss01;
layers = (
{
anchors = (
{
name = top;
pos = (308,710);
}
);
layerId = "1A7FA7F6-774C-4A69-BC02-C84AF7C361B9";
shapes = (
{
closed = 1;
nodes = (
(541,710,l),
(409,710,l),
(398,50,ls),
(397,-36,o),
(346,-80,o),
(254,-80,cs),
(216,-80,o),
(159,-72,o),
(103,-43,c),
(63,-169,l),
(123,-195,o),
(190,-205,o),
(249,-205,cs),
(430,-205,o),
(527,-112,o),
(530,69,cs)
);
},
{
closed = 1;
nodes = (
(67,710,l),
(59,247,ls),
(57,118,o),
(115,53,o),
(217,53,cs),
(322,53,o),
(385,118,o),
(397,253,c),
(371,181,l),
(427,181,l),
(406,513,l),
(402,309,o),
(344,174,o),
(261,174,cs),
(215,174,o),
(190,214,o),
(192,303,cs),
(199,710,l)
);
}
);
width = 600;
},
{
anchors = (
{
name = top;
pos = (308,710);
}
);
layerId = "772FC93F-B3B8-447D-A30A-419E2FCA5167";
shapes = (
{
closed = 1;
nodes = (
(532,710,l),
(428,710,l),
(416,37,ls),
(414,-52,o),
(365,-110,o),
(264,-110,cs),
(209,-110,o),
(155,-100,o),
(101,-75,c),
(72,-167,l),
(132,-195,o),
(193,-205,o),
(260,-205,cs),
(427,-205,o),
(517,-111,o),
(520,47,cs)
);
},
{
closed = 1;
nodes = (
(75,710,l),
(67,263,ls),
(65,127,o),
(121,57,o),
(224,57,cs),
(335,57,o),
(403,130,o),
(417,266,c),
(393,226,l),
(446,226,l),
(425,505,l),
(420,289,o),
(353,154,o),
(254,154,cs),
(197,154,o),
(170,199,o),
(172,299,cs),
(179,710,l)
);
}
);
width = 600;
},
{
anchors = (
{
name = top;
pos = (308,710);
}
);
layerId = "ADDB71F6-EC09-4DA0-80DB-A822AEA2EE7D";
shapes = (
{
closed = 1;
nodes = (
(520,710,l),
(473,710,l),
(461,41,ls),
(459,-94,o),
(394,-160,o),
(258,-160,cs),
(201,-160,o),
(148,-151,o),
(94,-126,c),
(79,-169,l),
(139,-197,o),
(203,-205,o),
(258,-205,cs),
(421,-205,o),
(505,-121,o),
(508,41,cs)
);
},
{
closed = 1;
nodes = (
(87,710,l),
(79,277,ls),
(76,131,o),
(141,53,o),
(251,53,cs),
(368,53,o),
(446,142,o),
(464,282,c),
(443,246,l),
(491,246,l),
(469,475,l),
(465,240,o),
(384,98,o),
(256,98,cs),
(166,98,o),
(124,154,o),
(126,278,cs),
(134,710,l)
);
}
);
width = 600;
},
{
anchors = (
{
name = top;
pos = (308,710);
}
);
layerId = "D03DF296-8133-4A96-B1BA-CFDB09DF42C8";
shapes = (
{
closed = 1;
nodes = (
(529.804,710,l),
(436.235,710,l),
(424.235,37.732,ls),
(422.235,-59.686,o),
(370.307,-119.15,o),
(262.902,-119.15,cs),
(207.536,-119.15,o),
(153.719,-109.333,o),
(99.719,-84.333,c),
(73.281,-167.366,l),
(133.281,-195.366,o),
(194.83,-205,o),
(259.634,-205,cs),
(425.902,-205,o),
(514.804,-112.83,o),
(517.804,45.902,cs)
);
},
{
closed = 1;
nodes = (
(77.196,710,l),
(69.196,265.562,ls),
(67.013,127.732,o),
(124.66,56.268,o),
(228.941,56.268,cs),
(341.039,56.268,o),
(410.869,132.196,o),
(425.601,268.928,c),
(402.15,229.66,l),
(454.235,229.66,l),
(433.052,499.51,l),
(428.235,280.033,o),
(358.673,143.752,o),
(254.366,143.752,cs),
(191.327,143.752,o),
(161.582,190.765,o),
(163.582,295.157,cs),
(170.765,710,l)
);
}
);
width = 600;
}
);
},
{
glyphname = Z.ss01;
layers = (
{
anchors = (
{
name = top;
pos = (283,710);
}
);
layerId = "1A7FA7F6-774C-4A69-BC02-C84AF7C361B9";
shapes = (
{
closed = 1;
nodes = (
(380,97,o),
(301,126,o),
(176,123,c),
(159,243,l),
(312,316,o),
(393,381,o),
(393,485,cs),
(393,558,o),
(347,596,o),
(272,596,cs),
(208,596,o),
(146,568,o),
(95,515,c),
(26,622,l),
(99,686,o),
(187,720,o),
(289,720,cs),
(444,720,o),
(532,640,o),
(532,503,cs),
(532,375,o),
(458,261,o),
(278,214,c),
(311,251,l),
(316,176,l),
(278,210,l),
(435,214,o),
(519,149,o),
(519,26,cs),
(519,-117,o),
(416,-205,o),
(246,-205,cs),
(188,-205,o),
(122,-195,o),
(63,-169,c),
(102,-47,l),
(142,-68,o),
(195,-80,o),
(244,-80,cs),
(332,-80,o),
(380,-44,o),
(380,17,cs)
);
}
);
width = 600;
},
{
anchors = (
{
name = top;
pos = (283,710);
}
);
layerId = "772FC93F-B3B8-447D-A30A-419E2FCA5167";
shapes = (
{
closed = 1;
nodes = (
(406,110,o),
(318,145,o),
(180,142,c),
(167,232,l),
(332,308,o),
(418,397,o),
(418,502,cs),
(418,588,o),
(364,625,o),
(274,625,cs),
(206,625,o),
(143,600,o),
(84,547,c),
(28,629,l),
(103,688,o),
(189,720,o),
(286,720,cs),
(436,720,o),
(524,646,o),
(524,516,cs),
(524,384,o),
(431,265,o),
(274,210,c),
(294,240,l),
(297,183,l),
(274,207,l),
(415,209,o),
(512,144,o),
(512,23,cs),
(512,-117,o),
(409,-205,o),
(243,-205,cs),
(186,-205,o),
(125,-195,o),
(68,-167,c),
(100,-75,l),
(145,-99,o),
(194,-110,o),
(240,-110,cs),
(346,-110,o),
(406,-62,o),
(406,17,cs)
);
}
);
width = 600;
},
{
anchors = (
{
name = top;
pos = (283,710);
}
);
layerId = "ADDB71F6-EC09-4DA0-80DB-A822AEA2EE7D";
shapes = (
{
closed = 1;
nodes = (
(446,131,o),
(349,178,o),
(196,173,c),
(190,212,l),
(370,280,o),
(458,399,o),
(458,521,cs),
(458,617,o),
(393,675,o),
(283,675,cs),
(209,675,o),
(136,647,o),
(65,586,c),
(37,622,l),
(108,684,o),
(194,720,o),
(284,720,cs),
(419,720,o),
(505,642,o),
(505,521,cs),
(505,382,o),
(402,262,o),
(264,208,c),
(270,220,l),
(271,196,l),
(264,206,l),
(400,206,o),
(493,136,o),
(493,17,cs),
(493,-117,o),
(393,-205,o),
(242,-205,cs),
(184,-205,o),
(126,-194,o),
(73,-164,c),
(92,-122,l),
(145,-151,o),
(198,-160,o),
(240,-160,cs),
(369,-160,o),
(446,-93,o),
(446,17,cs)
);
}
);
width = 600;
},
{
anchors = (
{
name = top;
pos = (283,710);
}
);
layerId = "D03DF296-8133-4A96-B1BA-CFDB09DF42C8";
shapes = (
{
closed = 1;
nodes = (
(413.32,113.843,o),
(323.673,151.039,o),
(182.928,147.673,c),
(171.209,228.34,l),
(338.954,302.876,o),
(425.32,397.366,o),
(425.32,505.477,cs),
(425.32,593.307,o),
(369.307,634.15,o),
(275.647,634.15,cs),
(206.549,634.15,o),
(141.719,608.601,o),
(80.523,554.137,c),
(29.647,627.719,l),
(103.915,687.268,o),
(189.915,720,o),
(285.634,720,cs),
(432.889,720,o),
(520.523,645.268,o),
(520.523,516.915,cs),
(520.523,383.634,o),
(425.693,264.451,o),
(272.17,209.634,c),
(289.608,236.34,l),
(292.242,185.379,l),
(272.17,206.817,l),
(412.255,208.451,o),
(508.523,142.536,o),
(508.523,21.902,cs),
(508.523,-117,o),
(406.072,-205,o),
(242.817,-205,cs),
(185.634,-205,o),
(125.183,-194.817,o),
(68.915,-166.451,c),
(98.536,-83.601,l),
(145,-108.516,o),
(194.732,-119.15,o),
(240,-119.15,cs),
(350.209,-119.15,o),
(413.32,-67.673,o),
(413.32,17,cs)
);
}
);
width = 600;
}
);
},
{
glyphname = J.ss03;
layers = (
{
anchors = (
{
name = top;
pos = (338,710);
}
);
layerId = "1A7FA7F6-774C-4A69-BC02-C84AF7C361B9";
shapes = (
{
closed = 1;
nodes = (
(343,293,l),
(222,333,o),
(174,390,o),
(174,479,cs),
(174,544,o),
(212,596,o),
(283,596,cs),
(346,596,o),
(386,551,o),
(383,441,cs),
(374,102,l),
(384,101,l),
(376,-3,ls),
(372,-54,o),
(350,-84,o),
(315,-84,cs),
(286,-84,o),
(268,-63,o),
(268,-38,cs),
(268,-9,o),
(290,16,o),
(342,34,cs),
(605,120,l),
(572,237,l),
(282,137,ls),
(190,106,o),
(137,38,o),
(137,-43,cs),
(137,-133,o),
(203,-205,o),
(304,-205,cs),
(415,-205,o),
(495,-120,o),
(499,7,cs),
(514,444,ls),
(520,627,o),
(435,720,o),
(287,720,cs),
(118,720,o),
(40,598,o),
(40,473,cs),
(40,329,o),
(127,227,o),
(286,171,c)
);
}
);
width = 600;
},
{
anchors = (
{
name = top;
pos = (337,710);
}
);
layerId = "772FC93F-B3B8-447D-A30A-419E2FCA5167";
shapes = (
{
closed = 1;
nodes = (
(341,266,l),
(209,309,o),
(143,379,o),
(143,483,cs),
(143,566,o),
(191,627,o),
(272,627,cs),
(356,627,o),
(399,570,o),
(396,458,cs),
(388,103,l),
(397,102,l),
(393,-14,ls),
(391,-75,o),
(360,-113,o),
(318,-113,cs),
(284,-113,o),
(261,-87,o),
(261,-53,cs),
(261,-11,o),
(293,15,o),
(345,35,cs),
(598,128,l),
(572,219,l),
(297,114,ls),
(208,80,o),
(162,14,o),
(162,-58,cs),
(162,-143,o),
(227,-205,o),
(314,-205,cs),
(415,-205,o),
(484,-125,o),
(487,-10,cs),
(500,460,ls),
(504,625,o),
(423,720,o),
(275,720,cs),
(124,720,o),
(41,608,o),
(41,479,cs),
(41,333,o),
(135,232,o),
(300,175,c)
);
}
);
width = 600;
},
{
anchors = (
{
name = top;
pos = (336,710);
}
);
layerId = "ADDB71F6-EC09-4DA0-80DB-A822AEA2EE7D";
shapes = (
{
closed = 1;
nodes = (
(337,233,l),
(190,275,o),
(97,357,o),
(97,486,cs),
(97,593,o),
(161,675,o),
(271,675,cs),
(377,675,o),
(431,609,o),
(429,471,cs),
(423,104,l),
(423,103,l),
(421,-22,ls),
(420,-106,o),
(382,-161,o),
(321,-161,cs),
(271,-161,o),
(238,-128,o),
(238,-78,cs),
(238,-29,o),
(268,4,o),
(339,33,cs),
(585,132,l),
(570,175,l),
(321,73,ls),
(231,36,o),
(193,-10,o),
(193,-79,cs),
(193,-154,o),
(246,-205,o),
(319,-205,cs),
(408,-205,o),
(465,-133,o),
(467,-22,cs),
(475,472,ls),
(478,633,o),
(402,720,o),
(272,720,cs),
(137,720,o),
(51,617,o),
(51,484,cs),
(51,336,o),
(159,241,o),
(322,190,c)
);
}
);
width = 600;
},
{
anchors = (
{
name = top;
pos = (336.817,710);
}
);
layerId = "D03DF296-8133-4A96-B1BA-CFDB09DF42C8";
shapes = (
{
closed = 1;
nodes = (
(340.268,259.961,l),
(205.523,302.778,o),
(134.582,374.974,o),
(134.582,483.549,cs),
(134.582,570.941,o),
(185.51,635.784,o),
(271.817,635.784,cs),
(359.843,635.784,o),
(404.856,577.137,o),
(402.039,460.379,cs),
(394.405,103.183,l),
(401.758,102.183,l),
(398.124,-15.464,ls),
(396.307,-80.673,o),
(364.026,-121.784,o),
(318.549,-121.784,cs),
(281.621,-121.784,o),
(256.791,-94.503,o),
(256.791,-57.575,cs),
(256.791,-14.294,o),
(288.425,12.987,o),
(343.902,34.634,cs),
(595.621,128.732,l),
(571.634,210.948,l),
(301.392,106.497,ls),
(212.209,71.948,o),
(167.673,9.608,o),
(167.673,-61.843,cs),
(167.673,-145.013,o),
(230.477,-205,o),
(314.915,-205,cs),
(413.719,-205,o),
(480.523,-126.464,o),
(483.34,-12.196,cs),
(495.425,462.196,ls),
(499.242,626.464,o),
(419.157,720,o),
(274.451,720,cs),
(126.379,720,o),
(42.83,609.647,o),
(42.83,479.915,cs),
(42.83,333.549,o),
(139.392,233.647,o),
(304.026,177.745,c)
);
}
);
width = 600;
}
);
},
{
export = 0;
glyphname = A.half;
layers = (
{
layerId = "1A7FA7F6-774C-4A69-BC02-C84AF7C361B9";
shapes = (
{
closed = 1;
nodes = (
(14,0,l),
(94,0,l),
(207,245,l),
(213,245,l),
(326,0,l),
(406,0,l),
(249,319,l),
(171,319,l)
);
},
{
closed = 1;
nodes = (
(83,53,l),
(335,53,l),
(335,119,l),
(83,119,l)
);
}
);
width = 420;
},
{
layerId = "772FC93F-B3B8-447D-A30A-419E2FCA5167";
shapes = (
{
closed = 1;
nodes = (
(18,0,l),
(83,0,l),
(208,264,l),
(212,264,l),
(338,0,l),
(402,0,l),
(241,319,l),
(179,319,l)
);
},
{
closed = 1;
nodes = (
(83,56,l),
(335,56,l),
(335,111,l),
(83,111,l)
);
}
);
width = 420;
},
{
layerId = "ADDB71F6-EC09-4DA0-80DB-A822AEA2EE7D";
shapes = (
{
closed = 1;
nodes = (
(22,0,l),
(72,0,l),
(208,282,l),
(213,282,l),
(348,0,l),
(399,0,l),
(243,319,l),
(177,319,l)
);
},
{
closed = 1;
nodes = (
(83,65,l),
(335,65,l),
(335,109,l),
(83,109,l)
);
}
);
width = 421;
},
{
layerId = "D03DF296-8133-4A96-B1BA-CFDB09DF42C8";
shapes = (
{
closed = 1;
nodes = (
(18.732,0,l),
(80.987,0,l),
(208,267.294,l),
(212.183,267.294,l),
(339.83,0,l),
(401.451,0,l),
(241.366,319,l),
(178.634,319,l)
);
},
{
closed = 1;
nodes = (
(83,57.647,l),
(335,57.647,l),
(335,110.634,l),
(83,110.634,l)
);
}
);
width = 420.18301;
}
);
},
{
export = 0;
glyphname = B.half;
layers = (
{
layerId = "1A7FA7F6-774C-4A69-BC02-C84AF7C361B9";
shapes = (
{
closed = 1;
nodes = (
(126,0,l),
(267,0,ls),
(350,0,o),
(398,29,o),
(398,79,cs),
(398,127,o),
(348,154,o),
(261,154,cs),
(119,154,l),
(127,128,l),
(265,128,ls),
(299,128,o),
(318,118,o),
(318,99,cs),
(318,79,o),
(301,68,o),
(270,68,cs),
(126,68,l)
);
},
{
closed = 1;
nodes = (
(54,0,l),
(130,0,l),
(130,319,l),
(54,319,l)
);
},
{
closed = 1;
nodes = (
(99,142,l),
(258,142,l),
(258,176,l),
(99,176,l)
);
},
{
closed = 1;
nodes = (
(126,167,l),
(252,167,ls),
(326,167,o),
(369,193,o),
(369,239,cs),
(369,291,o),
(327,319,o),
(254,319,cs),
(119,319,l),
(127,252,l),
(250,252,ls),
(271,252,o),
(284,243,o),
(284,224,cs),
(284,204,o),
(273,194,o),
(255,194,cs),
(126,194,l)
);
}
);
width = 420;
},
{
layerId = "772FC93F-B3B8-447D-A30A-419E2FCA5167";
shapes = (
{
closed = 1;
nodes = (
(109,0,l),
(254,0,ls),
(348,0,o),
(394,27,o),
(394,81,cs),
(394,133,o),
(358,159,o),
(287,159,cs),
(101,159,l),
(110,136,l),
(253,136,ls),
(305,136,o),
(332,123,o),
(332,96,cs),
(332,68,o),
(305,54,o),
(252,54,cs),
(109,54,l)
);
},
{
closed = 1;
nodes = (
(58,0,l),
(119,0,l),
(119,319,l),
(58,319,l)
);
},
{
closed = 1;
nodes = (
(103,148,l),
(273,148,l),
(273,182,l),
(103,182,l)
);
},
{
closed = 1;
nodes = (
(109,170,l),
(278,170,ls),
(339,170,o),
(370,193,o),
(370,238,cs),
(370,293,o),
(328,319,o),
(244,319,cs),
(101,319,l),
(110,265,l),
(246,265,ls),
(287,265,o),
(307,254,o),
(307,229,cs),
(307,204,o),
(290,191,o),
(255,191,cs),
(109,191,l)
);
}
);
width = 420;
},
{
layerId = "ADDB71F6-EC09-4DA0-80DB-A822AEA2EE7D";
shapes = (
{
closed = 1;
nodes = (
(103,0,l),
(268,0,ls),
(347,0,o),
(392,31,o),
(392,85,cs),
(392,134,o),
(351,163,o),
(281,163,cs),
(96,163,l),
(104,141,l),
(269,141,ls),
(316,141,o),
(343,123,o),
(343,90,cs),
(343,61,o),
(313,44,o),
(260,44,cs),
(103,44,l)
);
},
{
closed = 1;
nodes = (
(61,0,l),
(108,0,l),
(108,319,l),
(61,319,l)
);
},
{
closed = 1;
nodes = (
(92,154,l),
(285,154,l),
(285,173,l),
(92,173,l)
);
},
{
closed = 1;
nodes = (
(103,165,l),
(266,165,ls),
(330,165,o),
(367,191,o),
(367,237,cs),
(367,290,o),
(326,319,o),
(254,319,cs),
(96,319,l),
(104,275,l),
(255,275,ls),
(295,275,o),
(318,260,o),
(318,232,cs),
(318,203,o),
(299,186,o),
(265,186,cs),
(103,186,l)
);
}
);
width = 420;
},
{
layerId = "D03DF296-8133-4A96-B1BA-CFDB09DF42C8";
shapes = (
{
closed = 1;
nodes = (
(107.902,0,l),
(256.562,0,ls),
(347.817,0,o),
(393.634,27.732,o),
(393.634,81.732,cs),
(393.634,133.183,o),
(356.719,159.732,o),
(285.902,159.732,cs),
(100.085,159.732,l),
(108.902,136.915,l),
(255.928,136.915,ls),
(307.013,136.915,o),
(334.013,123,o),
(334.013,94.902,cs),
(334.013,66.719,o),
(306.464,52.17,o),
(253.464,52.17,cs),
(107.902,52.17,l)
);
},
{
closed = 1;
nodes = (
(58.549,0,l),
(116.987,0,l),
(116.987,319,l),
(58.549,319,l)
);
},
{
closed = 1;
nodes = (
(100.987,149.098,l),
(275.196,149.098,l),
(275.196,180.353,l),
(100.987,180.353,l)
);
},
{
closed = 1;
nodes = (
(107.902,169.085,l),
(275.804,169.085,ls),
(337.353,169.085,o),
(369.451,192.634,o),
(369.451,237.817,cs),
(369.451,292.451,o),
(327.634,319,o),
(245.83,319,cs),
(100.085,319,l),
(108.902,266.83,l),
(247.647,266.83,ls),
(288.464,266.83,o),
(309.013,255.098,o),
(309.013,229.549,cs),
(309.013,203.817,o),
(291.647,190.085,o),
(256.83,190.085,cs),
(107.902,190.085,l)
);
}
);
width = 420;
}
);
},
{
export = 0;
glyphname = C.half;
layers = (
{
layerId = "1A7FA7F6-774C-4A69-BC02-C84AF7C361B9";
shapes = (
{
closed = 1;
nodes = (
(310,-4,o),
(353,0,o),
(394,11,c),
(378,75,l),
(345,67,o),
(310,63,o),
(278,63,cs),
(170,63,o),
(114,96,o),
(114,163,cs),
(114,222,o),
(171,256,o),
(258,256,cs),
(301,256,o),
(340,248,o),
(364,233,c),
(403,294,l),
(375,313,o),
(325,324,o),
(257,324,cs),
(114,324,o),
(33,264,o),
(33,160,cs),
(33,50,o),
(111,-4,o),
(265,-4,cs)
);
}
);
width = 420;
},
{
layerId = "772FC93F-B3B8-447D-A30A-419E2FCA5167";
shapes = (
{
closed = 1;
nodes = (
(304,-4,o),
(344,0,o),
(383,11,c),
(374,68,l),
(339,57,o),
(304,52,o),
(268,52,cs),
(154,52,o),
(95,89,o),
(95,163,cs),
(95,229,o),
(158,267,o),
(255,267,cs),
(301,267,o),
(344,260,o),
(371,247,c),
(397,295,l),
(367,313,o),
(319,324,o),
(254,324,cs),
(114,324,o),
(33,264,o),
(33,160,cs),
(33,50,o),
(110,-4,o),
(262,-4,cs)
);
}
);
width = 420;
},
{
layerId = "ADDB71F6-EC09-4DA0-80DB-A822AEA2EE7D";
shapes = (
{
closed = 1;
nodes = (
(306,-4,o),
(346,0,o),
(386,11,c),
(375,54,l),
(341,45,o),
(304,41,o),
(271,41,cs),
(148,41,o),
(86,81,o),
(86,163,cs),
(86,237,o),
(153,279,o),
(256,279,cs),
(302,279,o),
(345,269,o),
(371,252,c),
(395,294,l),
(368,313,o),
(321,324,o),
(255,324,cs),
(116,324,o),
(37,264,o),
(37,160,cs),
(37,50,o),
(113,-4,o),
(263,-4,cs)
);
}
);
width = 420;
},
{
layerId = "D03DF296-8133-4A96-B1BA-CFDB09DF42C8";
shapes = (
{
closed = 1;
nodes = (
(304.366,-4,o),
(344.366,0,o),
(383.549,11,c),
(374.183,65.438,l),
(339.366,54.804,o),
(304,49.987,o),
(268.549,49.987,cs),
(152.902,49.987,o),
(93.353,87.536,o),
(93.353,163,cs),
(93.353,230.464,o),
(157.085,269.196,o),
(255.183,269.196,cs),
(301.183,269.196,o),
(344.183,261.647,o),
(371,247.915,c),
(396.634,294.817,l),
(367.183,313,o),
(319.366,324,o),
(254.183,324,cs),
(114.366,324,o),
(33.732,264,o),
(33.732,160,cs),
(33.732,50,o),
(110.549,-4,o),
(262.183,-4,cs)
);
}
);
width = 420;
}
);
},
{
export = 0;
glyphname = D.half;
layers = (
{
layerId = "1A7FA7F6-774C-4A69-BC02-C84AF7C361B9";
shapes = (
{
closed = 1;
nodes = (
(126,0,l),
(226,0,ls),
(345,0,o),
(406,51,o),
(406,156,cs),
(406,265,o),
(345,319,o),
(226,319,cs),
(119,319,l),
(127,252,l),
(226,252,ls),
(292,252,o),
(326,220,o),
(326,156,cs),
(326,97,o),
(292,68,o),
(226,68,cs),
(126,68,l)
);
},
{
closed = 1;
nodes = (
(54,0,l),
(130,0,l),
(130,319,l),
(54,319,l)
);
}
);
width = 420;
},
{
layerId = "772FC93F-B3B8-447D-A30A-419E2FCA5167";
shapes = (
{
closed = 1;
nodes = (
(114,0,l),
(206,0,ls),
(337,0,o),
(401,51,o),
(401,156,cs),
(401,265,o),
(337,319,o),
(206,319,cs),
(106,319,l),
(115,262,l),
(206,262,ls),
(295,262,o),
(339,226,o),
(339,156,cs),
(339,90,o),
(295,57,o),
(206,57,cs),
(114,57,l)
);
},
{
closed = 1;
nodes = (
(58,0,l),
(119,0,l),
(119,319,l),
(58,319,l)
);
}
);
width = 420;
},
{
layerId = "ADDB71F6-EC09-4DA0-80DB-A822AEA2EE7D";
shapes = (
{
closed = 1;
nodes = (
(103,0,l),
(202,0,ls),
(327,0,o),
(399,56,o),
(399,156,cs),
(399,260,o),
(327,319,o),
(202,319,cs),
(96,319,l),
(104,275,l),
(202,275,ls),
(296,275,o),
(350,232,o),
(350,156,cs),
(350,85,o),
(296,44,o),
(202,44,cs),
(103,44,l)
);
},
{
closed = 1;
nodes = (
(61,0,l),
(108,0,l),
(108,319,l),
(61,319,l)
);
}
);
width = 420;
},
{
layerId = "D03DF296-8133-4A96-B1BA-CFDB09DF42C8";
shapes = (
{
closed = 1;
nodes = (
(111.987,0,l),
(205.268,0,ls),
(335.17,0,o),
(400.634,51.915,o),
(400.634,156,cs),
(400.634,264.085,o),
(335.17,319,o),
(205.268,319,cs),
(104.17,319,l),
(112.987,264.379,l),
(205.268,264.379,ls),
(295.183,264.379,o),
(341.013,227.098,o),
(341.013,156,cs),
(341.013,89.085,o),
(295.183,54.621,o),
(205.268,54.621,cs),
(111.987,54.621,l)
);
},
{
closed = 1;
nodes = (
(58.549,0,l),
(116.987,0,l),
(116.987,319,l),
(58.549,319,l)
);
}
);
width = 420;
}
);
},
{
export = 0;
glyphname = E.half;
layers = (
{
layerId = "1A7FA7F6-774C-4A69-BC02-C84AF7C361B9";
shapes = (
{
closed = 1;
nodes = (
(54,0,l),
(130,0,l),
(130,319,l),
(54,319,l)
);
},
{
closed = 1;
nodes = (
(54,0,l),
(386,0,l),
(386,68,l),
(54,68,l)
);
},
{
closed = 1;
nodes = (
(54,131,l),
(323,131,l),
(323,189,l),
(54,189,l)
);
},
{
closed = 1;
nodes = (
(54,252,l),
(386,252,l),
(386,319,l),
(54,319,l)
);
}
);
width = 420;
},
{
layerId = "772FC93F-B3B8-447D-A30A-419E2FCA5167";
shapes = (
{
closed = 1;
nodes = (
(58,0,l),
(119,0,l),
(119,319,l),
(58,319,l)
);
},
{
closed = 1;
nodes = (
(58,0,l),
(383,0,l),
(383,54,l),
(58,54,l)
);
},
{
closed = 1;
nodes = (
(58,134,l),
(319,134,l),
(319,185,l),
(58,185,l)
);
},
{
closed = 1;
nodes = (
(58,265,l),
(383,265,l),
(383,319,l),
(58,319,l)
);
}
);
width = 420;
},
{
layerId = "ADDB71F6-EC09-4DA0-80DB-A822AEA2EE7D";
shapes = (
{
closed = 1;
nodes = (
(61,0,l),
(108,0,l),
(108,319,l),
(61,319,l)
);
},
{
closed = 1;
nodes = (
(61,0,l),
(380,0,l),
(380,44,l),
(61,44,l)
);
},
{
closed = 1;
nodes = (
(61,138,l),
(317,138,l),
(317,182,l),
(61,182,l)
);
},
{
closed = 1;
nodes = (
(61,275,l),
(380,275,l),
(380,319,l),
(61,319,l)
);
}
);
width = 420;
},
{
layerId = "D03DF296-8133-4A96-B1BA-CFDB09DF42C8";
shapes = (
{
closed = 1;
nodes = (
(58.549,0,l),
(116.987,0,l),
(116.987,319,l),
(58.549,319,l)
);
},
{
closed = 1;
nodes = (
(58.549,0,l),
(382.451,0,l),
(382.451,52.17,l),
(58.549,52.17,l)
);
},
{
closed = 1;
nodes = (
(58.549,134.732,l),
(318.634,134.732,l),
(318.634,184.451,l),
(58.549,184.451,l)
);
},
{
closed = 1;
nodes = (
(58.549,266.83,l),
(382.451,266.83,l),
(382.451,319,l),
(58.549,319,l)
);
}
);
width = 420;
}
);
},
{
export = 0;
glyphname = F.half;
layers = (
{
layerId = "1A7FA7F6-774C-4A69-BC02-C84AF7C361B9";
shapes = (
{
closed = 1;
nodes = (
(54,0,l),
(130,0,l),
(130,319,l),
(54,319,l)
);
},
{
closed = 1;
nodes = (
(54,112,l),
(322,112,l),
(322,179,l),
(54,179,l)
);
},
{
closed = 1;
nodes = (
(54,252,l),
(386,252,l),
(386,319,l),
(54,319,l)
);
}
);
width = 420;
},
{
layerId = "772FC93F-B3B8-447D-A30A-419E2FCA5167";
shapes = (
{
closed = 1;
nodes = (
(58,0,l),
(119,0,l),
(119,319,l),
(58,319,l)
);
},
{
closed = 1;
nodes = (
(58,117,l),
(327,117,l),
(327,171,l),
(58,171,l)
);
},
{
closed = 1;
nodes = (
(58,265,l),
(383,265,l),
(383,319,l),
(58,319,l)
);
}
);
width = 420;
},
{
layerId = "ADDB71F6-EC09-4DA0-80DB-A822AEA2EE7D";
shapes = (
{
closed = 1;
nodes = (
(61,0,l),
(108,0,l),
(108,319,l),
(61,319,l)
);
},
{
closed = 1;
nodes = (
(61,122,l),
(326,122,l),
(326,166,l),
(61,166,l)
);
},
{
closed = 1;
nodes = (
(61,275,l),
(380,275,l),
(380,319,l),
(61,319,l)
);
}
);
width = 420;
},
{
layerId = "D03DF296-8133-4A96-B1BA-CFDB09DF42C8";
shapes = (
{
closed = 1;
nodes = (
(58.549,0,l),
(116.987,0,l),
(116.987,319,l),
(58.549,319,l)
);
},
{
closed = 1;
nodes = (
(58.549,117.915,l),
(326.817,117.915,l),
(326.817,170.085,l),
(58.549,170.085,l)
);
},
{
closed = 1;
nodes = (
(58.549,266.83,l),
(382.451,266.83,l),
(382.451,319,l),
(58.549,319,l)
);
}
);
width = 420;
}
);
},
{
export = 0;
glyphname = G.half;
layers = (
{
layerId = "1A7FA7F6-774C-4A69-BC02-C84AF7C361B9";
shapes = (
{
closed = 1;
nodes = (
(321,-4,o),
(374,5,o),
(393,9,c),
(365,72,l),
(342,68,o),
(308,60,o),
(265,60,cs),
(164,59,o),
(114,89,o),
(114,163,cs),
(114,222,o),
(167,256,o),
(258,256,cs),
(302,256,o),
(343,250,o),
(369,239,c),
(404,294,l),
(381,312,o),
(328,324,o),
(254,324,cs),
(114,324,o),
(33,264,o),
(33,160,cs),
(33,46,o),
(106,-4,o),
(256,-4,cs)
);
},
{
closed = 1;
nodes = (
(322,9,l),
(393,9,l),
(393,174,l),
(322,174,l)
);
},
{
closed = 1;
nodes = (
(224,116,l),
(391,116,l),
(391,174,l),
(224,174,l)
);
}
);
width = 420;
},
{
layerId = "772FC93F-B3B8-447D-A30A-419E2FCA5167";
shapes = (
{
closed = 1;
nodes = (
(315,-4,o),
(367,5,o),
(387,9,c),
(360,61,l),
(338,57,o),
(304,50,o),
(262,50,cs),
(156,50,o),
(95,90,o),
(95,163,cs),
(95,229,o),
(153,267,o),
(255,267,cs),
(302,267,o),
(344,259,o),
(370,246,c),
(398,295,l),
(372,313,o),
(317,324,o),
(251,324,cs),
(113,324,o),
(33,264,o),
(33,160,cs),
(33,54,o),
(113,-4,o),
(254,-4,cs)
);
},
{
closed = 1;
nodes = (
(325,9,l),
(387,9,l),
(387,165,l),
(325,165,l)
);
},
{
closed = 1;
nodes = (
(221,114,l),
(385,114,l),
(385,165,l),
(221,165,l)
);
}
);
width = 421;
},
{
layerId = "ADDB71F6-EC09-4DA0-80DB-A822AEA2EE7D";
shapes = (
{
closed = 1;
nodes = (
(315,-4,o),
(366,5,o),
(385,9,c),
(362,50,l),
(341,46,o),
(306,39,o),
(262,39,cs),
(148,39,o),
(86,81,o),
(86,163,cs),
(86,237,o),
(148,279,o),
(256,279,cs),
(302,279,o),
(343,268,o),
(371,252,c),
(394,293,l),
(364,312,o),
(317,324,o),
(252,324,cs),
(115,324,o),
(37,264,o),
(37,160,cs),
(37,51,o),
(113,-4,o),
(254,-4,cs)
);
},
{
closed = 1;
nodes = (
(339,9,l),
(385,9,l),
(385,161,l),
(339,161,l)
);
},
{
closed = 1;
nodes = (
(222,119,l),
(383,119,l),
(383,161,l),
(222,161,l)
);
}
);
width = 420;
},
{
layerId = "D03DF296-8133-4A96-B1BA-CFDB09DF42C8";
shapes = (
{
closed = 1;
nodes = (
(315,-4,o),
(366.817,5,o),
(386.634,9,c),
(360.366,58.987,l),
(338.549,54.987,o),
(304.366,47.987,o),
(262,47.987,cs),
(154.536,47.987,o),
(93.353,88.353,o),
(93.353,163,cs),
(93.353,230.464,o),
(152.085,269.196,o),
(255.183,269.196,cs),
(302,269.196,o),
(343.817,260.647,o),
(370.183,247.098,c),
(397.268,294.634,l),
(370.536,312.817,o),
(317,324,o),
(251.183,324,cs),
(113.366,324,o),
(33.732,264,o),
(33.732,160,cs),
(33.732,53.451,o),
(113,-4,o),
(254,-4,cs)
);
},
{
closed = 1;
nodes = (
(327.562,9,l),
(386.634,9,l),
(386.634,164.268,l),
(327.562,164.268,l)
);
},
{
closed = 1;
nodes = (
(221.183,114.915,l),
(384.634,114.915,l),
(384.634,164.268,l),
(221.183,164.268,l)
);
}
);
width = 420.81699;
}
);
},
{
export = 0;
glyphname = H.half;
layers = (
{
layerId = "1A7FA7F6-774C-4A69-BC02-C84AF7C361B9";
shapes = (
{
closed = 1;
nodes = (
(297,0,l),
(372,0,l),
(372,319,l),
(297,319,l)
);
},
{
closed = 1;
nodes = (
(47,0,l),
(123,0,l),
(123,319,l),
(47,319,l)
);
},
{
closed = 1;
nodes = (
(62,126,l),
(359,126,l),
(359,193,l),
(62,193,l)
);
}
);
width = 420;
},
{
layerId = "772FC93F-B3B8-447D-A30A-419E2FCA5167";
shapes = (
{
closed = 1;
nodes = (
(308,0,l),
(369,0,l),
(369,319,l),
(308,319,l)
);
},
{
closed = 1;
nodes = (
(51,0,l),
(112,0,l),
(112,319,l),
(51,319,l)
);
},
{
closed = 1;
nodes = (
(66,132,l),
(355,132,l),
(355,186,l),
(66,186,l)
);
}
);
width = 420;
},
{
layerId = "ADDB71F6-EC09-4DA0-80DB-A822AEA2EE7D";
shapes = (
{
closed = 1;
nodes = (
(319,0,l),
(366,0,l),
(366,319,l),
(319,319,l)
);
},
{
closed = 1;
nodes = (
(54,0,l),
(101,0,l),
(101,319,l),
(54,319,l)
);
},
{
closed = 1;
nodes = (
(69,137,l),
(353,137,l),
(353,181,l),
(69,181,l)
);
}
);
width = 420;
},
{
layerId = "D03DF296-8133-4A96-B1BA-CFDB09DF42C8";
shapes = (
{
closed = 1;
nodes = (
(310.013,0,l),
(368.451,0,l),
(368.451,319,l),
(310.013,319,l)
);
},
{
closed = 1;
nodes = (
(51.549,0,l),
(109.987,0,l),
(109.987,319,l),
(51.549,319,l)
);
},
{
closed = 1;
nodes = (
(66.549,132.915,l),
(354.634,132.915,l),
(354.634,185.085,l),
(66.549,185.085,l)
);
}
);
width = 420;
}
);
},
{
export = 0;
glyphname = I.half;
layers = (
{
layerId = "1A7FA7F6-774C-4A69-BC02-C84AF7C361B9";
shapes = (
{
closed = 1;
nodes = (
(172,0,l),
(248,0,l),
(248,319,l),
(172,319,l)
);
},
{
closed = 1;
nodes = (
(57,0,l),
(362,0,l),
(362,68,l),
(57,68,l)
);
},
{
closed = 1;
nodes = (
(57,253,l),
(362,253,l),
(362,319,l),
(57,319,l)
);
}
);
width = 420;
},
{
layerId = "772FC93F-B3B8-447D-A30A-419E2FCA5167";
shapes = (
{
closed = 1;
nodes = (
(179,0,l),
(240,0,l),
(240,319,l),
(179,319,l)
);
},
{
closed = 1;
nodes = (
(61,0,l),
(359,0,l),
(359,52,l),
(61,52,l)
);
},
{
closed = 1;
nodes = (
(61,267,l),
(359,267,l),
(359,319,l),
(61,319,l)
);
}
);
width = 420;
},
{
layerId = "ADDB71F6-EC09-4DA0-80DB-A822AEA2EE7D";
shapes = (
{
closed = 1;
nodes = (
(186,0,l),
(233,0,l),
(233,319,l),
(186,319,l)
);
},
{
closed = 1;
nodes = (
(65,0,l),
(356,0,l),
(356,44,l),
(65,44,l)
);
},
{
closed = 1;
nodes = (
(65,275,l),
(356,275,l),
(356,319,l),
(65,319,l)
);
}
);
width = 421;
},
{
layerId = "D03DF296-8133-4A96-B1BA-CFDB09DF42C8";
shapes = (
{
closed = 1;
nodes = (
(180.281,0,l),
(238.719,0,l),
(238.719,319,l),
(180.281,319,l)
);
},
{
closed = 1;
nodes = (
(61.732,0,l),
(358.451,0,l),
(358.451,50.536,l),
(61.732,50.536,l)
);
},
{
closed = 1;
nodes = (
(61.732,268.464,l),
(358.451,268.464,l),
(358.451,319,l),
(61.732,319,l)
);
}
);
width = 420.18301;
}
);
},
{
export = 0;
glyphname = K.half;
layers = (
{
layerId = "1A7FA7F6-774C-4A69-BC02-C84AF7C361B9";
shapes = (
{
closed = 1;
nodes = (
(101,84,l),
(283,84,o),
(387,218,o),
(387,319,c),
(309,319,l),
(309,258,o),
(249,153,o),
(108,153,c)
);
},
{
closed = 1;
nodes = (
(54,0,l),
(130,0,l),
(130,319,l),
(54,319,l)
);
},
{
closed = 1;
nodes = (
(319,0,l),
(412,0,l),
(284,194,l),
(215,162,l)
);
}
);
width = 420;
},
{
layerId = "772FC93F-B3B8-447D-A30A-419E2FCA5167";
shapes = (
{
closed = 1;
nodes = (
(87,94,l),
(276,94,o),
(384,182,o),
(384,319,c),
(323,319,l),
(323,213,o),
(241,150,o),
(94,150,c)
);
},
{
closed = 1;
nodes = (
(58,0,l),
(119,0,l),
(119,319,l),
(58,319,l)
);
},
{
closed = 1;
nodes = (
(337,0,l),
(408,0,l),
(299,172,l),
(242,157,l)
);
}
);
width = 420;
},
{
layerId = "ADDB71F6-EC09-4DA0-80DB-A822AEA2EE7D";
shapes = (
{
closed = 1;
nodes = (
(92,103,l),
(276,103,o),
(382,182,o),
(382,319,c),
(333,319,l),
(333,210,o),
(248,146,o),
(98,146,c)
);
},
{
closed = 1;
nodes = (
(61,0,l),
(108,0,l),
(108,319,l),
(61,319,l)
);
},
{
closed = 1;
nodes = (
(348,0,l),
(406,0,l),
(271,175,l),
(229,154,l)
);
}
);
width = 420;
},
{
layerId = "D03DF296-8133-4A96-B1BA-CFDB09DF42C8";
shapes = (
{
closed = 1;
nodes = (
(87.915,95.647,l),
(276,95.647,o),
(383.634,182,o),
(383.634,319,c),
(324.83,319,l),
(324.83,212.451,o),
(242.281,149.268,o),
(94.732,149.268,c)
);
},
{
closed = 1;
nodes = (
(58.549,0,l),
(116.987,0,l),
(116.987,319,l),
(58.549,319,l)
);
},
{
closed = 1;
nodes = (
(339.013,0,l),
(407.634,0,l),
(293.876,172.549,l),
(239.621,156.451,l)
);
}
);
width = 420;
}
);
},
{
export = 0;
glyphname = L.half;
layers = (
{
layerId = "1A7FA7F6-774C-4A69-BC02-C84AF7C361B9";
shapes = (
{
closed = 1;
nodes = (
(54,0,l),
(130,0,l),
(130,319,l),
(54,319,l)
);
},
{
closed = 1;
nodes = (
(54,0,l),
(386,0,l),
(386,68,l),
(54,68,l)
);
}
);
width = 420;
},
{
layerId = "772FC93F-B3B8-447D-A30A-419E2FCA5167";
shapes = (
{
closed = 1;
nodes = (
(58,0,l),
(119,0,l),
(119,319,l),
(58,319,l)
);
},
{
closed = 1;
nodes = (
(58,0,l),
(383,0,l),
(383,54,l),
(58,54,l)
);
}
);
width = 420;
},
{
layerId = "ADDB71F6-EC09-4DA0-80DB-A822AEA2EE7D";
shapes = (
{
closed = 1;
nodes = (
(61,0,l),
(108,0,l),
(108,319,l),
(61,319,l)
);
},
{
closed = 1;
nodes = (
(61,0,l),
(380,0,l),
(380,45,l),
(61,45,l)
);
}
);
width = 420;
},
{
layerId = "D03DF296-8133-4A96-B1BA-CFDB09DF42C8";
shapes = (
{
closed = 1;
nodes = (
(58.549,0,l),
(116.987,0,l),
(116.987,319,l),
(58.549,319,l)
);
},
{
closed = 1;
nodes = (
(58.549,0,l),
(382.451,0,l),
(382.451,52.353,l),
(58.549,52.353,l)
);
}
);
width = 420;
}
);
},
{
export = 0;
glyphname = M.half;
layers = (
{
layerId = "1A7FA7F6-774C-4A69-BC02-C84AF7C361B9";
shapes = (
{
closed = 1;
nodes = (
(198,81,l),
(244,81,l),
(295,250,l),
(315,250,l),
(315,319,l),
(263,319,l),
(213,144,l),
(209,144,l)
);
},
{
closed = 1;
nodes = (
(43,0,l),
(116,0,l),
(116,319,l),
(43,319,l)
);
},
{
closed = 1;
nodes = (
(176,81,l),
(217,81,l),
(210,144,l),
(207,144,l),
(157,319,l),
(104,319,l),
(104,250,l),
(126,250,l)
);
},
{
closed = 1;
nodes = (
(304,0,l),
(377,0,l),
(377,319,l),
(304,319,l)
);
}
);
width = 420;
},
{
layerId = "772FC93F-B3B8-447D-A30A-419E2FCA5167";
shapes = (
{
closed = 1;
nodes = (
(205,85,l),
(241,85,l),
(310,256,l),
(327,256,l),
(322,319,l),
(280,319,l),
(211,142,l),
(210,142,l)
);
},
{
closed = 1;
nodes = (
(47,0,l),
(104,0,l),
(104,319,l),
(47,319,l)
);
},
{
closed = 1;
nodes = (
(179,85,l),
(217,85,l),
(211,142,l),
(209,142,l),
(140,319,l),
(103,319,l),
(98,256,l),
(110,256,l)
);
},
{
closed = 1;
nodes = (
(315,0,l),
(373,0,l),
(373,319,l),
(315,319,l)
);
}
);
width = 420;
},
{
layerId = "ADDB71F6-EC09-4DA0-80DB-A822AEA2EE7D";
shapes = (
{
closed = 1;
nodes = (
(203,103,l),
(234,103,l),
(318,263,l),
(336,263,l),
(336,319,l),
(296,319,l),
(212,155,l),
(210,155,l)
);
},
{
closed = 1;
nodes = (
(50,0,l),
(96,0,l),
(96,319,l),
(50,319,l)
);
},
{
closed = 1;
nodes = (
(185,103,l),
(216,103,l),
(211,155,l),
(209,155,l),
(125,319,l),
(88,319,l),
(88,263,l),
(101,263,l)
);
},
{
closed = 1;
nodes = (
(325,0,l),
(371,0,l),
(371,319,l),
(325,319,l)
);
}
);
width = 421;
},
{
layerId = "D03DF296-8133-4A96-B1BA-CFDB09DF42C8";
shapes = (
{
closed = 1;
nodes = (
(204.634,88.294,l),
(239.719,88.294,l),
(311.464,257.281,l),
(328.647,257.281,l),
(324.562,319,l),
(282.928,319,l),
(211.183,144.379,l),
(210,144.379,l)
);
},
{
closed = 1;
nodes = (
(47.549,0,l),
(102.536,0,l),
(102.536,319,l),
(47.549,319,l)
);
},
{
closed = 1;
nodes = (
(180.098,88.294,l),
(216.817,88.294,l),
(211,144.379,l),
(209,144.379,l),
(137.255,319,l),
(100.255,319,l),
(96.17,257.281,l),
(108.353,257.281,l)
);
},
{
closed = 1;
nodes = (
(316.83,0,l),
(372.634,0,l),
(372.634,319,l),
(316.83,319,l)
);
}
);
width = 420.18301;
}
);
},
{
export = 0;
glyphname = N.half;
layers = (
{
layerId = "1A7FA7F6-774C-4A69-BC02-C84AF7C361B9";
shapes = (
{
closed = 1;
nodes = (
(273,0,l),
(307,0,l),
(307,96,l),
(279,96,l),
(147,319,l),
(97,319,l),
(97,223,l),
(141,223,l)
);
},
{
closed = 1;
nodes = (
(50,0,l),
(123,0,l),
(123,319,l),
(50,319,l)
);
},
{
closed = 1;
nodes = (
(297,0,l),
(370,0,l),
(370,319,l),
(297,319,l)
);
}
);
width = 420;
},
{
layerId = "772FC93F-B3B8-447D-A30A-419E2FCA5167";
shapes = (
{
closed = 1;
nodes = (
(271,0,l),
(318,0,l),
(318,62,l),
(298,62,l),
(150,319,l),
(96,319,l),
(96,257,l),
(122,257,l)
);
},
{
closed = 1;
nodes = (
(54,0,l),
(114,0,l),
(114,319,l),
(54,319,l)
);
},
{
closed = 1;
nodes = (
(306,0,l),
(366,0,l),
(366,319,l),
(306,319,l)
);
}
);
width = 420;
},
{
layerId = "ADDB71F6-EC09-4DA0-80DB-A822AEA2EE7D";
shapes = (
{
closed = 1;
nodes = (
(297,0,l),
(329,0,l),
(329,55,l),
(313,55,l),
(124,319,l),
(83,319,l),
(83,264,l),
(108,264,l)
);
},
{
closed = 1;
nodes = (
(57,0,l),
(103,0,l),
(103,319,l),
(57,319,l)
);
},
{
closed = 1;
nodes = (
(317,0,l),
(364,0,l),
(364,319,l),
(317,319,l)
);
}
);
width = 421;
},
{
layerId = "D03DF296-8133-4A96-B1BA-CFDB09DF42C8";
shapes = (
{
closed = 1;
nodes = (
(275.758,0,l),
(320.013,0,l),
(320.013,60.719,l),
(300.745,60.719,l),
(145.242,319,l),
(93.621,319,l),
(93.621,258.281,l),
(119.438,258.281,l)
);
},
{
closed = 1;
nodes = (
(54.549,0,l),
(111.987,0,l),
(111.987,319,l),
(54.549,319,l)
);
},
{
closed = 1;
nodes = (
(308.013,0,l),
(365.634,0,l),
(365.634,319,l),
(308.013,319,l)
);
}
);
width = 420.18301;
}
);
},
{
export = 0;
glyphname = O.half;
layers = (
{
layerId = "1A7FA7F6-774C-4A69-BC02-C84AF7C361B9";
shapes = (
{
closed = 1;
nodes = (
(333,-4,o),
(395,49,o),
(395,158,cs),
(395,268,o),
(333,324,o),
(210,324,cs),
(87,324,o),
(26,268,o),
(26,158,cs),
(26,49,o),
(88,-4,o),
(210,-4,cs)
);
},
{
closed = 1;
nodes = (
(140,65,o),
(105,95,o),
(105,158,cs),
(105,223,o),
(140,256,o),
(210,256,cs),
(280,256,o),
(315,223,o),
(315,158,cs),
(315,95,o),
(280,65,o),
(210,65,cs)
);
}
);
width = 421;
},
{
layerId = "772FC93F-B3B8-447D-A30A-419E2FCA5167";
shapes = (
{
closed = 1;
nodes = (
(330,-4,o),
(391,49,o),
(391,158,cs),
(391,268,o),
(331,324,o),
(210,324,cs),
(90,324,o),
(29,268,o),
(29,158,cs),
(29,49,o),
(90,-4,o),
(210,-4,cs)
);
},
{
closed = 1;
nodes = (
(131,48,o),
(91,85,o),
(91,158,cs),
(91,232,o),
(131,270,o),
(210,270,cs),
(289,270,o),
(329,232,o),
(329,158,cs),
(329,85,o),
(289,48,o),
(210,48,cs)
);
}
);
width = 421;
},
{
layerId = "ADDB71F6-EC09-4DA0-80DB-A822AEA2EE7D";
shapes = (
{
closed = 1;
nodes = (
(328,-4,o),
(388,49,o),
(388,158,cs),
(388,268,o),
(329,324,o),
(210,324,cs),
(91,324,o),
(32,268,o),
(32,158,cs),
(32,49,o),
(91,-4,o),
(210,-4,cs)
);
},
{
closed = 1;
nodes = (
(124,39,o),
(81,78,o),
(81,158,cs),
(81,240,o),
(124,281,o),
(210,281,cs),
(296,281,o),
(340,240,o),
(340,158,cs),
(340,78,o),
(296,39,o),
(210,39,cs)
);
}
);
width = 420;
},
{
layerId = "D03DF296-8133-4A96-B1BA-CFDB09DF42C8";
shapes = (
{
closed = 1;
nodes = (
(329.634,-4,o),
(390.451,49,o),
(390.451,158,cs),
(390.451,268,o),
(330.634,324,o),
(210,324,cs),
(90.183,324,o),
(29.549,268,o),
(29.549,158,cs),
(29.549,49,o),
(90.183,-4,o),
(210,-4,cs)
);
},
{
closed = 1;
nodes = (
(129.719,46.353,o),
(89.17,83.719,o),
(89.17,158,cs),
(89.17,233.464,o),
(129.719,272.013,o),
(210,272.013,cs),
(290.281,272.013,o),
(331.013,233.464,o),
(331.013,158,cs),
(331.013,83.719,o),
(290.281,46.353,o),
(210,46.353,cs)
);
}
);
width = 420.81699;
}
);
},
{
export = 0;
glyphname = P.half;
layers = (
{
layerId = "1A7FA7F6-774C-4A69-BC02-C84AF7C361B9";
shapes = (
{
closed = 1;
nodes = (
(122,87,l),
(252,87,ls),
(346,87,o),
(393,126,o),
(393,204,cs),
(393,281,o),
(346,319,o),
(252,319,cs),
(123,319,l),
(123,252,l),
(252,252,ls),
(293,252,o),
(313,236,o),
(313,204,cs),
(313,171,o),
(293,155,o),
(252,155,cs),
(122,155,l)
);
},
{
closed = 1;
nodes = (
(54,0,l),
(130,0,l),
(130,319,l),
(54,319,l)
);
}
);
width = 420;
},
{
layerId = "772FC93F-B3B8-447D-A30A-419E2FCA5167";
shapes = (
{
closed = 1;
nodes = (
(110,93,l),
(243,93,ls),
(341,93,o),
(389,133,o),
(389,213,cs),
(389,285,o),
(341,319,o),
(243,319,cs),
(112,319,l),
(112,265,l),
(243,265,ls),
(298,265,o),
(325,246,o),
(325,208,cs),
(325,168,o),
(298,147,o),
(243,147,cs),
(110,147,l)
);
},
{
closed = 1;
nodes = (
(58,0,l),
(119,0,l),
(119,319,l),
(58,319,l)
);
}
);
width = 420;
},
{
layerId = "ADDB71F6-EC09-4DA0-80DB-A822AEA2EE7D";
shapes = (
{
closed = 1;
nodes = (
(99,100,l),
(242,100,ls),
(339,100,o),
(387,137,o),
(387,210,cs),
(387,283,o),
(339,319,o),
(242,319,cs),
(101,319,l),
(101,275,l),
(242,275,ls),
(306,275,o),
(338,254,o),
(338,210,cs),
(338,167,o),
(306,145,o),
(242,145,cs),
(99,145,l)
);
},
{
closed = 1;
nodes = (
(61,0,l),
(108,0,l),
(108,319,l),
(61,319,l)
);
}
);
width = 420;
},
{
layerId = "D03DF296-8133-4A96-B1BA-CFDB09DF42C8";
shapes = (
{
closed = 1;
nodes = (
(107.987,94.281,l),
(242.817,94.281,ls),
(340.634,94.281,o),
(388.634,133.732,o),
(388.634,212.451,cs),
(388.634,284.634,o),
(340.634,319,o),
(242.817,319,cs),
(109.987,319,l),
(109.987,266.83,l),
(242.817,266.83,ls),
(299.464,266.83,o),
(327.379,247.464,o),
(327.379,208.366,cs),
(327.379,167.817,o),
(299.464,146.634,o),
(242.817,146.634,cs),
(107.987,146.634,l)
);
},
{
closed = 1;
nodes = (
(58.549,0,l),
(116.987,0,l),
(116.987,319,l),
(58.549,319,l)
);
}
);
width = 420;
}
);
},
{
export = 0;
glyphname = Q.half;
layers = (
{
layerId = "1A7FA7F6-774C-4A69-BC02-C84AF7C361B9";
shapes = (
{
closed = 1;
nodes = (
(355,-87,l),
(250,18,l),
(164,18,l),
(249,-87,l)
);
},
{
ref = O.half;
}
);
width = 421;
},
{
layerId = "772FC93F-B3B8-447D-A30A-419E2FCA5167";
shapes = (
{
closed = 1;
nodes = (
(347,-87,l),
(242,18,l),
(172,18,l),
(257,-87,l)
);
},
{
ref = O.half;
}
);
width = 421;
},
{
layerId = "ADDB71F6-EC09-4DA0-80DB-A822AEA2EE7D";
shapes = (
{
closed = 1;
nodes = (
(336,-87,l),
(234,18,l),
(180,18,l),
(269,-87,l)
);
},
{
ref = O.half;
}
);
width = 420;
},
{
layerId = "D03DF296-8133-4A96-B1BA-CFDB09DF42C8";
shapes = (
{
closed = 1;
nodes = (
(344.987,-87,l),
(240.536,18,l),
(173.464,18,l),
(259.196,-87,l)
);
},
{
alignment = -1;
ref = O.half;
}
);
width = 420.81699;
}
);
},
{
export = 0;
glyphname = R.half;
layers = (
{
layerId = "1A7FA7F6-774C-4A69-BC02-C84AF7C361B9";
shapes = (
{
closed = 1;
nodes = (
(119,100,l),
(258,100,ls),
(338,100,o),
(383,142,o),
(383,213,cs),
(383,281,o),
(338,319,o),
(258,319,cs),
(112,319,l),
(120,252,l),
(258,252,ls),
(287,252,o),
(303,237,o),
(303,209,cs),
(303,183,o),
(287,168,o),
(258,168,cs),
(119,168,l)
);
},
{
closed = 1;
nodes = (
(47,0,l),
(123,0,l),
(123,319,l),
(47,319,l)
);
},
{
closed = 1;
nodes = (
(310,0,l),
(401,0,l),
(284,151,l),
(202,151,l)
);
}
);
width = 420;
},
{
layerId = "772FC93F-B3B8-447D-A30A-419E2FCA5167";
shapes = (
{
closed = 1;
nodes = (
(106,121,l),
(262,121,ls),
(333,121,o),
(379,163,o),
(379,226,cs),
(379,283,o),
(333,319,o),
(262,319,cs),
(99,319,l),
(108,265,l),
(262,265,ls),
(294,265,o),
(314,248,o),
(314,221,cs),
(314,194,o),
(294,175,o),
(262,175,cs),
(106,175,l)
);
},
{
closed = 1;
nodes = (
(51,0,l),
(112,0,l),
(112,319,l),
(51,319,l)
);
},
{
closed = 1;
nodes = (
(326,0,l),
(397,0,l),
(287,151,l),
(223,151,l)
);
}
);
width = 420;
},
{
layerId = "ADDB71F6-EC09-4DA0-80DB-A822AEA2EE7D";
shapes = (
{
closed = 1;
nodes = (
(96,124,l),
(258,124,ls),
(334,124,o),
(377,160,o),
(377,223,cs),
(377,285,o),
(334,319,o),
(258,319,cs),
(89,319,l),
(97,275,l),
(258,275,ls),
(302,275,o),
(328,255,o),
(328,219,cs),
(328,186,o),
(302,168,o),
(258,168,cs),
(96,168,l)
);
},
{
closed = 1;
nodes = (
(54,0,l),
(101,0,l),
(101,319,l),
(54,319,l)
);
},
{
closed = 1;
nodes = (
(338,0,l),
(394,0,l),
(273,151,l),
(221,151,l)
);
}
);
width = 420;
},
{
layerId = "D03DF296-8133-4A96-B1BA-CFDB09DF42C8";
shapes = (
{
closed = 1;
nodes = (
(104.17,121.549,l),
(261.268,121.549,ls),
(333.183,121.549,o),
(378.634,162.451,o),
(378.634,225.451,cs),
(378.634,283.366,o),
(333.183,319,o),
(261.268,319,cs),
(97.17,319,l),
(105.987,266.83,l),
(261.268,266.83,ls),
(295.464,266.83,o),
(316.562,249.281,o),
(316.562,220.634,cs),
(316.562,192.536,o),
(295.464,173.719,o),
(261.268,173.719,cs),
(104.17,173.719,l)
);
},
{
closed = 1;
nodes = (
(51.549,0,l),
(109.987,0,l),
(109.987,319,l),
(51.549,319,l)
);
},
{
closed = 1;
nodes = (
(328.196,0,l),
(396.451,0,l),
(284.438,151,l),
(222.634,151,l)
);
}
);
width = 420;
}
);
},
{
export = 0;
glyphname = S.half;
layers = (
{
layerId = "1A7FA7F6-774C-4A69-BC02-C84AF7C361B9";
shapes = (
{
closed = 1;
nodes = (
(312,-4,o),
(372,30,o),
(372,100,cs),
(372,157,o),
(335,186,o),
(260,189,cs),
(179,193,l),
(151,193,o),
(137,204,o),
(137,224,cs),
(137,246,o),
(165,256,o),
(219,256,cs),
(261,256,o),
(303,248,o),
(345,231,c),
(373,297,l),
(331,315,o),
(280,324,o),
(219,324,cs),
(111,324,o),
(57,289,o),
(57,217,cs),
(57,160,o),
(90,129,o),
(158,127,cs),
(251,124,ls),
(278,123,o),
(292,113,o),
(292,94,cs),
(292,74,o),
(260,63,o),
(199,63,cs),
(154,63,o),
(106,72,o),
(54,89,c),
(44,15,l),
(86,2,o),
(135,-4,o),
(193,-4,cs)
);
}
);
width = 421;
},
{
layerId = "772FC93F-B3B8-447D-A30A-419E2FCA5167";
shapes = (
{
closed = 1;
nodes = (
(310,-4,o),
(368,27,o),
(368,89,cs),
(368,128,o),
(344,164,o),
(290,173,cs),
(161,197,l),
(137,202,o),
(126,215,o),
(126,231,cs),
(126,256,o),
(159,267,o),
(225,267,cs),
(261,267,o),
(300,259,o),
(344,243,c),
(370,294,l),
(329,314,o),
(281,324,o),
(225,324,cs),
(116,324,o),
(61,293,o),
(61,229,cs),
(61,188,o),
(83,155,o),
(131,146,cs),
(262,124,ls),
(291,119,o),
(302,104,o),
(302,89,cs),
(302,65,o),
(268,52,o),
(199,52,cs),
(155,52,o),
(106,58,o),
(56,71,c),
(47,11,l),
(92,1,o),
(141,-4,o),
(193,-4,cs)
);
}
);
width = 420;
},
{
layerId = "ADDB71F6-EC09-4DA0-80DB-A822AEA2EE7D";
shapes = (
{
closed = 1;
nodes = (
(308,-4,o),
(365,26,o),
(365,86,cs),
(365,126,o),
(337,153,o),
(280,168,c),
(153,196,l),
(126,203,o),
(112,215,o),
(112,234,cs),
(112,264,o),
(148,279,o),
(221,279,cs),
(260,279,o),
(298,271,o),
(336,256,c),
(361,299,l),
(314,315,o),
(268,324,o),
(220,324,cs),
(116,324,o),
(63,294,o),
(63,232,cs),
(63,194,o),
(87,168,o),
(135,155,c),
(273,124,l),
(301,117,o),
(316,103,o),
(316,85,cs),
(316,55,o),
(278,41,o),
(199,41,cs),
(155,41,o),
(108,47,o),
(56,61,c),
(50,12,l),
(91,1,o),
(138,-4,o),
(193,-4,cs)
);
}
);
width = 420;
},
{
layerId = "D03DF296-8133-4A96-B1BA-CFDB09DF42C8";
shapes = (
{
closed = 1;
nodes = (
(309.634,-4,o),
(367.451,26.817,o),
(367.451,88.451,cs),
(367.451,127.634,o),
(342.719,161.987,o),
(288.17,172.085,c),
(159.536,196.817,l),
(134.987,202.183,o),
(123.438,215,o),
(123.438,231.549,cs),
(123.438,257.464,o),
(156.987,269.196,o),
(224.268,269.196,cs),
(260.817,269.196,o),
(299.634,261.196,o),
(342.536,245.379,c),
(368.353,294.915,l),
(326.255,314.183,o),
(278.621,324,o),
(224.085,324,cs),
(116,324,o),
(61.366,293.183,o),
(61.366,229.549,cs),
(61.366,189.098,o),
(83.732,157.379,o),
(131.732,147.647,c),
(264.013,124,l),
(292.83,118.634,o),
(304.562,103.817,o),
(304.562,88.268,cs),
(304.562,63.17,o),
(269.83,49.987,o),
(199,49.987,cs),
(155,49.987,o),
(106.366,55.987,o),
(56,69.17,c),
(47.549,11.183,l),
(91.817,1,o),
(140.451,-4,o),
(193,-4,cs)
);
}
);
width = 420;
}
);
},
{
export = 0;
glyphname = T.half;
layers = (
{
layerId = "1A7FA7F6-774C-4A69-BC02-C84AF7C361B9";
shapes = (
{
closed = 1;
nodes = (
(172,0,l),
(248,0,l),
(248,319,l),
(172,319,l)
);
},
{
closed = 1;
nodes = (
(27,252,l),
(393,252,l),
(393,319,l),
(27,319,l)
);
}
);
width = 420;
},
{
layerId = "772FC93F-B3B8-447D-A30A-419E2FCA5167";
shapes = (
{
closed = 1;
nodes = (
(179,0,l),
(240,0,l),
(240,319,l),
(179,319,l)
);
},
{
closed = 1;
nodes = (
(30,265,l),
(389,265,l),
(389,319,l),
(30,319,l)
);
}
);
width = 420;
},
{
layerId = "ADDB71F6-EC09-4DA0-80DB-A822AEA2EE7D";
shapes = (
{
closed = 1;
nodes = (
(186,0,l),
(233,0,l),
(233,319,l),
(186,319,l)
);
},
{
closed = 1;
nodes = (
(33,275,l),
(387,275,l),
(387,319,l),
(33,319,l)
);
}
);
width = 420;
},
{
layerId = "D03DF296-8133-4A96-B1BA-CFDB09DF42C8";
shapes = (
{
closed = 1;
nodes = (
(180.281,0,l),
(238.719,0,l),
(238.719,319,l),
(180.281,319,l)
);
},
{
closed = 1;
nodes = (
(30.549,266.83,l),
(388.634,266.83,l),
(388.634,319,l),
(30.549,319,l)
);
}
);
width = 420;
}
);
},
{
export = 0;
glyphname = U.half;
layers = (
{
layerId = "1A7FA7F6-774C-4A69-BC02-C84AF7C361B9";
shapes = (
{
closed = 1;
nodes = (
(318,-4,o),
(372,41,o),
(372,132,cs),
(372,319,l),
(297,319,l),
(297,132,ls),
(297,86,o),
(268,63,o),
(210,63,cs),
(152,63,o),
(123,86,o),
(123,132,cs),
(123,319,l),
(47,319,l),
(47,132,ls),
(47,41,o),
(101,-4,o),
(209,-4,cs)
);
}
);
width = 420;
},
{
layerId = "772FC93F-B3B8-447D-A30A-419E2FCA5167";
shapes = (
{
closed = 1;
nodes = (
(315,-4,o),
(369,39,o),
(369,128,cs),
(369,319,l),
(308,319,l),
(308,128,ls),
(308,76,o),
(275,50,o),
(210,50,cs),
(144,50,o),
(112,76,o),
(112,128,cs),
(112,319,l),
(51,319,l),
(51,128,ls),
(51,39,o),
(103,-4,o),
(209,-4,cs)
);
}
);
width = 420;
},
{
layerId = "ADDB71F6-EC09-4DA0-80DB-A822AEA2EE7D";
shapes = (
{
closed = 1;
nodes = (
(319,-4,o),
(366,35,o),
(366,128,cs),
(366,319,l),
(319,319,l),
(319,128,ls),
(319,65,o),
(287,39,o),
(210,39,cs),
(133,39,o),
(101,65,o),
(101,128,cs),
(101,319,l),
(54,319,l),
(54,128,ls),
(54,35,o),
(100,-4,o),
(209,-4,cs)
);
}
);
width = 420;
},
{
layerId = "D03DF296-8133-4A96-B1BA-CFDB09DF42C8";
shapes = (
{
closed = 1;
nodes = (
(315.732,-4,o),
(368.451,38.268,o),
(368.451,128,cs),
(368.451,319,l),
(310.013,319,l),
(310.013,128,ls),
(310.013,73.987,o),
(277.196,47.987,o),
(210,47.987,cs),
(141.987,47.987,o),
(109.987,73.987,o),
(109.987,128,cs),
(109.987,319,l),
(51.549,319,l),
(51.549,128,ls),
(51.549,38.268,o),
(102.451,-4,o),
(209,-4,cs)
);
}
);
width = 420;
}
);
},
{
export = 0;
glyphname = V.half;
layers = (
{
layerId = "1A7FA7F6-774C-4A69-BC02-C84AF7C361B9";
shapes = (
{
closed = 1;
nodes = (
(156,0,l),
(264,0,l),
(406,319,l),
(323,319,l),
(213,65,l),
(207,65,l),
(98,319,l),
(14,319,l)
);
}
);
width = 420;
},
{
layerId = "772FC93F-B3B8-447D-A30A-419E2FCA5167";
shapes = (
{
closed = 1;
nodes = (
(169,0,l),
(252,0,l),
(402,319,l),
(337,319,l),
(212,51,l),
(208,51,l),
(83,319,l),
(18,319,l)
);
}
);
width = 420;
},
{
layerId = "ADDB71F6-EC09-4DA0-80DB-A822AEA2EE7D";
shapes = (
{
closed = 1;
nodes = (
(177,0,l),
(243,0,l),
(399,319,l),
(350,319,l),
(213,40,l),
(208,40,l),
(71,319,l),
(22,319,l)
);
}
);
width = 421;
},
{
layerId = "D03DF296-8133-4A96-B1BA-CFDB09DF42C8";
shapes = (
{
closed = 1;
nodes = (
(170.464,0,l),
(250.353,0,l),
(401.451,319,l),
(339.379,319,l),
(212.183,48.987,l),
(208,48.987,l),
(80.804,319,l),
(18.732,319,l)
);
}
);
width = 420.18301;
}
);
},
{
export = 0;
glyphname = X.half;
layers = (
{
layerId = "1A7FA7F6-774C-4A69-BC02-C84AF7C361B9";
shapes = (
{
closed = 1;
nodes = (
(301,0,l),
(399,0,l),
(238,175,l),
(119,319,l),
(22,319,l),
(188,136,l)
);
},
{
closed = 1;
nodes = (
(22,0,l),
(119,0,l),
(232,136,l),
(399,319,l),
(301,319,l),
(183,175,l)
);
}
);
width = 420;
},
{
layerId = "772FC93F-B3B8-447D-A30A-419E2FCA5167";
shapes = (
{
closed = 1;
nodes = (
(319,0,l),
(400,0,l),
(237,169,l),
(101,319,l),
(20,319,l),
(188,142,l)
);
},
{
closed = 1;
nodes = (
(20,0,l),
(101,0,l),
(232,142,l),
(400,319,l),
(319,319,l),
(183,169,l)
);
}
);
width = 420;
},
{
layerId = "ADDB71F6-EC09-4DA0-80DB-A822AEA2EE7D";
shapes = (
{
closed = 1;
nodes = (
(332,0,l),
(392,0,l),
(230,168,l),
(89,319,l),
(28,319,l),
(195,143,l)
);
},
{
closed = 1;
nodes = (
(28,0,l),
(89,0,l),
(226,143,l),
(392,319,l),
(332,319,l),
(189,168,l)
);
}
);
width = 420;
},
{
layerId = "D03DF296-8133-4A96-B1BA-CFDB09DF42C8";
shapes = (
{
closed = 1;
nodes = (
(321.379,0,l),
(398.536,0,l),
(235.719,168.817,l),
(98.804,319,l),
(21.464,319,l),
(189.281,142.183,l)
);
},
{
closed = 1;
nodes = (
(21.464,0,l),
(98.804,0,l),
(230.902,142.183,l),
(398.536,319,l),
(321.379,319,l),
(184.098,168.817,l)
);
}
);
width = 420;
}
);
},
{
export = 0;
glyphname = Y.half;
layers = (
{
layerId = "1A7FA7F6-774C-4A69-BC02-C84AF7C361B9";
shapes = (
{
closed = 1;
nodes = (
(177,80,l),
(243,80,l),
(413,319,l),
(330,319,l),
(213,156,l),
(207,156,l),
(91,319,l),
(7,319,l)
);
},
{
closed = 1;
nodes = (
(172,0,l),
(248,0,l),
(248,130,l),
(172,130,l)
);
}
);
width = 420;
},
{
layerId = "772FC93F-B3B8-447D-A30A-419E2FCA5167";
shapes = (
{
closed = 1;
nodes = (
(189,81,l),
(231,81,l),
(409,319,l),
(341,319,l),
(212,144,l),
(209,144,l),
(79,319,l),
(11,319,l)
);
},
{
closed = 1;
nodes = (
(179,0,l),
(241,0,l),
(241,128,l),
(179,128,l)
);
}
);
width = 420;
},
{
layerId = "ADDB71F6-EC09-4DA0-80DB-A822AEA2EE7D";
shapes = (
{
closed = 1;
nodes = (
(193,84,l),
(227,84,l),
(407,319,l),
(354,319,l),
(213,133,l),
(208,133,l),
(66,319,l),
(14,319,l)
);
},
{
closed = 1;
nodes = (
(186,0,l),
(234,0,l),
(234,128,l),
(186,128,l)
);
}
);
width = 421;
},
{
layerId = "D03DF296-8133-4A96-B1BA-CFDB09DF42C8";
shapes = (
{
closed = 1;
nodes = (
(189.732,81.549,l),
(230.268,81.549,l),
(408.634,319,l),
(343.379,319,l),
(212.183,141.987,l),
(208.817,141.987,l),
(76.621,319,l),
(11.549,319,l)
);
},
{
closed = 1;
nodes = (
(180.281,0,l),
(239.719,0,l),
(239.719,128,l),
(180.281,128,l)
);
}
);
width = 420.18301;
}
);
},
{
glyphname = Ismall;
layers = (
{
layerId = "1A7FA7F6-774C-4A69-BC02-C84AF7C361B9";
shapes = (
{
closed = 1;
nodes = (
(223,0,l),
(358,0,l),
(377,530,l),
(242,530,l)
);
},
{
closed = 1;
nodes = (
(75,0,l),
(507,0,l),
(507,125,l),
(75,125,l)
);
},
{
closed = 1;
nodes = (
(93,406,l),
(525,406,l),
(525,530,l),
(93,530,l)
);
}
);
width = 600;
},
{
layerId = "772FC93F-B3B8-447D-A30A-419E2FCA5167";
shapes = (
{
closed = 1;
nodes = (
(238,0,l),
(344,0,l),
(362,530,l),
(256,530,l)
);
},
{
closed = 1;
nodes = (
(75,0,l),
(507,0,l),
(507,87,l),
(75,87,l)
);
},
{
closed = 1;
nodes = (
(93,443,l),
(525,443,l),
(525,530,l),
(93,530,l)
);
}
);
width = 600;
},
{
layerId = "ADDB71F6-EC09-4DA0-80DB-A822AEA2EE7D";
shapes = (
{
closed = 1;
nodes = (
(267,0,l),
(314,0,l),
(333,530,l),
(286,530,l)
);
},
{
closed = 1;
nodes = (
(87,0,l),
(495,0,l),
(495,45,l),
(87,45,l)
);
},
{
closed = 1;
nodes = (
(105,485,l),
(513,485,l),
(513,530,l),
(105,530,l)
);
}
);
width = 600;
},
{
layerId = "D03DF296-8133-4A96-B1BA-CFDB09DF42C8";
shapes = (
{
closed = 1;
nodes = (
(243.307,0,l),
(338.51,0,l),
(356.693,530,l),
(261.49,530,l)
);
},
{
closed = 1;
nodes = (
(77.196,0,l),
(504.804,0,l),
(504.804,79.314,l),
(77.196,79.314,l)
);
},
{
closed = 1;
nodes = (
(95.196,450.686,l),
(522.804,450.686,l),
(522.804,530,l),
(95.196,530,l)
);
}
);
width = 600;
}
);
unicode = 618;
},
{
glyphname = a;
layers = (
{
anchors = (
{
name = top;
pos = (288,530);
}
);
layerId = "1A7FA7F6-774C-4A69-BC02-C84AF7C361B9";
shapes = (
{
closed = 1;
nodes = (
(233,540,o),
(159,530,o),
(91,504,c),
(129,394,l),
(180,415,o),
(232,425,o),
(273,425,cs),
(349,425,o),
(386,389,o),
(384,341,cs),
(375,133,l),
(399,133,l),
(400,50,o),
(429,-5,o),
(517,-5,cs),
(572,-5,l),
(577,110,l),
(554,110,ls),
(509,110,o),
(506,134,o),
(507,170,cs),
(513,357,ls),
(517,468,o),
(437,540,o),
(290,540,cs)
);
},
{
closed = 1;
nodes = (
(379,223,l),
(375,144,o),
(319,111,o),
(249,111,cs),
(203,111,o),
(178,128,o),
(178,161,cs),
(178,220,o),
(256,252,o),
(426,222,c),
(422,322,l),
(198,364,o),
(42,292,o),
(42,143,cs),
(42,47,o),
(106,-10,o),
(219,-10,cs),
(327,-10,o),
(385,40,o),
(391,106,c),
(358,84,l),
(472,84,l)
);
}
);
width = 600;
},
{
anchors = (
{
name = top;
pos = (286,530);
}
);
layerId = "772FC93F-B3B8-447D-A30A-419E2FCA5167";
shapes = (
{
closed = 1;
nodes = (
(230,540,o),
(162,530,o),
(100,504,c),
(129,414,l),
(180,434,o),
(238,445,o),
(282,445,cs),
(372,445,o),
(395,402,o),
(393,330,cs),
(387,133,l),
(411,133,l),
(411,32,o),
(453,-5,o),
(554,-5,cs),
(572,-5,l),
(575,83,l),
(567,83,ls),
(502,83,o),
(490,115,o),
(493,170,cs),
(500,336,ls),
(505,464,o),
(442,540,o),
(286,540,cs)
);
},
{
closed = 1;
nodes = (
(389,217,l),
(385,127,o),
(325,81,o),
(245,81,cs),
(190,81,o),
(162,103,o),
(162,145,cs),
(162,230,o),
(282,266,o),
(419,231,c),
(416,316,l),
(197,346,o),
(55,281,o),
(55,140,cs),
(55,44,o),
(117,-10,o),
(226,-10,cs),
(327,-10,o),
(394,34,o),
(400,113,c),
(368,98,l),
(439,98,l)
);
}
);
width = 600;
},
{
anchors = (
{
name = top;
pos = (288,530);
}
);
layerId = "ADDB71F6-EC09-4DA0-80DB-A822AEA2EE7D";
shapes = (
{
closed = 1;
nodes = (
(232,540,o),
(163,526,o),
(115,507,c),
(130,463,l),
(178,481,o),
(240,494,o),
(288,494,cs),
(395,494,o),
(438,435,o),
(434,347,cs),
(426,153,l),
(432,153,l),
(420,61,o),
(441,-5,o),
(553,-5,cs),
(558,-5,l),
(560,42,l),
(552,42,l),
(504,43,o),
(470,57,o),
(472,110,cs),
(481,348,ls),
(485,464,o),
(426,540,o),
(288,540,cs)
);
},
{
closed = 1;
nodes = (
(429,226,l),
(425,67,o),
(315,34,o),
(237,34,cs),
(158,34,o),
(111,71,o),
(111,133,cs),
(111,240,o),
(253,302,o),
(449,253,c),
(446,297,l),
(238,349,o),
(63,275,o),
(65,133,cs),
(65,44,o),
(130,-10,o),
(237,-10,cs),
(337,-10,o),
(407,35,o),
(426,120,c),
(400,102,l),
(449,102,l)
);
}
);
width = 600;
},
{
anchors = (
{
name = top;
pos = (286.366,530);
}
);
layerId = "D03DF296-8133-4A96-B1BA-CFDB09DF42C8";
shapes = (
{
closed = 1;
nodes = (
(230.366,540,o),
(162.183,529.268,o),
(102.745,504.549,c),
(129.183,422.967,l),
(179.634,442.601,o),
(238.366,453.967,o),
(283.098,453.967,cs),
(376.209,453.967,o),
(402.869,408.039,o),
(400.503,333.111,cs),
(394.137,136.66,l),
(414.843,136.66,l),
(412.647,37.307,o),
(450.804,-5,o),
(553.817,-5,cs),
(569.438,-5,l),
(572.255,75.497,l),
(564.255,75.497,l),
(502.366,75.68,o),
(486.34,104.386,o),
(489.157,159.02,cs),
(496.523,338.196,ls),
(501.34,464,o),
(439.072,540,o),
(286.366,540,cs)
);
},
{
closed = 1;
nodes = (
(396.32,218.647,l),
(392.32,116.02,o),
(323.17,72.399,o),
(243.536,72.399,cs),
(184.144,72.399,o),
(152.667,97.144,o),
(152.667,142.804,cs),
(152.667,231.83,o),
(276.693,272.588,o),
(424.49,235.026,c),
(421.49,312.523,l),
(204.503,346.549,o),
(56.464,279.902,o),
(56.83,138.719,cs),
(56.83,44,o),
(119.379,-10,o),
(228.013,-10,cs),
(328.83,-10,o),
(396.379,34.183,o),
(404.758,114.281,c),
(373.856,98.732,l),
(440.83,98.732,l)
);
}
);
width = 600;
}
);
unicode = 97;
},
{
glyphname = ae;
layers = (
{
layerId = "1A7FA7F6-774C-4A69-BC02-C84AF7C361B9";
shapes = (
{
closed = 1;
nodes = (
(383,116,o),
(364,201,o),
(364,272,cs),
(364,357,o),
(393,412,o),
(440,412,cs),
(467,412,o),
(477,395,o),
(477,374,cs),
(477,326,o),
(423,297,o),
(327,295,c),
(349,184,l),
(509,188,o),
(601,259,o),
(601,375,cs),
(601,459,o),
(559,540,o),
(461,540,cs),
(349,540,o),
(282,433,o),
(282,267,cs),
(282,137,o),
(314,-10,o),
(481,-10,cs),
(512,-10,o),
(548,-3,o),
(577,7,c),
(544,126,l),
(521,120,o),
(495,116,o),
(472,116,cs)
);
},
{
closed = 1;
nodes = (
(220,-10,o),
(271,36,o),
(287,142,c),
(250,127,l),
(334,127,l),
(246,276,l),
(241,190,ls),
(238,135,o),
(205,104,o),
(166,104,cs),
(136,104,o),
(124,125,o),
(124,152,cs),
(124,227,o),
(226,230,o),
(276,205,c),
(303,299,l),
(177,348,o),
(-4,295,o),
(-4,135,cs),
(-4,46,o),
(43,-10,o),
(136,-10,cs)
);
},
{
closed = 1;
nodes = (
(237,155,l),
(318,155,l),
(325,302,ls),
(331,435,o),
(265,530,o),
(121,534,cs),
(60,535,l),
(53,408,l),
(103,406,ls),
(162,404,o),
(250,384,o),
(246,308,cs)
);
}
);
width = 600;
},
{
layerId = "772FC93F-B3B8-447D-A30A-419E2FCA5167";
shapes = (
{
closed = 1;
nodes = (
(371,79,o),
(355,183,o),
(355,268,cs),
(355,381,o),
(390,452,o),
(445,452,cs),
(483,452,o),
(495,417,o),
(495,388,cs),
(495,321,o),
(436,281,o),
(334,278,c),
(350,203,l),
(501,206,o),
(587,275,o),
(587,389,cs),
(587,464,o),
(552,540,o),
(463,540,cs),
(354,540,o),
(288,434,o),
(288,268,cs),
(288,138,o),
(305,-10,o),
(486,-10,cs),
(515,-10,o),
(549,-3,o),
(575,7,c),
(548,89,l),
(527,82,o),
(502,79,o),
(481,79,cs)
);
},
{
closed = 1;
nodes = (
(232,-10,o),
(293,41,o),
(301,134,c),
(262,119,l),
(341,119,l),
(265,276,l),
(259,190,l),
(256,119,o),
(219,79,o),
(172,79,cs),
(130,79,o),
(110,103,o),
(110,142,cs),
(110,234,o),
(220,247,o),
(286,216,c),
(311,297,l),
(190,350,o),
(13,293,o),
(13,139,cs),
(13,49,o),
(65,-10,o),
(152,-10,cs)
);
},
{
closed = 1;
nodes = (
(257,155,l),
(314,155,l),
(328,292,ls),
(340,419,o),
(282,530,o),
(140,534,cs),
(81,535,l),
(76,446,l),
(125,445,ls),
(208,443,o),
(273,395,o),
(267,308,cs)
);
}
);
width = 600;
},
{
layerId = "ADDB71F6-EC09-4DA0-80DB-A822AEA2EE7D";
shapes = (
{
closed = 1;
nodes = (
(346,35,o),
(323,171,o),
(323,269,cs),
(323,407,o),
(374,495,o),
(455,495,cs),
(513,495,o),
(537,449,o),
(537,400,cs),
(537,317,o),
(457,269,o),
(318,266,c),
(324,221,l),
(489,225,o),
(585,290,o),
(585,395,cs),
(585,470,o),
(546,540,o),
(458,540,cs),
(353,540,o),
(290,435,o),
(290,270,cs),
(290,150,o),
(315,-10,o),
(474,-10,cs),
(508,-10,o),
(531,-3,o),
(556,7,c),
(541,49,l),
(519,40,o),
(495,35,o),
(473,35,cs)
);
},
{
closed = 1;
nodes = (
(238,-10,o),
(297,46,o),
(305,178,c),
(291,132,l),
(331,132,l),
(283,278,l),
(278,190,ls),
(271,91,o),
(217,35,o),
(150,35,cs),
(90,35,o),
(65,77,o),
(65,131,cs),
(65,259,o),
(211,273,o),
(304,241,c),
(312,283,l),
(193,328,o),
(18,289,o),
(18,133,cs),
(18,51,o),
(59,-10,o),
(147,-10,cs)
);
},
{
closed = 1;
nodes = (
(275,155,l),
(308,155,l),
(315,292,ls),
(322,418,o),
(267,535,o),
(123,535,cs),
(102,535,l),
(100,490,l),
(109,490,ls),
(218,490,o),
(290,415,o),
(284,308,cs)
);
}
);
width = 600;
},
{
layerId = "D03DF296-8133-4A96-B1BA-CFDB09DF42C8";
shapes = (
{
closed = 1;
nodes = (
(366.425,70.948,o),
(349.144,180.804,o),
(349.144,268.183,cs),
(349.144,385.758,o),
(387.072,459.869,o),
(446.83,459.869,cs),
(488.49,459.869,o),
(502.686,422.856,o),
(502.686,390.196,cs),
(502.686,320.268,o),
(439.843,278.804,o),
(331.072,275.804,c),
(345.242,206.294,l),
(498.804,209.477,o),
(586.634,277.745,o),
(586.634,390.098,cs),
(586.634,465.098,o),
(550.902,540,o),
(462.085,540,cs),
(353.817,540,o),
(288.366,434.183,o),
(288.366,268.366,cs),
(288.366,140.196,o),
(306.83,-10,o),
(483.804,-10,cs),
(513.719,-10,o),
(545.706,-3,o),
(571.523,7,c),
(546.719,81.68,l),
(525.536,74.314,o),
(500.719,70.948,o),
(479.536,70.948,cs)
);
},
{
closed = 1;
nodes = (
(233.098,-10,o),
(293.732,41.915,o),
(301.732,142.052,c),
(267.307,121.379,l),
(339.17,121.379,l),
(268.294,276.366,l),
(262.477,190,ls),
(258.745,113.876,o),
(218.634,70.948,o),
(167.974,70.948,cs),
(122.68,70.948,o),
(101.765,98.242,o),
(101.765,139.987,cs),
(101.765,238.575,o),
(218.353,251.758,o),
(289.294,220.575,c),
(311.183,294.438,l),
(190.549,345.974,o),
(13.915,292.268,o),
(13.915,137.902,cs),
(13.915,49.366,o),
(63.902,-10,o),
(151.085,-10,cs)
);
},
{
closed = 1;
nodes = (
(260.294,155,l),
(312.902,155,l),
(325.621,292,ls),
(336.706,418.817,o),
(279.255,530.915,o),
(136.889,534.183,cs),
(84.843,535,l),
(80.392,454.052,l),
(122.072,453.235,ls),
(209.83,451.601,o),
(276.111,398.66,o),
(270.111,308,cs)
);
}
);
width = 600;
}
);
unicode = 230;
},
{
glyphname = b;
layers = (
{
layerId = "1A7FA7F6-774C-4A69-BC02-C84AF7C361B9";
shapes = (
{
closed = 1;
nodes = (
(452,-10,o),
(568,110,o),
(568,311,cs),
(568,426,o),
(524,540,o),
(390,540,cs),
(300,540,o),
(246,492,o),
(239,407,c),
(249,434,l),
(206,434,l),
(218,194,l),
(225,346,o),
(290,412,o),
(357,412,cs),
(422,412,o),
(432,353,o),
(432,302,cs),
(432,176,o),
(376,117,o),
(257,117,cs),
(222,117,o),
(161,124,o),
(117,131,c),
(76,0,l),
(144,-6,o),
(212,-10,o),
(252,-10,cs)
);
},
{
closed = 1;
nodes = (
(76,0,l),
(211,0,l),
(239,750,l),
(103,750,l)
);
}
);
width = 600;
},
{
layerId = "772FC93F-B3B8-447D-A30A-419E2FCA5167";
shapes = (
{
closed = 1;
nodes = (
(442,-10,o),
(561,114,o),
(561,307,cs),
(561,424,o),
(521,540,o),
(385,540,cs),
(286,540,o),
(217,478,o),
(209,372,c),
(228,410,l),
(186,410,l),
(195,194,l),
(202,370,o),
(287,445,o),
(366,445,cs),
(444,445,o),
(457,370,o),
(457,307,cs),
(457,180,o),
(393,81,o),
(248,81,cs),
(207,81,o),
(155,89,o),
(119,97,c),
(82,0,l),
(135,-7,o),
(201,-10,o),
(239,-10,cs)
);
},
{
closed = 1;
nodes = (
(82,0,l),
(188,0,l),
(216,750,l),
(110,750,l)
);
}
);
width = 600;
},
{
layerId = "ADDB71F6-EC09-4DA0-80DB-A822AEA2EE7D";
shapes = (
{
closed = 1;
nodes = (
(431,-10,o),
(549,111,o),
(549,309,cs),
(549,427,o),
(503,540,o),
(368,540,cs),
(261,540,o),
(172,466,o),
(159,337,c),
(178,375,l),
(138,375,l),
(147,159,l),
(155,393,o),
(254,494,o),
(362,494,cs),
(468,494,o),
(502,406,o),
(502,314,cs),
(502,141,o),
(402,36,o),
(240,36,cs),
(204,36,o),
(154,41,o),
(128,48,c),
(96,0,l),
(147,-6,o),
(200,-10,o),
(234,-10,cs)
);
},
{
closed = 1;
nodes = (
(96,0,l),
(142,0,l),
(170,750,l),
(124,750,l)
);
}
);
width = 600;
},
{
layerId = "D03DF296-8133-4A96-B1BA-CFDB09DF42C8";
shapes = (
{
closed = 1;
nodes = (
(439.987,-10,o),
(558.804,113.451,o),
(558.804,307.366,cs),
(558.804,424.549,o),
(517.706,540,o),
(381.889,540,cs),
(281.425,540,o),
(208.765,475.804,o),
(199.85,365.595,c),
(218.85,403.595,l),
(177.216,403.595,l),
(186.216,187.595,l),
(193.399,374.209,o),
(280.961,453.967,o),
(365.268,453.967,cs),
(448.392,453.967,o),
(465.235,376.588,o),
(465.235,308.281,cs),
(465.235,172.863,o),
(394.647,72.765,o),
(246.536,72.765,cs),
(206.451,72.765,o),
(154.817,80.216,o),
(120.647,88.033,c),
(84.562,0,l),
(137.196,-6.817,o),
(200.817,-10,o),
(238.085,-10,cs)
);
},
{
closed = 1;
nodes = (
(84.562,0,l),
(179.582,0,l),
(207.582,750,l),
(112.562,750,l)
);
}
);
width = 600;
}
);
unicode = 98;
},
{
glyphname = c;
layers = (
{
anchors = (
{
name = bottom;
pos = (331,0);
}
);
layerId = "1A7FA7F6-774C-4A69-BC02-C84AF7C361B9";
shapes = (
{
closed = 1;
nodes = (
(428,-10,o),
(488,-4,o),
(544,17,c),
(519,141,l),
(476,127,o),
(431,119,o),
(386,119,cs),
(281,119,o),
(221,164,o),
(221,260,cs),
(221,353,o),
(278,412,o),
(356,412,cs),
(407,412,o),
(443,386,o),
(467,340,c),
(564,418,l),
(536,496,o),
(465,540,o),
(359,540,cs),
(188,540,o),
(83,422,o),
(83,246,cs),
(83,71,o),
(187,-10,o),
(373,-10,cs)
);
}
);
width = 600;
},
{
anchors = (
{
name = bottom;
pos = (324,0);
}
);
layerId = "772FC93F-B3B8-447D-A30A-419E2FCA5167";
shapes = (
{
closed = 1;
nodes = (
(417,-10,o),
(476,-5,o),
(531,15,c),
(510,109,l),
(466,94,o),
(421,85,o),
(375,85,cs),
(263,85,o),
(201,142,o),
(201,258,cs),
(201,375,o),
(264,445,o),
(355,445,cs),
(407,445,o),
(444,417,o),
(468,369,c),
(549,430,l),
(522,500,o),
(456,540,o),
(358,540,cs),
(195,540,o),
(93,427,o),
(93,250,cs),
(93,77,o),
(189,-10,o),
(360,-10,cs)
);
}
);
width = 600;
},
{
anchors = (
{
name = bottom;
pos = (326,0);
}
);
layerId = "ADDB71F6-EC09-4DA0-80DB-A822AEA2EE7D";
shapes = (
{
closed = 1;
nodes = (
(415,-10,o),
(471,-3,o),
(524,17,c),
(514,63,l),
(466,44,o),
(415,36,o),
(364,36,cs),
(225,36,o),
(154,110,o),
(154,254,cs),
(154,407,o),
(233,494,o),
(354,494,cs),
(417,494,o),
(465,474,o),
(496,406,c),
(537,430,l),
(506,497,o),
(449,540,o),
(358,540,cs),
(203,540,o),
(105,431,o),
(105,250,cs),
(105,78,o),
(194,-10,o),
(361,-10,cs)
);
}
);
width = 600;
},
{
anchors = (
{
name = bottom;
pos = (324.366,0);
}
);
layerId = "D03DF296-8133-4A96-B1BA-CFDB09DF42C8";
shapes = (
{
closed = 1;
nodes = (
(416.634,-10,o),
(475.085,-4.634,o),
(529.719,15.366,c),
(510.732,100.582,l),
(466,84.85,o),
(419.902,76.033,o),
(372.987,76.033,cs),
(256.046,76.033,o),
(192.399,136.144,o),
(192.399,257.268,cs),
(192.399,380.856,o),
(258.327,453.967,o),
(354.817,453.967,cs),
(408.83,453.967,o),
(447.843,427.431,o),
(473.124,375.771,c),
(546.804,430,l),
(519.072,499.451,o),
(454.719,540,o),
(358,540,cs),
(196.464,540,o),
(95.196,427.732,o),
(95.196,250,cs),
(95.196,77.183,o),
(189.915,-10,o),
(360.183,-10,cs)
);
}
);
width = 600;
}
);
unicode = 99;
},
{
glyphname = d;
layers = (
{
layerId = "1A7FA7F6-774C-4A69-BC02-C84AF7C361B9";
shapes = (
{
closed = 1;
nodes = (
(597,-5,l),
(601,110,l),
(581,110,ls),
(529,110,o),
(513,121,o),
(509,148,cs),
(508,159,o),
(507,171,o),
(508,185,cs),
(528,750,l),
(393,750,l),
(372,190,l),
(393,125,l),
(392,112,o),
(393,99,o),
(394,88,c),
(407,3,o),
(481,-5,o),
(549,-5,cs)
);
},
{
closed = 1;
nodes = (
(181,541,o),
(40,402,o),
(40,205,cs),
(40,73,o),
(106,-10,o),
(218,-10,cs),
(307,-10,o),
(362,39,o),
(384,124,c),
(346,105,l),
(492,105,l),
(379,336,l),
(371,183,o),
(317,119,o),
(250,119,cs),
(199,119,o),
(176,147,o),
(176,211,cs),
(176,328,o),
(258,413,o),
(360,413,cs),
(411,413,o),
(449,407,o),
(479,399,c),
(520,530,l),
(475,537,o),
(421,541,o),
(370,541,cs)
);
}
);
width = 600;
},
{
layerId = "772FC93F-B3B8-447D-A30A-419E2FCA5167";
shapes = (
{
closed = 1;
nodes = (
(590,-5,l),
(593,83,l),
(563,83,ls),
(524,83,o),
(504,100,o),
(499,135,cs),
(498,142,o),
(498,150,o),
(498,159,c),
(519,750,l),
(413,750,l),
(393,237,l),
(413,144,l),
(413,130,o),
(414,116,o),
(416,103,cs),
(426,29,o),
(468,-5,o),
(552,-5,cs)
);
},
{
closed = 1;
nodes = (
(176,541,o),
(47,403,o),
(47,208,cs),
(47,72,o),
(110,-9,o),
(222,-9,cs),
(322,-9,o),
(390,53,o),
(409,160,c),
(379,133,l),
(421,133,l),
(397,337,l),
(390,161,o),
(321,86,o),
(243,86,cs),
(183,86,o),
(152,132,o),
(152,214,cs),
(152,350,o),
(241,446,o),
(377,446,cs),
(419,446,o),
(453,441,o),
(473,434,c),
(510,530,l),
(461,537,o),
(417,541,o),
(374,541,cs)
);
}
);
width = 600;
},
{
layerId = "ADDB71F6-EC09-4DA0-80DB-A822AEA2EE7D";
shapes = (
{
closed = 1;
nodes = (
(590,-5,l),
(591,41,l),
(560,41,ls),
(515,41,o),
(492,61,o),
(485,103,cs),
(484,113,o),
(484,123,o),
(484,134,c),
(507,750,l),
(460,750,l),
(442,228,l),
(443,168,l),
(441,135,o),
(443,109,o),
(445,90,cs),
(454,32,o),
(485,-5,o),
(564,-5,cs)
);
},
{
closed = 1;
nodes = (
(197,541,o),
(59,406,o),
(59,218,cs),
(59,75,o),
(128,-9,o),
(244,-9,cs),
(358,-9,o),
(423,66,o),
(441,195,c),
(429,167,l),
(457,167,l),
(447,372,l),
(440,137,o),
(353,37,o),
(252,37,cs),
(159,37,o),
(106,100,o),
(106,216,cs),
(106,378,o),
(222,495,o),
(395,495,cs),
(428,495,o),
(449,489,o),
(466,482,c),
(499,530,l),
(467,537,o),
(436,541,o),
(400,541,cs)
);
}
);
width = 600;
},
{
layerId = "D03DF296-8133-4A96-B1BA-CFDB09DF42C8";
shapes = (
{
closed = 1;
nodes = (
(590,-5,l),
(592.634,75.314,l),
(562.451,75.314,ls),
(522.353,75.314,o),
(501.804,92.863,o),
(496.438,129.144,cs),
(495.438,136.693,o),
(495.438,145.059,o),
(495.438,154.425,c),
(516.804,750,l),
(421.601,750,l),
(401.967,235.353,l),
(418.49,148.392,l),
(418.124,130.915,o),
(419.307,114.719,o),
(421.307,100.621,cs),
(431.124,29.549,o),
(471.111,-5,o),
(554.196,-5,cs)
);
},
{
closed = 1;
nodes = (
(179.843,541,o),
(49.196,403.549,o),
(49.196,209.83,cs),
(49.196,72.549,o),
(113.294,-9,o),
(226.026,-9,cs),
(328.588,-9,o),
(396.039,55.379,o),
(414.856,166.405,c),
(388.15,139.222,l),
(427.588,139.222,l),
(406.15,343.405,l),
(399.15,156.608,o),
(326.856,77.033,o),
(244.647,77.033,cs),
(178.608,77.033,o),
(143.582,126.144,o),
(143.582,214.366,cs),
(143.582,355.124,o),
(237.523,454.967,o),
(380.294,454.967,cs),
(420.647,454.967,o),
(452.268,449.784,o),
(471.719,442.784,c),
(507.987,530,l),
(462.098,537,o),
(420.477,541,o),
(378.758,541,cs)
);
}
);
width = 600;
}
);
unicode = 100;
},
{
glyphname = eth;
layers = (
{
anchors = (
{
name = bottom;
pos = (300,0);
},
{
name = top;
pos = (300,730);
}
);
layerId = "1A7FA7F6-774C-4A69-BC02-C84AF7C361B9";
shapes = (
{
closed = 1;
nodes = (
(409,136,l),
(548,280,l),
(548,303,ls),
(548,551,o),
(441,686,o),
(191,758,c),
(163,679,l),
(336,617,o),
(411,513,o),
(410,333,cs)
);
},
{
closed = 1;
nodes = (
(228,118,o),
(186,156,o),
(186,220,cs),
(186,291,o),
(228,332,o),
(299,332,cs),
(369,332,o),
(410,291,o),
(410,221,cs),
(410,157,o),
(369,118,o),
(299,118,cs)
);
},
{
closed = 1;
nodes = (
(456,-10,o),
(548,95,o),
(548,280,c),
(431,204,l),
(432,354,l),
(392,354,l),
(376,422,o),
(323,460,o),
(251,460,cs),
(121,460,o),
(48,373,o),
(48,220,cs),
(48,75,o),
(137,-10,o),
(294,-10,cs)
);
},
{
closed = 1;
nodes = (
(140,486,l),
(554,602,l),
(527,715,l),
(115,598,l)
);
}
);
width = 600;
},
{
anchors = (
{
name = bottom;
pos = (300,0);
},
{
name = top;
pos = (300,730);
}
);
layerId = "772FC93F-B3B8-447D-A30A-419E2FCA5167";
shapes = (
{
closed = 1;
nodes = (
(428,136,l),
(540,263,l),
(540,287,ls),
(540,544,o),
(435,684,o),
(191,758,c),
(167,708,l),
(350,640,o),
(428,528,o),
(428,333,cs)
);
},
{
closed = 1;
nodes = (
(213,82,o),
(164,135,o),
(164,225,cs),
(164,315,o),
(213,368,o),
(296,368,cs),
(379,368,o),
(428,315,o),
(428,225,cs),
(428,135,o),
(379,82,o),
(296,82,cs)
);
},
{
closed = 1;
nodes = (
(450,-10,o),
(540,89,o),
(540,263,c),
(457,204,l),
(457,354,l),
(420,354,l),
(401,422,o),
(344,460,o),
(265,460,cs),
(132,460,o),
(56,375,o),
(56,225,cs),
(56,76,o),
(140,-10,o),
(290,-10,cs)
);
},
{
closed = 1;
nodes = (
(136,499,l),
(550,618,l),
(529,706,l),
(117,586,l)
);
}
);
width = 600;
},
{
anchors = (
{
name = bottom;
pos = (300,0);
},
{
name = top;
pos = (300,730);
}
);
layerId = "ADDB71F6-EC09-4DA0-80DB-A822AEA2EE7D";
shapes = (
{
closed = 1;
nodes = (
(479,136,l),
(527,228,l),
(527,287,ls),
(527,544,o),
(427,679,o),
(191,758,c),
(171,719,l),
(387,649,o),
(479,534,o),
(479,333,cs)
);
},
{
closed = 1;
nodes = (
(180,36,o),
(117,104,o),
(117,220,cs),
(117,344,o),
(180,414,o),
(296,414,cs),
(413,414,o),
(479,344,o),
(479,220,cs),
(479,104,o),
(409,36,o),
(289,36,cs)
);
},
{
closed = 1;
nodes = (
(439,-10,o),
(527,79,o),
(527,228,c),
(497,204,l),
(497,354,l),
(474,354,l),
(452,422,o),
(382,460,o),
(286,460,cs),
(147,460,o),
(69,373,o),
(69,220,cs),
(69,76,o),
(151,-10,o),
(290,-10,cs)
);
},
{
closed = 1;
nodes = (
(132,518,l),
(540,664,l),
(529,706,l),
(122,561,l)
);
}
);
width = 600;
},
{
anchors = (
{
name = bottom;
pos = (300,0);
},
{
name = top;
pos = (300,730);
}
);
layerId = "D03DF296-8133-4A96-B1BA-CFDB09DF42C8";
shapes = (
{
closed = 1;
nodes = (
(437.333,136,l),
(537.621,256.595,l),
(537.621,287,ls),
(537.621,544,o),
(433.536,683.085,o),
(191,758,c),
(167.732,710.013,l),
(356.771,641.647,o),
(437.333,529.098,o),
(437.333,333,cs)
);
},
{
closed = 1;
nodes = (
(206.961,73.582,o),
(155.399,129.327,o),
(155.399,224.085,cs),
(155.399,320.307,o),
(206.961,376.418,o),
(296,376.418,cs),
(385.222,376.418,o),
(437.333,320.307,o),
(437.333,224.085,cs),
(437.333,129.327,o),
(384.49,73.582,o),
(294.719,73.582,cs)
);
},
{
closed = 1;
nodes = (
(447.987,-10,o),
(537.621,87.17,o),
(537.621,256.595,c),
(464.32,204,l),
(464.32,354,l),
(429.882,354,l),
(410.333,422,o),
(350.954,460,o),
(268.843,460,cs),
(134.745,460,o),
(58.379,374.634,o),
(58.379,224.085,cs),
(58.379,76,o),
(142.013,-10,o),
(290,-10,cs)
);
},
{
closed = 1;
nodes = (
(135.268,502.477,l),
(548.17,626.418,l),
(529,706,l),
(117.915,581.425,l)
);
}
);
width = 600;
}
);
unicode = 240;
},
{
glyphname = e;
layers = (
{
anchors = (
{
name = top;
pos = (333,530);
}
);
layerId = "1A7FA7F6-774C-4A69-BC02-C84AF7C361B9";
shapes = (
{
closed = 1;
nodes = (
(247,111,o),
(198,157,o),
(198,243,cs),
(198,345,o),
(257,421,o),
(352,421,cs),
(381,421,o),
(423,413,o),
(423,378,cs),
(423,331,o),
(324,302,o),
(156,301,c),
(186,196,l),
(427,200,o),
(555,256,o),
(555,370,cs),
(555,480,o),
(471,540,o),
(364,540,cs),
(185,540,o),
(73,416,o),
(73,241,cs),
(73,80,o),
(163,-10,o),
(341,-10,cs),
(414,-10,o),
(480,1,o),
(545,30,c),
(516,146,l),
(463,123,o),
(410,111,o),
(352,111,cs)
);
}
);
width = 600;
},
{
anchors = (
{
name = top;
pos = (332,530);
}
);
layerId = "772FC93F-B3B8-447D-A30A-419E2FCA5167";
shapes = (
{
closed = 1;
nodes = (
(231,84,o),
(180,150,o),
(180,241,cs),
(180,365,o),
(250,449,o),
(349,449,cs),
(398,449,o),
(428,427,o),
(428,388,cs),
(428,319,o),
(329,281,o),
(158,279,c),
(176,195,l),
(402,199,o),
(534,270,o),
(534,386,cs),
(534,485,o),
(460,540,o),
(352,540,cs),
(189,540,o),
(83,414,o),
(83,234,cs),
(83,82,o),
(170,-10,o),
(335,-10,cs),
(402,-10,o),
(473,5,o),
(530,34,c),
(506,121,l),
(450,96,o),
(396,84,o),
(342,84,cs)
);
}
);
width = 600;
},
{
anchors = (
{
name = top;
pos = (330,530);
}
);
layerId = "ADDB71F6-EC09-4DA0-80DB-A822AEA2EE7D";
shapes = (
{
closed = 1;
nodes = (
(197,36,o),
(141,121,o),
(141,250,cs),
(141,397,o),
(217,494,o),
(361,494,cs),
(418,494,o),
(483,467,o),
(483,399,cs),
(483,317,o),
(356,278,o),
(127,266,c),
(142,221,l),
(387,233,o),
(530,287,o),
(530,396,cs),
(530,494,o),
(446,540,o),
(360,540,cs),
(185,540,o),
(94,420,o),
(94,247,cs),
(94,95,o),
(170,-10,o),
(341,-10,cs),
(406,-10,o),
(472,4,o),
(526,29,c),
(512,73,l),
(459,49,o),
(398,36,o),
(341,36,cs)
);
}
);
width = 600;
},
{
anchors = (
{
name = top;
pos = (331.634,530);
}
);
layerId = "D03DF296-8133-4A96-B1BA-CFDB09DF42C8";
shapes = (
{
closed = 1;
nodes = (
(224.778,75.216,o),
(172.863,144.693,o),
(172.863,242.647,cs),
(172.863,370.856,o),
(243.961,457.235,o),
(351.196,457.235,cs),
(401.66,457.235,o),
(438.065,434.32,o),
(438.065,390.013,cs),
(438.065,318.634,o),
(333.941,280.451,o),
(152.327,276.621,c),
(169.778,199.758,l),
(399.255,205.222,o),
(533.268,273.111,o),
(533.268,387.83,cs),
(533.268,486.647,o),
(457.438,540,o),
(353.464,540,cs),
(188.268,540,o),
(85.013,415.098,o),
(85.013,236.379,cs),
(85.013,84.379,o),
(170,-10,o),
(336.098,-10,cs),
(402.732,-10,o),
(472.817,4.817,o),
(529.268,33.085,c),
(507.098,112.216,l),
(451.647,87.399,o),
(396.366,75.216,o),
(341.817,75.216,cs)
);
}
);
width = 600;
}
);
unicode = 101;
},
{
glyphname = esh;
layers = (
{
layerId = "1A7FA7F6-774C-4A69-BC02-C84AF7C361B9";
shapes = (
{
closed = 1;
nodes = (
(39,-198,l),
(86,-193,ls),
(256,-177,o),
(333,-101,o),
(339,88,cs),
(352,475,ls),
(356,581,o),
(400,634,o),
(486,634,cs),
(519,634,o),
(551,632,o),
(597,627,c),
(612,750,l),
(572,757,o),
(537,760,o),
(494,760,cs),
(317,760,o),
(226,669,o),
(219,485,cs),
(206,85,ls),
(202,-13,o),
(171,-58,o),
(101,-67,cs),
(38,-74,l)
);
}
);
width = 600;
},
{
layerId = "772FC93F-B3B8-447D-A30A-419E2FCA5167";
shapes = (
{
closed = 1;
nodes = (
(43,-198,l),
(112,-190,ls),
(251,-176,o),
(314,-99,o),
(321,88,cs),
(335,490,ls),
(339,607,o),
(387,665,o),
(482,665,cs),
(512,665,o),
(542,663,o),
(584,658,c),
(598,750,l),
(561,757,o),
(528,760,o),
(488,760,cs),
(321,760,o),
(234,669,o),
(228,485,cs),
(213,72,ls),
(210,-37,o),
(174,-85,o),
(95,-96,cs),
(41,-103,l)
);
}
);
width = 600;
},
{
layerId = "ADDB71F6-EC09-4DA0-80DB-A822AEA2EE7D";
shapes = (
{
closed = 1;
nodes = (
(47,-197,l),
(74,-193,ls),
(219,-171,o),
(284,-114,o),
(290,48,cs),
(306,520,ls),
(310,650,o),
(370,714,o),
(484,714,cs),
(511,714,o),
(537,712,o),
(574,707,c),
(587,750,l),
(554,757,o),
(524,760,o),
(488,760,cs),
(340,760,o),
(264,679,o),
(258,515,cs),
(242,32,ls),
(238,-86,o),
(190,-131,o),
(85,-148,c),
(47,-154,l)
);
}
);
width = 600;
},
{
layerId = "D03DF296-8133-4A96-B1BA-CFDB09DF42C8";
shapes = (
{
closed = 1;
nodes = (
(43.732,-197.817,l),
(105.046,-190.549,ls),
(245.144,-175.085,o),
(308.51,-101.745,o),
(315.327,80.68,cs),
(329.693,495.49,ls),
(333.693,614.869,o),
(383.889,673.967,o),
(482.366,673.967,cs),
(511.817,673.967,o),
(541.085,671.967,o),
(582.17,666.967,c),
(595.987,750,l),
(559.719,757,o),
(527.268,760,o),
(488,760,cs),
(324.477,760,o),
(239.49,670.83,o),
(233.49,490.49,cs),
(218.307,64.68,ls),
(215.124,-45.967,o),
(176.928,-93.418,o),
(93.17,-105.516,c),
(42.098,-112.333,l)
);
}
);
width = 600;
}
);
unicode = 643;
},
{
glyphname = ezh;
layers = (
{
layerId = "1A7FA7F6-774C-4A69-BC02-C84AF7C361B9";
shapes = (
{
closed = 1;
nodes = (
(442,-230,o),
(539,-135,o),
(539,-1,cs),
(539,143,o),
(447,226,o),
(286,230,c),
(196,230,l),
(200,116,l),
(243,116,ls),
(343,116,o),
(400,78,o),
(400,9,cs),
(400,-58,o),
(355,-101,o),
(276,-101,cs),
(203,-101,o),
(157,-81,o),
(101,-33,c),
(31,-140,l),
(91,-200,o),
(171,-230,o),
(270,-230,cs)
);
},
{
closed = 1;
nodes = (
(221,116,l),
(317,205,l),
(507,387,l),
(507,525,l),
(78,525,l),
(78,401,l),
(420,401,l),
(375,426,l),
(160,212,l),
(170,116,l)
);
}
);
width = 600;
},
{
layerId = "772FC93F-B3B8-447D-A30A-419E2FCA5167";
shapes = (
{
closed = 1;
nodes = (
(436,-230,o),
(530,-135,o),
(530,-1,cs),
(530,132,o),
(441,210,o),
(286,213,c),
(196,213,l),
(200,136,l),
(256,136,ls),
(361,136,o),
(422,85,o),
(422,-4,cs),
(422,-85,o),
(368,-135,o),
(276,-135,cs),
(206,-135,o),
(163,-115,o),
(110,-67,c),
(40,-140,l),
(97,-200,o),
(175,-230,o),
(270,-230,cs)
);
},
{
closed = 1;
nodes = (
(233,136,l),
(280,193,l),
(498,425,l),
(498,525,l),
(86,525,l),
(86,438,l),
(420,438,l),
(408,463,l),
(160,199,l),
(170,136,l)
);
}
);
width = 600;
},
{
layerId = "ADDB71F6-EC09-4DA0-80DB-A822AEA2EE7D";
shapes = (
{
closed = 1;
nodes = (
(429,-230,o),
(518,-139,o),
(518,-11,cs),
(518,121,o),
(423,202,o),
(256,202,cs),
(202,202,l),
(200,157,l),
(256,157,ls),
(392,157,o),
(470,95,o),
(470,-11,cs),
(470,-117,o),
(399,-184,o),
(276,-184,cs),
(194,-184,o),
(144,-162,o),
(82,-109,c),
(51,-140,l),
(106,-200,o),
(180,-230,o),
(270,-230,cs)
);
},
{
closed = 1;
nodes = (
(203,157,l),
(212,172,l),
(486,482,l),
(486,525,l),
(98,525,l),
(98,480,l),
(475,480,l),
(451,505,l),
(160,178,l),
(170,157,l)
);
}
);
width = 600;
},
{
layerId = "D03DF296-8133-4A96-B1BA-CFDB09DF42C8";
shapes = (
{
closed = 1;
nodes = (
(434.719,-230,o),
(527.804,-135.732,o),
(527.804,-2.83,cs),
(527.804,129.987,o),
(437.706,208.536,o),
(280.51,210.987,cs),
(197.098,210.987,l),
(200,139.843,l),
(256,139.843,ls),
(366.673,139.843,o),
(430.784,86.83,o),
(430.784,-5.281,cs),
(430.784,-90.856,o),
(373.673,-143.967,o),
(276,-143.967,cs),
(203.804,-143.967,o),
(159.523,-123.601,o),
(104.876,-74.686,c),
(42.013,-140,l),
(98.647,-200,o),
(175.915,-230,o),
(270,-230,cs)
);
},
{
closed = 1;
nodes = (
(227.51,139.843,l),
(267.556,189.157,l),
(495.804,435.431,l),
(495.804,525,l),
(88.196,525,l),
(88.196,445.686,l),
(430.065,445.686,l),
(415.869,470.686,l),
(160,195.157,l),
(170,139.843,l)
);
}
);
width = 600;
}
);
unicode = 658;
},
{
glyphname = f;
layers = (
{
layerId = "1A7FA7F6-774C-4A69-BC02-C84AF7C361B9";
shapes = (
{
closed = 1;
nodes = (
(276,-189,l),
(297,411,ls),
(301,537,o),
(332,637,o),
(399,637,cs),
(438,637,o),
(450,603,o),
(450,570,cs),
(450,423,o),
(246,319,o),
(7,242,c),
(46,131,l),
(346,228,o),
(577,371,o),
(577,577,cs),
(577,683,o),
(519,760,o),
(407,760,cs),
(251,760,o),
(176,615,o),
(169,416,cs),
(147,-189,l)
);
},
{
closed = 1;
nodes = (
(219,71,l),
(548,71,l),
(548,192,l),
(219,192,l)
);
}
);
width = 600;
},
{
layerId = "772FC93F-B3B8-447D-A30A-419E2FCA5167";
shapes = (
{
closed = 1;
nodes = (
(267,-189,l),
(286,424,ls),
(292,602,o),
(340,667,o),
(404,667,cs),
(456,667,o),
(465,630,o),
(465,587,cs),
(465,427,o),
(298,322,o),
(16,234,c),
(44,144,l),
(362,243,o),
(567,396,o),
(567,586,cs),
(567,686,o),
(517,760,o),
(410,760,cs),
(283,760,o),
(190,665,o),
(182,416,cs),
(163,-189,l)
);
},
{
closed = 1;
nodes = (
(222,84,l),
(548,84,l),
(548,177,l),
(222,177,l)
);
}
);
width = 600;
},
{
layerId = "ADDB71F6-EC09-4DA0-80DB-A822AEA2EE7D";
shapes = (
{
closed = 1;
nodes = (
(230,-189,l),
(252,440,ls),
(258,607,o),
(309,714,o),
(409,714,cs),
(480,714,o),
(503,658,o),
(503,596,cs),
(503,431,o),
(295,288,o),
(34,200,c),
(48,155,l),
(333,252,o),
(550,412,o),
(550,596,cs),
(550,685,o),
(507,760,o),
(410,760,cs),
(281,760,o),
(213,637,o),
(206,445,cs),
(183,-189,l)
);
},
{
closed = 1;
nodes = (
(225,104,l),
(548,104,l),
(548,150,l),
(225,150,l)
);
}
);
width = 600;
},
{
layerId = "D03DF296-8133-4A96-B1BA-CFDB09DF42C8";
shapes = (
{
closed = 1;
nodes = (
(260.229,-189,l),
(279.778,426.928,ls),
(285.778,602.915,o),
(334.327,675.601,o),
(404.915,675.601,cs),
(460.392,675.601,o),
(471.954,635.124,o),
(471.954,588.647,cs),
(471.954,427.732,o),
(297.451,315.778,o),
(19.294,227.778,c),
(44.732,146.013,l),
(356.693,244.647,o),
(563.889,398.928,o),
(563.889,587.83,cs),
(563.889,685.817,o),
(515.17,760,o),
(410,760,cs),
(282.634,760,o),
(194.209,659.876,o),
(186.392,421.307,cs),
(166.66,-189,l)
);
},
{
closed = 1;
nodes = (
(222.549,87.66,l),
(548,87.66,l),
(548,172.059,l),
(222.549,172.059,l)
);
}
);
width = 600;
}
);
unicode = 102;
},
{
glyphname = g;
layers = (
{
layerId = "1A7FA7F6-774C-4A69-BC02-C84AF7C361B9";
shapes = (
{
closed = 1;
nodes = (
(436,-205,o),
(532,-129,o),
(532,-13,cs),
(532,70,o),
(483,120,o),
(325,154,cs),
(229,174,o),
(193,217,o),
(193,284,cs),
(193,352,o),
(231,417,o),
(293,417,cs),
(343,417,o),
(384,369,o),
(384,306,cs),
(384,273,o),
(373,163,o),
(264,148,c),
(265,95,l),
(414,95,l),
(414,154,l),
(382,134,l),
(476,139,o),
(516,217,o),
(516,301,cs),
(516,435,o),
(421,540,o),
(294,540,cs),
(160,540,o),
(53,427,o),
(53,273,cs),
(53,153,o),
(122,82,o),
(288,37,cs),
(368,15,o),
(394,0,o),
(394,-24,cs),
(394,-58,o),
(346,-81,o),
(289,-81,cs),
(219,-81,o),
(160,-50,o),
(101,13,c),
(16,-93,l),
(80,-163,o),
(180,-205,o),
(290,-205,cs)
);
},
{
closed = 1;
nodes = (
(482,383,l),
(514,421,l),
(494,421,l),
(518,387,o),
(595,385,q),
(595,510,l),
(350,510,l)
);
}
);
width = 600;
},
{
layerId = "772FC93F-B3B8-447D-A30A-419E2FCA5167";
shapes = (
{
closed = 1;
nodes = (
(424,-205,o),
(520,-123,o),
(520,-12,cs),
(520,73,o),
(475,102,o),
(338,138,cs),
(210,171,o),
(170,203,o),
(170,278,cs),
(170,372,o),
(220,446,o),
(297,446,cs),
(365,446,o),
(411,390,o),
(411,311,cs),
(411,239,o),
(362,138,o),
(270,127,c),
(270,91,l),
(403,91,l),
(403,142,l),
(382,124,l),
(460,138,o),
(510,219,o),
(510,312,cs),
(510,451,o),
(423,540,o),
(301,540,cs),
(162,540,o),
(65,425,o),
(65,276,cs),
(65,154,o),
(132,93,o),
(294,48,cs),
(389,22,o),
(420,13,o),
(420,-24,cs),
(420,-68,o),
(366,-111,o),
(288,-111,cs),
(198,-111,o),
(130,-61,o),
(102,-11,c),
(25,-86,l),
(88,-170,o),
(175,-205,o),
(282,-205,cs)
);
},
{
closed = 1;
nodes = (
(468,413,l),
(499,450,l),
(482,445,l),
(511,415,o),
(590,415,q),
(590,510,l),
(367,510,l)
);
}
);
width = 600;
},
{
layerId = "ADDB71F6-EC09-4DA0-80DB-A822AEA2EE7D";
shapes = (
{
closed = 1;
nodes = (
(416,-205,o),
(507,-138,o),
(507,-38,cs),
(507,37,o),
(458,85,o),
(304,118,cs),
(178,145,o),
(132,201,o),
(132,296,cs),
(132,401,o),
(189,494,o),
(294,494,cs),
(382,494,o),
(445,424,o),
(445,319,cs),
(445,172,o),
(334,113,o),
(272,110,c),
(272,85,l),
(360,85,l),
(360,121,l),
(334,99,l),
(418,108,o),
(492,204,o),
(492,321,cs),
(492,446,o),
(409,540,o),
(295,540,cs),
(166,540,o),
(85,425,o),
(85,292,cs),
(85,179,o),
(142,108,o),
(296,72,cs),
(415,44,o),
(461,10,o),
(461,-41,cs),
(461,-109,o),
(393,-159,o),
(282,-159,cs),
(194,-159,o),
(122,-120,o),
(73,-50,c),
(38,-84,l),
(95,-164,o),
(180,-205,o),
(282,-205,cs)
);
},
{
closed = 1;
nodes = (
(438,459,l),
(460,489,l),
(437,484,l),
(463,465,o),
(583,465,q),
(583,510,l),
(387,510,l)
);
}
);
width = 600;
},
{
layerId = "D03DF296-8133-4A96-B1BA-CFDB09DF42C8";
shapes = (
{
closed = 1;
nodes = (
(422.536,-205,o),
(517.621,-125.745,o),
(517.621,-16.758,cs),
(517.621,66.412,o),
(471.889,98.889,o),
(331.778,134.34,cs),
(204.144,166.242,o),
(163.046,202.634,o),
(163.046,281.294,cs),
(163.046,377.307,o),
(214.327,454.784,o),
(296.451,454.784,cs),
(368.111,454.784,o),
(417.222,396.222,o),
(417.222,312.464,cs),
(417.222,226.739,o),
(356.876,133.425,o),
(270.366,123.889,c),
(270.366,89.902,l),
(395.131,89.902,l),
(395.131,138.157,l),
(373.216,119.425,l),
(452.314,132.51,o),
(506.706,216.255,o),
(506.706,313.647,cs),
(506.706,450.085,o),
(420.438,540,o),
(299.902,540,cs),
(162.732,540,o),
(68.66,425,o),
(68.66,278.928,cs),
(68.66,158.575,o),
(133.83,95.745,o),
(294.366,52.392,cs),
(393.758,26.026,o),
(427.503,12.451,o),
(427.503,-27.111,cs),
(427.503,-75.503,o),
(370.941,-119.784,o),
(286.902,-119.784,cs),
(197.268,-119.784,o),
(128.536,-71.797,o),
(96.693,-18.137,c),
(27.379,-85.634,l),
(89.281,-168.902,o),
(175.915,-205,o),
(282,-205,cs)
);
},
{
closed = 1;
nodes = (
(462.51,421.418,l),
(491.863,457.137,l),
(473.765,452.137,l),
(502.216,424.15,o),
(588.719,424.15,q),
(588.719,510,l),
(370.66,510,l)
);
}
);
width = 600;
}
);
unicode = 103;
},
{
glyphname = glottalstop;
layers = (
{
layerId = "1A7FA7F6-774C-4A69-BC02-C84AF7C361B9";
shapes = (
{
closed = 1;
nodes = (
(195,0,l),
(327,0,l),
(333,171,ls),
(335,230,o),
(352,282,o),
(398,333,cs),
(471,412,o),
(519,469,o),
(523,561,cs),
(527,687,o),
(446,760,o),
(301,760,cs),
(202,760,o),
(108,713,o),
(59,642,c),
(129,548,l),
(172,598,o),
(233,632,o),
(293,632,cs),
(355,632,o),
(386,605,o),
(384,554,cs),
(382,504,o),
(356,469,o),
(321,433,cs),
(242,355,o),
(205,289,o),
(201,181,cs)
);
}
);
width = 600;
},
{
layerId = "772FC93F-B3B8-447D-A30A-419E2FCA5167";
shapes = (
{
closed = 1;
nodes = (
(209,0,l),
(312,0,l),
(319,184,ls),
(321,242,o),
(344,300,o),
(411,369,cs),
(475,435,o),
(512,483,o),
(514,561,cs),
(519,687,o),
(439,760,o),
(297,760,cs),
(205,760,o),
(118,717,o),
(73,650,c),
(139,579,l),
(178,631,o),
(237,665,o),
(292,665,cs),
(366,665,o),
(407,625,o),
(404,556,cs),
(402,506,o),
(382,475,o),
(335,427,cs),
(259,348,o),
(218,282,o),
(215,191,cs)
);
}
);
width = 600;
},
{
layerId = "ADDB71F6-EC09-4DA0-80DB-A822AEA2EE7D";
shapes = (
{
closed = 1;
nodes = (
(237,0,l),
(284,0,l),
(290,169,ls),
(293,243,o),
(317,290,o),
(373,335,cs),
(460,407,o),
(500,471,o),
(503,562,cs),
(507,683,o),
(429,760,o),
(297,760,cs),
(218,760,o),
(155,733,o),
(85,671,c),
(114,639,l),
(177,692,o),
(230,715,o),
(294,715,cs),
(400,715,o),
(460,658,o),
(457,561,cs),
(454,488,o),
(425,434,o),
(353,378,cs),
(280,321,o),
(246,259,o),
(243,176,cs)
);
}
);
width = 600;
},
{
layerId = "D03DF296-8133-4A96-B1BA-CFDB09DF42C8";
shapes = (
{
closed = 1;
nodes = (
(214.124,0,l),
(306.876,0,l),
(313.693,181.255,ls),
(315.876,242.183,o),
(339.059,298.17,o),
(404.046,362.778,cs),
(472.255,429.876,o),
(509.804,480.804,o),
(511.987,561.183,cs),
(516.804,686.268,o),
(437.17,760,o),
(297,760,cs),
(207.379,760,o),
(124.771,719.928,o),
(75.196,653.843,c),
(134.425,589.98,l),
(177.817,642.163,o),
(235.719,674.15,o),
(292.366,674.15,cs),
(372.222,674.15,o),
(416.699,631.039,o),
(413.699,556.915,cs),
(411.516,502.706,o),
(389.869,467.497,o),
(338.294,418.033,cs),
(262.843,343.059,o),
(223.124,277.791,o),
(220.124,188.255,cs)
);
}
);
width = 600;
}
);
unicode = 660;
},
{
glyphname = gsingle;
layers = (
{
layerId = "D03DF296-8133-4A96-B1BA-CFDB09DF42C8";
shapes = (
{
closed = 1;
nodes = (
(522.621,523,l),
(426.601,523,l),
(409.235,50.608,ls),
(405.235,-61.941,o),
(335.601,-124.418,o),
(234.745,-124.418,cs),
(192.83,-124.418,o),
(137.111,-114.15,o),
(87.647,-97.784,c),
(73.196,-184,l),
(121.294,-199,o),
(183.928,-208,o),
(235.379,-208,cs),
(392.647,-208,o),
(498.621,-116.987,o),
(504.621,39.157,cs)
);
},
{
closed = 1;
nodes = (
(191.673,541,o),
(59.111,399.379,o),
(59.111,215.745,cs),
(59.111,89.549,o),
(121.66,11.817,o),
(225.307,11.817,cs),
(333.856,11.817,o),
(398.418,75.379,o),
(407.333,186.405,c),
(387.15,148.405,l),
(430.601,148.405,l),
(421.784,363.405,l),
(413.15,176.791,o),
(333.307,97.033,o),
(250.013,97.033,cs),
(190.242,97.033,o),
(153.314,142.51,o),
(153.314,217.013,cs),
(153.314,350.32,o),
(248.085,454.967,o),
(374,454.967,cs),
(423.987,454.967,o),
(463.072,444.699,o),
(486.353,436.601,c),
(522.621,523,l),
(474.719,534.183,o),
(426.366,541,o),
(373.281,541,cs)
);
}
);
width = 600;
},
{
layerId = "ADDB71F6-EC09-4DA0-80DB-A822AEA2EE7D";
shapes = (
{
closed = 1;
nodes = (
(512,523,l),
(465,523,l),
(446,31,ls),
(442,-84,o),
(374,-162,o),
(247,-162,cs),
(201,-162,o),
(151,-155,o),
(95,-137,c),
(83,-184,l),
(136,-199,o),
(197,-208,o),
(246,-208,cs),
(400,-208,o),
(488,-108,o),
(494,22,cs)
);
},
{
closed = 1;
nodes = (
(217,541,o),
(73,410,o),
(73,228,cs),
(73,92,o),
(138,11,o),
(249,11,cs),
(360,11,o),
(436,86,o),
(449,215,c),
(428,177,l),
(469,177,l),
(461,392,l),
(454,158,o),
(357,57,o),
(259,57,cs),
(169,57,o),
(119,118,o),
(119,226,cs),
(119,383,o),
(244,495,o),
(374,495,cs),
(415,495,o),
(450,488,o),
(479,475,c),
(512,523,l),
(469,535,o),
(428,541,o),
(379,541,cs)
);
}
);
width = 600;
},
{
layerId = "772FC93F-B3B8-447D-A30A-419E2FCA5167";
shapes = (
{
closed = 1;
nodes = (
(525,523,l),
(418,523,l),
(401,55,ls),
(397,-57,o),
(327,-116,o),
(232,-116,cs),
(191,-116,o),
(134,-105,o),
(86,-89,c),
(71,-184,l),
(118,-199,o),
(181,-208,o),
(233,-208,cs),
(391,-208,o),
(501,-119,o),
(507,43,cs)
);
},
{
closed = 1;
nodes = (
(186,541,o),
(56,397,o),
(56,213,cs),
(56,89,o),
(118,12,o),
(220,12,cs),
(328,12,o),
(390,73,o),
(398,180,c),
(378,142,l),
(422,142,l),
(413,357,l),
(404,181,o),
(328,106,o),
(248,106,cs),
(195,106,o),
(161,148,o),
(161,215,cs),
(161,343,o),
(249,446,o),
(374,446,cs),
(426,446,o),
(466,435,o),
(488,428,c),
(525,523,l),
(476,534,o),
(426,541,o),
(372,541,cs)
);
}
);
width = 600;
},
{
layerId = "1A7FA7F6-774C-4A69-BC02-C84AF7C361B9";
shapes = (
{
closed = 1;
nodes = (
(531,523,l),
(398,523,l),
(385,78,ls),
(381,-49,o),
(298,-82,o),
(213,-82,cs),
(163,-82,o),
(126,-73,o),
(81,-57,c),
(58,-184,l),
(108,-199,o),
(161,-208,o),
(225,-208,cs),
(387,-208,o),
(510,-136,o),
(516,52,cs)
);
},
{
closed = 1;
nodes = (
(193,541,o),
(49,397,o),
(49,221,cs),
(49,89,o),
(112,10,o),
(218,10,cs),
(307,10,o),
(366,59,o),
(373,144,c),
(358,116,l),
(404,116,l),
(394,356,l),
(386,204,o),
(317,139,o),
(254,139,cs),
(204,139,o),
(185,162,o),
(185,221,cs),
(185,324,o),
(270,414,o),
(365,414,cs),
(401,414,o),
(443,407,o),
(484,393,c),
(531,523,l),
(473,535,o),
(414,541,o),
(365,541,cs)
);
}
);
width = 600;
}
);
unicode = 609;
},
{
glyphname = h;
layers = (
{
layerId = "1A7FA7F6-774C-4A69-BC02-C84AF7C361B9";
shapes = (
{
closed = 1;
nodes = (
(378,183,ls),
(367,49,o),
(432,-5,o),
(549,-5,cs),
(568,-5,l),
(572,121,l),
(563,121,ls),
(513,121,o),
(511,151,o),
(514,190,cs),
(527,355,ls),
(537,475,o),
(488,540,o),
(384,540,cs),
(303,540,o),
(229,502,o),
(223,417,c),
(236,444,l),
(196,444,l),
(209,194,l),
(215,346,o),
(270,412,o),
(331,412,cs),
(384,412,o),
(393,367,o),
(389,321,cs)
);
},
{
closed = 1;
nodes = (
(67,0,l),
(202,0,l),
(229,750,l),
(94,750,l)
);
}
);
width = 600;
},
{
layerId = "772FC93F-B3B8-447D-A30A-419E2FCA5167";
shapes = (
{
closed = 1;
nodes = (
(393,187,ls),
(378,45,o),
(427,-5,o),
(547,-5,cs),
(568,-5,l),
(571,90,l),
(550,90,ls),
(500,90,o),
(492,120,o),
(498,187,cs),
(514,349,ls),
(525,462,o),
(486,540,o),
(376,540,cs),
(287,540,o),
(207,488,o),
(199,382,c),
(218,420,l),
(175,420,l),
(184,194,l),
(191,370,o),
(265,445,o),
(344,445,cs),
(416,445,o),
(416,382,o),
(409,321,cs)
);
},
{
closed = 1;
nodes = (
(72,0,l),
(178,0,l),
(206,750,l),
(99,750,l)
);
}
);
width = 600;
},
{
layerId = "ADDB71F6-EC09-4DA0-80DB-A822AEA2EE7D";
shapes = (
{
closed = 1;
nodes = (
(438,140,ls),
(430,48,o),
(460,-5,o),
(531,-5,cs),
(569,-5,l),
(571,40,l),
(537,40,ls),
(493,40,o),
(479,74,o),
(484,140,cs),
(501,337,ls),
(511,465,o),
(450,540,o),
(351,540,cs),
(248,540,o),
(164,459,o),
(151,346,c),
(170,384,l),
(130,384,l),
(140,159,l),
(146,393,o),
(248,494,o),
(346,494,cs),
(424,494,o),
(463,432,o),
(454,326,cs)
);
},
{
closed = 1;
nodes = (
(88,0,l),
(134,0,l),
(162,750,l),
(116,750,l)
);
}
);
width = 600;
},
{
layerId = "D03DF296-8133-4A96-B1BA-CFDB09DF42C8";
shapes = (
{
closed = 1;
nodes = (
(401.235,178.399,ls),
(387.516,45.549,o),
(433.039,-5,o),
(544.072,-5,cs),
(568.183,-5,l),
(571,80.85,l),
(547.621,80.85,ls),
(498.719,80.85,o),
(489.621,111.582,o),
(495.438,178.399,cs),
(511.621,346.804,ls),
(522.438,462.549,o),
(479.412,540,o),
(371.425,540,cs),
(279.863,540,o),
(199.131,482.693,o),
(190.216,375.412,c),
(209.216,413.412,l),
(166.765,413.412,l),
(175.948,187.595,l),
(182.765,374.209,o),
(261.889,453.967,o),
(344.366,453.967,cs),
(417.464,453.967,o),
(424.601,391.15,o),
(417.235,321.915,cs)
);
},
{
closed = 1;
nodes = (
(74.928,0,l),
(169.948,0,l),
(197.948,750,l),
(102.111,750,l)
);
}
);
width = 600;
}
);
unicode = 104;
},
{
glyphname = i;
layers = (
{
layerId = "1A7FA7F6-774C-4A69-BC02-C84AF7C361B9";
shapes = (
{
closed = 1;
nodes = (
(515,-10,o),
(562,6,o),
(606,27,c),
(555,145,l),
(520,126,o),
(498,119,o),
(463,119,cs),
(372,119,o),
(376,179,o),
(387,307,cs),
(406,530,l),
(279,530,l),
(250,307,ls),
(228,140,o),
(252,-10,o),
(451,-10,cs)
);
},
{
closed = 1;
nodes = (
(272,530,l),
(209,467,o),
(57,368,o),
(-4,330,c),
(72,224,l),
(137,266,o),
(278,370,o),
(334,422,c),
(338,530,l)
);
},
{
closed = 1;
nodes = (
(388,613,o),
(429,653,o),
(429,703,cs),
(429,754,o),
(388,795,o),
(338,795,cs),
(288,795,o),
(247,754,o),
(247,703,cs),
(247,653,o),
(288,613,o),
(338,613,cs)
);
}
);
width = 600;
},
{
layerId = "772FC93F-B3B8-447D-A30A-419E2FCA5167";
shapes = (
{
closed = 1;
nodes = (
(506,-10,o),
(552,10,o),
(595,37,c),
(554,118,l),
(515,94,o),
(489,85,o),
(450,85,cs),
(362,85,o),
(354,135,o),
(365,238,cs),
(394,530,l),
(296,530,l),
(258,238,ls),
(241,106,o),
(278,-10,o),
(439,-10,cs)
);
},
{
closed = 1;
nodes = (
(292,530,l),
(245,483,o),
(145,407,o),
(4,321,c),
(62,239,l),
(187,313,o),
(287,398,o),
(319,451,c),
(319,530,l)
);
},
{
closed = 1;
nodes = (
(389,635,o),
(422,668,o),
(422,709,cs),
(422,750,o),
(389,782,o),
(348,782,cs),
(307,782,o),
(274,750,o),
(274,709,cs),
(274,668,o),
(307,635,o),
(348,635,cs)
);
}
);
width = 600;
},
{
layerId = "ADDB71F6-EC09-4DA0-80DB-A822AEA2EE7D";
shapes = (
{
closed = 1;
nodes = (
(516,-10,o),
(558,4,o),
(597,32,c),
(573,74,l),
(538,48,o),
(503,36,o),
(469,36,cs),
(325,36,o),
(329,170,o),
(344,307,cs),
(369,530,l),
(326,530,l),
(297,307,ls),
(280,169,o),
(276,-10,o),
(471,-10,cs)
);
},
{
closed = 1;
nodes = (
(325,530,l),
(257,458,o),
(88,335,o),
(20,293,c),
(46,256,l),
(102,289,o),
(295,435,o),
(351,500,c),
(354,530,l)
);
},
{
closed = 1;
nodes = (
(371,682,o),
(393,703,o),
(393,731,cs),
(393,759,o),
(371,781,o),
(343,781,cs),
(315,781,o),
(293,759,o),
(293,731,cs),
(293,703,o),
(315,682,o),
(343,682,cs)
);
}
);
width = 600;
},
{
layerId = "D03DF296-8133-4A96-B1BA-CFDB09DF42C8";
shapes = (
{
closed = 1;
nodes = (
(507.83,-10,o),
(553.098,8.902,o),
(595.366,36.085,c),
(557.477,109.948,l),
(519.209,85.582,o),
(491.562,76.033,o),
(453.477,76.033,cs),
(355.229,76.033,o),
(349.425,141.405,o),
(361.157,250.627,cs),
(389.425,530,l),
(301.49,530,l),
(265.137,250.627,ls),
(248.137,117.529,o),
(277.634,-10,o),
(444.856,-10,cs)
);
},
{
closed = 1;
nodes = (
(298.039,530,l),
(247.196,478.425,o),
(134.569,393.824,o),
(6.928,315.876,c),
(59.072,242.111,l),
(171.444,308.608,o),
(288.464,404.771,o),
(324.856,459.967,c),
(325.405,530,l)
);
},
{
closed = 1;
nodes = (
(385.706,643.601,o),
(416.693,674.405,o),
(416.693,713.026,cs),
(416.693,751.647,o),
(385.706,781.817,o),
(347.085,781.817,cs),
(308.464,781.817,o),
(277.477,751.647,o),
(277.477,713.026,cs),
(277.477,674.405,o),
(308.464,643.601,o),
(347.085,643.601,cs)
);
}
);
width = 600;
}
);
unicode = 105;
},
